{
.appVersion = "1286";
DisplayStrings = (
"abcdefghijklmnopqrstuvwxyz\012nnnnnnononooooooooonnnnn \012nnanoaoo\012nnbnnnoboo\012nncnocoo\012nndnodoo\012nnenoeoo\012nnnnfnofoo afaro feo fosforo falso\012nngnnogoo\012nnhnnohoo\012nn/idotless innoiooa\012nn/idotless nno/idotless ooa\012nnnjnnojoo\012nnknnokoo ka ke kc\012nnlnnoloo an Tomate Tarro\012nnmnnomoo\012nnpnnopoo\012nnqnnoqoo quien\012nnrnnoroo re rama \012nnsnnosoo fosforo atno\012nntnnotoo alto atlántico toronja\012nnunnouoo aun nun\012nnvnnnonovoo\012nnwnnowoo\012nnxnnoxoo axioma oxido\012nnynoyoo tocayo hoy anyer\012nnnznnozoo zoologico ozono\012",
"ABCDEFGHIJKLMNOPQRSTUVWXYZ\012HH1H2H3HH4HH5HH6HH7HH8HH9HH0HH2180 3215 2438 14718 2761 2568 23 2141 7428\012HHHHHHHHOHHOHOOOO\012OOOOOOO\012HHHAHOAOO H-H-A-H Atado\012HHBHOBOO feo ACME\012HHCHOCOO C-C Comodo CATARRO\012HHDHODOO HH-HH Dorado\012HHEHOEOO H-E-H MUR\012HHFHOFOO FOSFORO HF-H Fa Fe Fu\012HHGHOGOO\012HHIHOIOO HOLOGRAMA Lamana\012HHJHOJOO Jamon Jo Jumin\012HHKHOKOO HK-H Ka Kokinos Ku KQ\012HHLHOLOO Laura Lu Loro\012HHMHOMOO ATAN ATMÓSFERA ATOMO AMTO TOTO\012HHNHONOO Fa Farmaco\012HHPHOPOO HP-H-H Palo Pel Po\012HHQHOQOO H. H, P. F. V. T. W. Y. A?\012P, P; F, F; V: V, V; W, T, O., O. Y,\012HHRHOROO ARQUOEO HR-H\012HHSHHOSOO ASUSELO H-S-H\012HHTHOTOO TOTO ALTO AL URO AJUAR Ta Tomate\012HHUHOUOO ASADERO AFANADOR\012HHAHHOOAOO\012HHHVHOVOO H-V/emdash H ALWAYS ATADURA Va Voltaje Volumen Ve Vulcano KOLMA Mo\012HHWHOWOO H/endash W/emdash H Wol Walk We Wã OVOIDE AVARO RaRoma AWAY AMAYA HA50\012HAYACA\012AWARNESS OWO OWNER ALVARO AMAYA\012HHYHOYOO H-H-Y-HPVCZHOZOO H-Z-H\012HHZHHOZOO Za Zu  HHSHOSOO\012VlVlANA MONSALVE HAMACA HAN HENCHO DAÑO BOAO\012",
"nndnonbHOnnðnnoðoo",
"HHDHODOO\012HHÐHOÐOO\012HH/Dcaron HO/Dcaron OO\012 HH/Dcroat HO/Dcroat OO",
"HHLHOLOO\012HH/Lslash HO/Lslash OO",
"nnlnoloo\012nn/lacute no/lacute oo\012nn/lcaron no/lcaron oo\012nn/lslash no/lslash oo",

glyphs = (
{
glyphname = .notdef;
lastChange = "2020-01-28 17:56:37 +0000";
layers = (
{
background = {
paths = (
{
closed = 1;
nodes = (
"531 -6 LINE SMOOTH",
"546 -6 OFFCURVE",
"561 6 OFFCURVE",
"561 25 CURVE SMOOTH",
"561 644 LINE SMOOTH",
"561 661 OFFCURVE",
"547 675 OFFCURVE",
"531 675 CURVE SMOOTH",
"137 675 LINE SMOOTH",
"119 675 OFFCURVE",
"106 661 OFFCURVE",
"106 644 CURVE SMOOTH",
"106 25 LINE SMOOTH",
"106 7 OFFCURVE",
"119 -6 OFFCURVE",
"137 -6 CURVE SMOOTH"
);
},
{
closed = 1;
nodes = (
"332 314 LINE",
"516 15 LINE",
"136 15 LINE"
);
},
{
closed = 1;
nodes = (
"127 649 LINE",
"320 336 LINE",
"127 40 LINE"
);
},
{
closed = 1;
nodes = (
"344 333 LINE",
"541 635 LINE",
"541 15 LINE"
);
},
{
closed = 1;
nodes = (
"148 654 LINE",
"528 654 LINE",
"332 355 LINE"
);
}
);
};
layerId = master01;
paths = (
{
closed = 1;
nodes = (
"531 -6 LINE SMOOTH",
"546 -6 OFFCURVE",
"561 6 OFFCURVE",
"561 25 CURVE SMOOTH",
"561 644 LINE SMOOTH",
"561 661 OFFCURVE",
"547 675 OFFCURVE",
"531 675 CURVE SMOOTH",
"137 675 LINE SMOOTH",
"119 675 OFFCURVE",
"106 661 OFFCURVE",
"106 644 CURVE SMOOTH",
"106 25 LINE SMOOTH",
"106 7 OFFCURVE",
"119 -6 OFFCURVE",
"137 -6 CURVE SMOOTH"
);
},
{
closed = 1;
nodes = (
"332 314 LINE",
"516 15 LINE",
"136 15 LINE"
);
},
{
closed = 1;
nodes = (
"127 649 LINE",
"320 336 LINE",
"127 40 LINE"
);
},
{
closed = 1;
nodes = (
"344 333 LINE",
"541 635 LINE",
"541 15 LINE"
);
},
{
closed = 1;
nodes = (
"148 654 LINE",
"528 654 LINE",
"332 355 LINE"
);
}
);
userData = {
com.fontlab.hintData = {
hhints = (
{
position = 0;
width = 21;
},
{
position = 660;
width = 21;
}
);
vhints = (
{
position = 20;
width = 21;
},
{
position = 455;
width = 20;
}
);
};
};
width = 628;
},
{
background = {
paths = (
{
closed = 1;
nodes = (
"440 0 LINE SMOOTH",
"460 0 OFFCURVE",
"480 16 OFFCURVE",
"480 40 CURVE SMOOTH",
"480 641 LINE SMOOTH",
"480 663 OFFCURVE",
"462 681 OFFCURVE",
"440 681 CURVE SMOOTH",
"58 681 LINE SMOOTH",
"36 681 OFFCURVE",
"18 663 OFFCURVE",
"18 641 CURVE SMOOTH",
"18 40 LINE SMOOTH",
"18 18 OFFCURVE",
"36 0 OFFCURVE",
"58 0 CURVE SMOOTH"
);
},
{
closed = 1;
nodes = (
"247 303 LINE",
"409 40 LINE",
"75 40 LINE"
);
},
{
closed = 1;
nodes = (
"58 610 LINE",
"224 341 LINE",
"58 87 LINE"
);
},
{
closed = 1;
nodes = (
"271 340 LINE",
"440 599 LINE",
"440 66 LINE"
);
},
{
closed = 1;
nodes = (
"86 641 LINE",
"420 641 LINE",
"248 378 LINE"
);
}
);
};
layerId = "ACFB53BD-70C1-480F-BE56-298851F5C10E";
paths = (
{
closed = 1;
nodes = (
"439 -6 LINE SMOOTH",
"459 -6 OFFCURVE",
"479 10 OFFCURVE",
"479 34 CURVE SMOOTH",
"479 635 LINE SMOOTH",
"479 657 OFFCURVE",
"461 675 OFFCURVE",
"439 675 CURVE SMOOTH",
"57 675 LINE SMOOTH",
"35 675 OFFCURVE",
"17 657 OFFCURVE",
"17 635 CURVE SMOOTH",
"17 34 LINE SMOOTH",
"17 12 OFFCURVE",
"35 -6 OFFCURVE",
"57 -6 CURVE SMOOTH"
);
},
{
closed = 1;
nodes = (
"246 297 LINE",
"408 34 LINE",
"74 34 LINE"
);
},
{
closed = 1;
nodes = (
"57 604 LINE",
"223 335 LINE",
"57 81 LINE"
);
},
{
closed = 1;
nodes = (
"270 334 LINE",
"439 593 LINE",
"439 60 LINE"
);
},
{
closed = 1;
nodes = (
"85 635 LINE",
"419 635 LINE",
"247 372 LINE"
);
}
);
userData = {
com.fontlab.hintData = {
hhints = (
{
position = 0;
width = 40;
},
{
position = 641;
width = 40;
}
);
vhints = (
{
position = 18;
width = 40;
},
{
position = 440;
width = 40;
}
);
};
};
width = 500;
},
{
background = {
paths = (
{
closed = 1;
nodes = (
"431 0 LINE SMOOTH",
"461 0 OFFCURVE",
"492 24 OFFCURVE",
"492 61 CURVE SMOOTH",
"492 620 LINE SMOOTH",
"492 654 OFFCURVE",
"465 681 OFFCURVE",
"431 681 CURVE SMOOTH",
"76 681 LINE SMOOTH",
"42 681 OFFCURVE",
"15 654 OFFCURVE",
"15 620 CURVE SMOOTH",
"15 61 LINE SMOOTH",
"15 27 OFFCURVE",
"42 0 OFFCURVE",
"76 0 CURVE SMOOTH"
);
},
{
closed = 1;
nodes = (
"251 263 LINE",
"361 84 LINE",
"135 84 LINE"
);
},
{
closed = 1;
nodes = (
"99 510 LINE",
"202 342 LINE",
"99 183 LINE"
);
},
{
closed = 1;
nodes = (
"301 339 LINE",
"408 502 LINE",
"408 167 LINE"
);
},
{
closed = 1;
nodes = (
"143 597 LINE",
"369 597 LINE",
"253 418 LINE"
);
}
);
};
layerId = "140D7E2C-8008-49AA-8FE3-CF6E53AFBA7D";
paths = (
{
closed = 1;
nodes = (
"430 -6 LINE SMOOTH",
"460 -6 OFFCURVE",
"491 18 OFFCURVE",
"491 55 CURVE SMOOTH",
"491 614 LINE SMOOTH",
"491 648 OFFCURVE",
"464 675 OFFCURVE",
"430 675 CURVE SMOOTH",
"75 675 LINE SMOOTH",
"41 675 OFFCURVE",
"14 648 OFFCURVE",
"14 614 CURVE SMOOTH",
"14 55 LINE SMOOTH",
"14 21 OFFCURVE",
"41 -6 OFFCURVE",
"75 -6 CURVE SMOOTH"
);
},
{
closed = 1;
nodes = (
"250 257 LINE",
"360 78 LINE",
"134 78 LINE"
);
},
{
closed = 1;
nodes = (
"98 504 LINE",
"201 336 LINE",
"98 177 LINE"
);
},
{
closed = 1;
nodes = (
"300 333 LINE",
"407 496 LINE",
"407 161 LINE"
);
},
{
closed = 1;
nodes = (
"142 591 LINE",
"368 591 LINE",
"252 412 LINE"
);
}
);
userData = {
com.fontlab.hintData = {
hhints = (
{
position = 0;
width = 84;
},
{
position = 597;
width = 84;
}
);
vhints = (
{
position = 15;
width = 84;
},
{
position = 408;
width = 84;
}
);
};
};
width = 526;
}
);
},
{
color = 5;
glyphname = exclam;
lastChange = "2020-01-28 17:36:07 +0000";
layers = (
{
background = {
paths = (
{
closed = 1;
nodes = (
"123 152 OFFCURVE",
"135 162 OFFCURVE",
"137 172 CURVE SMOOTH",
"244 674 LINE SMOOTH",
"247 686 OFFCURVE",
"239 695 OFFCURVE",
"229 695 CURVE SMOOTH",
"219 695 OFFCURVE",
"207 686 OFFCURVE",
"204 674 CURVE SMOOTH",
"97 172 LINE SMOOTH",
"95 162 OFFCURVE",
"103 152 OFFCURVE",
"113 152 CURVE SMOOTH"
);
},
{
closed = 1;
nodes = (
"87 -6 OFFCURVE",
"106 14 OFFCURVE",
"110 33 CURVE SMOOTH",
"110 33 OFFCURVE",
"110 38 OFFCURVE",
"110 40 CURVE SMOOTH",
"110 51 OFFCURVE",
"104 60 OFFCURVE",
"93 60 CURVE SMOOTH",
"76 60 OFFCURVE",
"58 42 OFFCURVE",
"53 23 CURVE SMOOTH",
"52 20 OFFCURVE",
"52 18 OFFCURVE",
"52 15 CURVE SMOOTH",
"52 4 OFFCURVE",
"59 -6 OFFCURVE",
"71 -6 CURVE SMOOTH"
);
}
);
};
layerId = master01;
paths = (
{
closed = 1;
nodes = (
"123 152 OFFCURVE",
"135 162 OFFCURVE",
"137 172 CURVE SMOOTH",
"244 674 LINE SMOOTH",
"247 686 OFFCURVE",
"239 695 OFFCURVE",
"229 695 CURVE SMOOTH",
"219 695 OFFCURVE",
"207 686 OFFCURVE",
"204 674 CURVE SMOOTH",
"97 172 LINE SMOOTH",
"95 162 OFFCURVE",
"103 152 OFFCURVE",
"113 152 CURVE SMOOTH"
);
},
{
closed = 1;
nodes = (
"87 -6 OFFCURVE",
"110 15 OFFCURVE",
"110 40 CURVE SMOOTH",
"110 51 OFFCURVE",
"104 60 OFFCURVE",
"93 60 CURVE SMOOTH",
"73 60 OFFCURVE",
"52 35 OFFCURVE",
"52 15 CURVE SMOOTH",
"52 4 OFFCURVE",
"59 -6 OFFCURVE",
"71 -6 CURVE SMOOTH"
);
}
);
userData = {
com.fontlab.hintData = {
hhints = (
{
position = 0;
width = 66;
}
);
vhints = (
{
position = 65;
width = 58;
}
);
};
};
width = 255;
},
{
background = {
paths = (
{
closed = 1;
nodes = (
"120 152 OFFCURVE",
"136 165 OFFCURVE",
"139 181 CURVE SMOOTH",
"241 663 LINE SMOOTH",
"242 665 OFFCURVE",
"242 668 OFFCURVE",
"242 670 CURVE SMOOTH",
"242 683 OFFCURVE",
"233 693 OFFCURVE",
"219 693 CURVE SMOOTH",
"203 693 OFFCURVE",
"187 679 OFFCURVE",
"183 663 CURVE SMOOTH",
"81 181 LINE SMOOTH",
"81 179 OFFCURVE",
"80 177 OFFCURVE",
"80 175 CURVE SMOOTH",
"80 162 OFFCURVE",
"90 152 OFFCURVE",
"104 152 CURVE SMOOTH"
);
},
{
closed = 1;
nodes = (
"83 0 OFFCURVE",
"107 20 OFFCURVE",
"112 47 CURVE",
"113 50 OFFCURVE",
"113 54 OFFCURVE",
"113 57 CURVE SMOOTH",
"113 71 OFFCURVE",
"104 83 OFFCURVE",
"88 83 CURVE SMOOTH",
"67 83 OFFCURVE",
"43 61 OFFCURVE",
"38 37 CURVE SMOOTH",
"37 34 OFFCURVE",
"37 31 OFFCURVE",
"37 28 CURVE SMOOTH",
"37 12 OFFCURVE",
"47 0 OFFCURVE",
"63 0 CURVE SMOOTH"
);
}
);
};
layerId = "ACFB53BD-70C1-480F-BE56-298851F5C10E";
paths = (
{
closed = 1;
nodes = (
"118 146 OFFCURVE",
"135 159 OFFCURVE",
"138 175 CURVE SMOOTH",
"240 657 LINE SMOOTH",
"242 668 OFFCURVE",
"237 687 OFFCURVE",
"218 687 CURVE SMOOTH",
"203 687 OFFCURVE",
"185 673 OFFCURVE",
"182 657 CURVE SMOOTH",
"80 175 LINE SMOOTH",
"76 157 OFFCURVE",
"88 146 OFFCURVE",
"103 146 CURVE SMOOTH"
);
},
{
closed = 1;
nodes = (
"87 -6 OFFCURVE",
"115 21 OFFCURVE",
"115 51 CURVE SMOOTH",
"115 64 OFFCURVE",
"106 77 OFFCURVE",
"90 77 CURVE SMOOTH",
"65 77 OFFCURVE",
"39 48 OFFCURVE",
"39 22 CURVE SMOOTH",
"39 6 OFFCURVE",
"49 -6 OFFCURVE",
"65 -6 CURVE SMOOTH"
);
}
);
userData = {
com.fontlab.hintData = {
hhints = (
{
position = 0;
width = 83;
}
);
vhints = (
{
position = 6;
width = 76;
}
);
};
};
width = 242;
},
{
background = {
paths = (
{
closed = 1;
nodes = (
"147 168 OFFCURVE",
"173 190 OFFCURVE",
"179 217 CURVE SMOOTH",
"265 625 LINE SMOOTH",
"266 629 OFFCURVE",
"266 632 OFFCURVE",
"266 636 CURVE SMOOTH",
"266 657 OFFCURVE",
"251 675 OFFCURVE",
"227 675 CURVE SMOOTH",
"200 675 OFFCURVE",
"173 651 OFFCURVE",
"167 625 CURVE SMOOTH",
"81 217 LINE SMOOTH",
"80 213 OFFCURVE",
"80 210 OFFCURVE",
"80 206 CURVE SMOOTH",
"80 184 OFFCURVE",
"96 168 OFFCURVE",
"119 168 CURVE SMOOTH"
);
},
{
closed = 1;
nodes = (
"105 0 OFFCURVE",
"140 28 OFFCURVE",
"148 65 CURVE SMOOTH",
"149 69 OFFCURVE",
"149 73 OFFCURVE",
"149 77 CURVE SMOOTH",
"149 101 OFFCURVE",
"134 121 OFFCURVE",
"108 121 CURVE SMOOTH",
"78 121 OFFCURVE",
"43 90 OFFCURVE",
"35 56 CURVE",
"34 52 OFFCURVE",
"34 47 OFFCURVE",
"34 43 CURVE SMOOTH",
"34 19 OFFCURVE",
"49 0 OFFCURVE",
"76 0 CURVE SMOOTH"
);
}
);
};
layerId = "140D7E2C-8008-49AA-8FE3-CF6E53AFBA7D";
paths = (
{
closed = 1;
nodes = (
"145 162 OFFCURVE",
"171 184 OFFCURVE",
"177 211 CURVE SMOOTH",
"263 619 LINE SMOOTH",
"269 649 OFFCURVE",
"252 669 OFFCURVE",
"225 669 CURVE SMOOTH",
"200 669 OFFCURVE",
"171 647 OFFCURVE",
"165 619 CURVE SMOOTH",
"79 211 LINE SMOOTH",
"73 189 OFFCURVE",
"88 162 OFFCURVE",
"117 162 CURVE SMOOTH"
);
},
{
closed = 1;
nodes = (
"109 -6 OFFCURVE",
"148 36 OFFCURVE",
"148 71 CURVE SMOOTH",
"148 94 OFFCURVE",
"133 115 OFFCURVE",
"106 115 CURVE SMOOTH",
"72 115 OFFCURVE",
"32 71 OFFCURVE",
"32 37 CURVE SMOOTH",
"32 13 OFFCURVE",
"48 -6 OFFCURVE",
"74 -6 CURVE SMOOTH"
);
}
);
userData = {
com.fontlab.hintData = {
hhints = (
{
position = 0;
width = 121;
}
);
vhints = (
{
position = -1;
width = 116;
}
);
};
};
width = 261;
}
);
unicode = 0021;
},
{
color = 5;
glyphname = quotedbl;
lastChange = "2020-01-28 17:57:01 +0000";
layers = (
{
background = {
paths = (
{
closed = 1;
nodes = (
"280 515 OFFCURVE",
"292 523 OFFCURVE",
"294 534 CURVE SMOOTH",
"324 673 LINE SMOOTH",
"326 684 OFFCURVE",
"319 692 OFFCURVE",
"309 692 CURVE SMOOTH",
"299 692 OFFCURVE",
"288 684 OFFCURVE",
"286 673 CURVE SMOOTH",
"256 534 LINE SMOOTH",
"254 523 OFFCURVE",
"260 515 OFFCURVE",
"271 515 CURVE SMOOTH"
);
},
{
closed = 1;
nodes = (
"156 515 OFFCURVE",
"168 523 OFFCURVE",
"170 534 CURVE SMOOTH",
"200 673 LINE SMOOTH",
"202 684 OFFCURVE",
"195 692 OFFCURVE",
"185 692 CURVE SMOOTH",
"175 692 OFFCURVE",
"164 684 OFFCURVE",
"162 673 CURVE SMOOTH",
"132 534 LINE SMOOTH",
"130 523 OFFCURVE",
"136 515 OFFCURVE",
"147 515 CURVE SMOOTH"
);
}
);
};
layerId = master01;
paths = (
{
closed = 1;
nodes = (
"280 515 OFFCURVE",
"292 523 OFFCURVE",
"294 534 CURVE SMOOTH",
"324 673 LINE SMOOTH",
"326 684 OFFCURVE",
"319 692 OFFCURVE",
"309 692 CURVE SMOOTH",
"299 692 OFFCURVE",
"288 684 OFFCURVE",
"286 673 CURVE SMOOTH",
"256 534 LINE SMOOTH",
"254 523 OFFCURVE",
"260 515 OFFCURVE",
"271 515 CURVE SMOOTH"
);
},
{
closed = 1;
nodes = (
"156 515 OFFCURVE",
"168 523 OFFCURVE",
"170 534 CURVE SMOOTH",
"200 673 LINE SMOOTH",
"202 684 OFFCURVE",
"195 692 OFFCURVE",
"185 692 CURVE SMOOTH",
"175 692 OFFCURVE",
"164 684 OFFCURVE",
"162 673 CURVE SMOOTH",
"132 534 LINE SMOOTH",
"130 523 OFFCURVE",
"136 515 OFFCURVE",
"147 515 CURVE SMOOTH"
);
}
);
userData = {
com.fontlab.hintData = {
hhints = (
{
position = 521;
width = 177;
}
);
vhints = (
{
position = 188;
width = 192;
}
);
};
};
width = 298;
},
{
background = {
paths = (
{
closed = 1;
nodes = (
"277 500 OFFCURVE",
"292 512 OFFCURVE",
"296 528 CURVE SMOOTH",
"324 662 LINE SMOOTH",
"324 664 OFFCURVE",
"325 666 OFFCURVE",
"325 667 CURVE SMOOTH",
"325 680 OFFCURVE",
"315 690 OFFCURVE",
"302 690 CURVE SMOOTH",
"286 690 OFFCURVE",
"271 677 OFFCURVE",
"268 662 CURVE SMOOTH",
"240 528 LINE SMOOTH",
"239 526 OFFCURVE",
"239 523 OFFCURVE",
"239 521 CURVE SMOOTH",
"239 509 OFFCURVE",
"248 500 OFFCURVE",
"262 500 CURVE SMOOTH"
);
},
{
closed = 1;
nodes = (
"158 500 OFFCURVE",
"173 512 OFFCURVE",
"177 528 CURVE SMOOTH",
"205 662 LINE SMOOTH",
"205 664 OFFCURVE",
"206 666 OFFCURVE",
"206 667 CURVE SMOOTH",
"206 680 OFFCURVE",
"196 690 OFFCURVE",
"183 690 CURVE SMOOTH",
"167 690 OFFCURVE",
"152 677 OFFCURVE",
"149 662 CURVE SMOOTH",
"121 528 LINE SMOOTH",
"120 526 OFFCURVE",
"120 523 OFFCURVE",
"120 521 CURVE SMOOTH",
"120 509 OFFCURVE",
"129 500 OFFCURVE",
"143 500 CURVE SMOOTH"
);
}
);
};
layerId = "ACFB53BD-70C1-480F-BE56-298851F5C10E";
paths = (
{
closed = 1;
nodes = (
"275 494 OFFCURVE",
"292 506 OFFCURVE",
"295 522 CURVE SMOOTH",
"323 656 LINE SMOOTH",
"326 672 OFFCURVE",
"317 684 OFFCURVE",
"301 684 CURVE SMOOTH",
"286 684 OFFCURVE",
"270 671 OFFCURVE",
"267 656 CURVE SMOOTH",
"239 522 LINE SMOOTH",
"237 510 OFFCURVE",
"241 494 OFFCURVE",
"261 494 CURVE SMOOTH"
);
},
{
closed = 1;
nodes = (
"156 494 OFFCURVE",
"173 506 OFFCURVE",
"176 522 CURVE SMOOTH",
"204 656 LINE SMOOTH",
"207 672 OFFCURVE",
"198 684 OFFCURVE",
"182 684 CURVE SMOOTH",
"167 684 OFFCURVE",
"151 671 OFFCURVE",
"148 656 CURVE SMOOTH",
"120 522 LINE SMOOTH",
"118 510 OFFCURVE",
"122 494 OFFCURVE",
"142 494 CURVE SMOOTH"
);
}
);
userData = {
com.fontlab.hintData = {
hhints = (
{
position = 500;
width = 190;
}
);
vhints = (
{
position = 125;
width = 204;
}
);
};
};
width = 286;
},
{
background = {
paths = (
{
closed = 1;
nodes = (
"317 454 OFFCURVE",
"344 475 OFFCURVE",
"350 502 CURVE SMOOTH",
"376 624 LINE SMOOTH",
"377 627 OFFCURVE",
"377 630 OFFCURVE",
"377 634 CURVE SMOOTH",
"377 655 OFFCURVE",
"360 672 OFFCURVE",
"337 672 CURVE SMOOTH",
"310 672 OFFCURVE",
"285 650 OFFCURVE",
"279 624 CURVE SMOOTH",
"253 502 LINE SMOOTH",
"252 498 OFFCURVE",
"252 495 OFFCURVE",
"252 491 CURVE SMOOTH",
"252 470 OFFCURVE",
"268 454 OFFCURVE",
"291 454 CURVE SMOOTH"
);
},
{
closed = 1;
nodes = (
"169 454 OFFCURVE",
"195 475 OFFCURVE",
"201 502 CURVE SMOOTH",
"227 624 LINE SMOOTH",
"228 627 OFFCURVE",
"228 631 OFFCURVE",
"228 634 CURVE SMOOTH",
"228 655 OFFCURVE",
"212 672 OFFCURVE",
"189 672 CURVE SMOOTH",
"162 672 OFFCURVE",
"137 650 OFFCURVE",
"131 624 CURVE SMOOTH",
"105 502 LINE SMOOTH",
"104 498 OFFCURVE",
"104 495 OFFCURVE",
"104 491 CURVE SMOOTH",
"104 470 OFFCURVE",
"120 454 OFFCURVE",
"143 454 CURVE SMOOTH"
);
}
);
};
layerId = "140D7E2C-8008-49AA-8FE3-CF6E53AFBA7D";
paths = (
{
closed = 1;
nodes = (
"316 448 OFFCURVE",
"343 469 OFFCURVE",
"349 496 CURVE SMOOTH",
"375 618 LINE SMOOTH",
"379 638 OFFCURVE",
"366 666 OFFCURVE",
"336 666 CURVE SMOOTH",
"310 666 OFFCURVE",
"284 645 OFFCURVE",
"278 618 CURVE SMOOTH",
"252 496 LINE SMOOTH",
"247 473 OFFCURVE",
"260 448 OFFCURVE",
"290 448 CURVE SMOOTH"
);
},
{
closed = 1;
nodes = (
"168 448 OFFCURVE",
"194 469 OFFCURVE",
"200 496 CURVE SMOOTH",
"226 618 LINE SMOOTH",
"230 637 OFFCURVE",
"218 666 OFFCURVE",
"188 666 CURVE SMOOTH",
"162 666 OFFCURVE",
"136 645 OFFCURVE",
"130 618 CURVE SMOOTH",
"104 496 LINE SMOOTH",
"99 473 OFFCURVE",
"112 448 OFFCURVE",
"142 448 CURVE SMOOTH"
);
}
);
userData = {
com.fontlab.hintData = {
hhints = (
{
position = 454;
width = 218;
}
);
};
};
width = 336;
}
);
unicode = 0022;
},
{
color = 5;
glyphname = numbersign;
lastChange = "2020-01-28 18:14:26 +0000";
layers = (
{
background = {
paths = (
{
closed = 1;
nodes = (
"118 -6 OFFCURVE",
"125 0 OFFCURVE",
"129 8 CURVE SMOOTH",
"232 213 LINE",
"414 213 LINE",
"320 28 LINE SMOOTH",
"316 21 OFFCURVE",
"314 16 OFFCURVE",
"314 13 CURVE",
"311 2 OFFCURVE",
"317 -6 OFFCURVE",
"329 -6 CURVE SMOOTH",
"339 -6 OFFCURVE",
"345 2 OFFCURVE",
"348 8 CURVE SMOOTH",
"452 213 LINE",
"602 213 LINE SMOOTH",
"612 213 OFFCURVE",
"623 221 OFFCURVE",
"625 232 CURVE SMOOTH",
"627 242 OFFCURVE",
"620 250 OFFCURVE",
"610 250 CURVE SMOOTH",
"470 250 LINE",
"567 441 LINE",
"698 441 LINE SMOOTH",
"708 441 OFFCURVE",
"718 449 OFFCURVE",
"721 460 CURVE SMOOTH",
"723 470 OFFCURVE",
"716 479 OFFCURVE",
"706 479 CURVE SMOOTH",
"586 479 LINE",
"677 660 LINE SMOOTH",
"680 666 OFFCURVE",
"682 671 OFFCURVE",
"683 675 CURVE SMOOTH",
"685 682 OFFCURVE",
"680 691 OFFCURVE",
"668 691 CURVE SMOOTH",
"661 691 OFFCURVE",
"652 686 OFFCURVE",
"648 678 CURVE SMOOTH",
"548 479 LINE",
"366 479 LINE",
"457 659 LINE SMOOTH",
"460 665 OFFCURVE",
"462 669 OFFCURVE",
"463 673 CURVE SMOOTH",
"465 683 OFFCURVE",
"460 691 OFFCURVE",
"449 691 CURVE SMOOTH",
"440 691 OFFCURVE",
"432 686 OFFCURVE",
"428 678 CURVE SMOOTH",
"329 479 LINE",
"162 479 LINE SMOOTH",
"151 479 OFFCURVE",
"141 470 OFFCURVE",
"139 460 CURVE SMOOTH",
"136 449 OFFCURVE",
"143 441 OFFCURVE",
"154 441 CURVE SMOOTH",
"309 441 LINE",
"213 250 LINE",
"66 250 LINE SMOOTH",
"56 250 OFFCURVE",
"45 242 OFFCURVE",
"43 232 CURVE SMOOTH",
"41 221 OFFCURVE",
"48 213 OFFCURVE",
"58 213 CURVE SMOOTH",
"194 213 LINE",
"100 27 LINE SMOOTH",
"96 19 OFFCURVE",
"94 16 OFFCURVE",
"93 11 CURVE SMOOTH",
"91 2 OFFCURVE",
"97 -6 OFFCURVE",
"109 -6 CURVE SMOOTH"
);
},
{
closed = 1;
nodes = (
"348 441 LINE",
"529 441 LINE",
"433 250 LINE",
"250 250 LINE"
);
}
);
};
layerId = master01;
paths = (
{
closed = 1;
nodes = (
"118 -6 OFFCURVE",
"125 0 OFFCURVE",
"129 8 CURVE SMOOTH",
"232 213 LINE",
"414 213 LINE",
"315 19 LINE SMOOTH",
"309 8 OFFCURVE",
"313 -6 OFFCURVE",
"329 -6 CURVE SMOOTH",
"339 -6 OFFCURVE",
"345 2 OFFCURVE",
"348 8 CURVE SMOOTH",
"452 213 LINE",
"602 213 LINE SMOOTH",
"612 213 OFFCURVE",
"623 221 OFFCURVE",
"625 232 CURVE SMOOTH",
"627 242 OFFCURVE",
"620 250 OFFCURVE",
"610 250 CURVE SMOOTH",
"470 250 LINE",
"567 441 LINE",
"698 441 LINE SMOOTH",
"708 441 OFFCURVE",
"718 449 OFFCURVE",
"721 460 CURVE SMOOTH",
"723 470 OFFCURVE",
"716 479 OFFCURVE",
"706 479 CURVE SMOOTH",
"586 479 LINE",
"680 666 LINE SMOOTH",
"687 680 OFFCURVE",
"680 691 OFFCURVE",
"668 691 CURVE SMOOTH",
"661 691 OFFCURVE",
"652 686 OFFCURVE",
"648 678 CURVE SMOOTH",
"548 479 LINE",
"366 479 LINE",
"460 665 LINE SMOOTH",
"467 679 OFFCURVE",
"461 691 OFFCURVE",
"449 691 CURVE SMOOTH",
"440 691 OFFCURVE",
"432 686 OFFCURVE",
"428 678 CURVE SMOOTH",
"329 479 LINE",
"162 479 LINE SMOOTH",
"151 479 OFFCURVE",
"141 470 OFFCURVE",
"139 460 CURVE SMOOTH",
"136 449 OFFCURVE",
"143 441 OFFCURVE",
"154 441 CURVE SMOOTH",
"309 441 LINE",
"213 250 LINE",
"66 250 LINE SMOOTH",
"56 250 OFFCURVE",
"45 242 OFFCURVE",
"43 232 CURVE SMOOTH",
"41 221 OFFCURVE",
"48 213 OFFCURVE",
"58 213 CURVE SMOOTH",
"194 213 LINE",
"96 18 LINE SMOOTH",
"89 6 OFFCURVE",
"95 -6 OFFCURVE",
"109 -6 CURVE SMOOTH"
);
},
{
closed = 1;
nodes = (
"348 441 LINE",
"529 441 LINE",
"433 250 LINE",
"250 250 LINE"
);
}
);
userData = {
com.fontlab.hintData = {
hhints = (
{
position = 0;
width = 21;
},
{
position = 219;
width = 37;
},
{
position = 447;
width = 38;
}
);
vhints = (
{
position = 161;
width = 36;
},
{
position = 382;
width = 34;
},
{
position = 716;
width = 35;
}
);
};
};
width = 735;
},
{
background = {
paths = (
{
closed = 1;
nodes = (
"145 -6 OFFCURVE",
"158 2 OFFCURVE",
"165 14 CURVE",
"260 204 LINE",
"413 204 LINE",
"330 40 LINE SMOOTH",
"325 31 OFFCURVE",
"323 25 OFFCURVE",
"322 22 CURVE SMOOTH",
"321 20 OFFCURVE",
"321 18 OFFCURVE",
"321 16 CURVE SMOOTH",
"321 4 OFFCURVE",
"330 -6 OFFCURVE",
"345 -6 CURVE SMOOTH",
"356 -6 OFFCURVE",
"369 2 OFFCURVE",
"376 14 CURVE",
"471 204 LINE",
"607 204 LINE SMOOTH",
"622 204 OFFCURVE",
"641 216 OFFCURVE",
"641 232 CURVE SMOOTH",
"641 234 OFFCURVE",
"642 236 OFFCURVE",
"642 237 CURVE SMOOTH",
"642 250 OFFCURVE",
"632 260 OFFCURVE",
"619 260 CURVE SMOOTH",
"499 260 LINE",
"582 423 LINE",
"699 423 LINE SMOOTH",
"714 423 OFFCURVE",
"733 435 OFFCURVE",
"733 451 CURVE SMOOTH",
"733 453 OFFCURVE",
"734 455 OFFCURVE",
"734 456 CURVE SMOOTH",
"734 469 OFFCURVE",
"724 479 OFFCURVE",
"711 479 CURVE SMOOTH",
"610 479 LINE",
"691 640 LINE SMOOTH",
"694 647 OFFCURVE",
"696 652 OFFCURVE",
"697 655 CURVE SMOOTH",
"698 657 OFFCURVE",
"698 659 OFFCURVE",
"698 661 CURVE SMOOTH",
"698 673 OFFCURVE",
"690 683 OFFCURVE",
"675 683 CURVE SMOOTH",
"663 683 OFFCURVE",
"649 675 OFFCURVE",
"644 663 CURVE",
"552 479 LINE",
"399 479 LINE",
"480 639 LINE SMOOTH",
"483 645 OFFCURVE",
"486 650 OFFCURVE",
"486 656 CURVE SMOOTH",
"486 658 OFFCURVE",
"487 660 OFFCURVE",
"487 662 CURVE SMOOTH",
"487 673 OFFCURVE",
"479 683 OFFCURVE",
"464 683 CURVE SMOOTH",
"452 683 OFFCURVE",
"438 675 OFFCURVE",
"433 663 CURVE",
"341 479 LINE",
"189 479 LINE SMOOTH",
"173 479 OFFCURVE",
"155 466 OFFCURVE",
"155 451 CURVE SMOOTH",
"155 449 OFFCURVE",
"154 446 OFFCURVE",
"154 444 CURVE SMOOTH",
"154 432 OFFCURVE",
"163 423 OFFCURVE",
"177 423 CURVE SMOOTH",
"312 423 LINE",
"230 260 LINE",
"97 260 LINE SMOOTH",
"81 260 OFFCURVE",
"63 247 OFFCURVE",
"63 232 CURVE SMOOTH",
"63 230 OFFCURVE",
"62 228 OFFCURVE",
"62 226 CURVE SMOOTH",
"62 213 OFFCURVE",
"71 204 OFFCURVE",
"85 204 CURVE SMOOTH",
"202 204 LINE",
"119 39 LINE SMOOTH",
"114 30 OFFCURVE",
"111 25 OFFCURVE",
"111 20 CURVE SMOOTH",
"111 18 OFFCURVE",
"110 17 OFFCURVE",
"110 15 CURVE SMOOTH",
"110 4 OFFCURVE",
"119 -6 OFFCURVE",
"134 -6 CURVE SMOOTH"
);
},
{
closed = 1;
nodes = (
"371 423 LINE",
"523 423 LINE",
"441 260 LINE",
"288 260 LINE"
);
}
);
};
layerId = "ACFB53BD-70C1-480F-BE56-298851F5C10E";
paths = (
{
closed = 1;
nodes = (
"147 -6 OFFCURVE",
"160 4 OFFCURVE",
"167 18 CURVE SMOOTH",
"260 204 LINE",
"413 204 LINE",
"325 31 LINE SMOOTH",
"315 11 OFFCURVE",
"326 -6 OFFCURVE",
"345 -6 CURVE SMOOTH",
"357 -6 OFFCURVE",
"371 3 OFFCURVE",
"378 18 CURVE SMOOTH",
"471 204 LINE",
"607 204 LINE SMOOTH",
"624 204 OFFCURVE",
"641 220 OFFCURVE",
"641 237 CURVE SMOOTH",
"641 250 OFFCURVE",
"631 260 OFFCURVE",
"619 260 CURVE SMOOTH",
"499 260 LINE",
"582 423 LINE",
"699 423 LINE SMOOTH",
"712 423 OFFCURVE",
"733 436 OFFCURVE",
"733 456 CURVE SMOOTH",
"733 469 OFFCURVE",
"723 479 OFFCURVE",
"711 479 CURVE SMOOTH",
"610 479 LINE",
"693 646 LINE SMOOTH",
"703 666 OFFCURVE",
"697 683 OFFCURVE",
"675 683 CURVE SMOOTH",
"662 683 OFFCURVE",
"649 675 OFFCURVE",
"644 663 CURVE SMOOTH",
"552 479 LINE",
"399 479 LINE",
"483 645 LINE SMOOTH",
"492 662 OFFCURVE",
"486 683 OFFCURVE",
"464 683 CURVE SMOOTH",
"451 683 OFFCURVE",
"438 675 OFFCURVE",
"433 663 CURVE SMOOTH",
"341 479 LINE",
"189 479 LINE SMOOTH",
"170 479 OFFCURVE",
"154 463 OFFCURVE",
"154 444 CURVE SMOOTH",
"154 432 OFFCURVE",
"163 423 OFFCURVE",
"177 423 CURVE SMOOTH",
"312 423 LINE",
"230 260 LINE",
"97 260 LINE SMOOTH",
"79 260 OFFCURVE",
"62 244 OFFCURVE",
"62 226 CURVE SMOOTH",
"62 213 OFFCURVE",
"71 204 OFFCURVE",
"85 204 CURVE SMOOTH",
"202 204 LINE",
"116 34 LINE SMOOTH",
"104 11 OFFCURVE",
"115 -6 OFFCURVE",
"133 -6 CURVE SMOOTH"
);
},
{
closed = 1;
nodes = (
"371 423 LINE",
"523 423 LINE",
"441 260 LINE",
"288 260 LINE"
);
}
);
userData = {
com.fontlab.hintData = {
hhints = (
{
position = 0;
width = 21;
},
{
position = 210;
width = 56;
},
{
position = 429;
width = 56;
},
{
position = 669;
width = 20;
}
);
vhints = (
{
position = 103;
width = 55;
},
{
position = 314;
width = 55;
},
{
position = 426;
width = 54;
},
{
position = 637;
width = 54;
}
);
};
};
width = 753;
},
{
background = {
paths = (
{
closed = 1;
nodes = (
"154 -6 OFFCURVE",
"177 5 OFFCURVE",
"189 28 CURVE SMOOTH",
"267 185 LINE",
"358 185 LINE",
"298 66 LINE SMOOTH",
"293 56 OFFCURVE",
"290 47 OFFCURVE",
"289 42 CURVE SMOOTH",
"288 38 OFFCURVE",
"288 35 OFFCURVE",
"288 31 CURVE SMOOTH",
"288 11 OFFCURVE",
"302 -6 OFFCURVE",
"327 -6 CURVE SMOOTH",
"346 -6 OFFCURVE",
"368 4 OFFCURVE",
"380 28 CURVE SMOOTH",
"459 185 LINE",
"565 185 LINE SMOOTH",
"591 185 OFFCURVE",
"618 206 OFFCURVE",
"623 233 CURVE",
"624 236 OFFCURVE",
"624 240 OFFCURVE",
"624 243 CURVE SMOOTH",
"624 264 OFFCURVE",
"608 281 OFFCURVE",
"586 281 CURVE SMOOTH",
"508 281 LINE",
"558 384 LINE",
"648 384 LINE SMOOTH",
"673 384 OFFCURVE",
"698 406 OFFCURVE",
"707 432 CURVE SMOOTH",
"708 435 OFFCURVE",
"708 438 OFFCURVE",
"708 440 CURVE SMOOTH",
"708 462 OFFCURVE",
"691 480 OFFCURVE",
"669 480 CURVE SMOOTH",
"607 480 LINE",
"667 597 LINE SMOOTH",
"670 604 OFFCURVE",
"673 613 OFFCURVE",
"674 617 CURVE SMOOTH",
"675 620 OFFCURVE",
"675 623 OFFCURVE",
"675 627 CURVE SMOOTH",
"675 647 OFFCURVE",
"661 665 OFFCURVE",
"636 665 CURVE SMOOTH",
"616 665 OFFCURVE",
"593 652 OFFCURVE",
"583 631 CURVE SMOOTH",
"507 480 LINE",
"416 480 LINE",
"474 596 LINE SMOOTH",
"478 604 OFFCURVE",
"480 609 OFFCURVE",
"483 618 CURVE SMOOTH",
"484 621 OFFCURVE",
"484 625 OFFCURVE",
"484 628 CURVE SMOOTH",
"484 648 OFFCURVE",
"470 665 OFFCURVE",
"445 665 CURVE SMOOTH",
"425 665 OFFCURVE",
"401 652 OFFCURVE",
"391 631 CURVE SMOOTH",
"316 480 LINE",
"195 480 LINE SMOOTH",
"168 480 OFFCURVE",
"143 457 OFFCURVE",
"137 432 CURVE SMOOTH",
"136 428 OFFCURVE",
"136 424 OFFCURVE",
"136 421 CURVE SMOOTH",
"136 399 OFFCURVE",
"151 384 OFFCURVE",
"174 384 CURVE SMOOTH",
"266 384 LINE",
"245 339 OFFCURVE",
"234 321 OFFCURVE",
"215 281 CURVE",
"112 281 LINE SMOOTH",
"85 281 OFFCURVE",
"59 258 OFFCURVE",
"53 233 CURVE",
"52 230 OFFCURVE",
"52 226 OFFCURVE",
"52 223 CURVE SMOOTH",
"52 201 OFFCURVE",
"67 185 OFFCURVE",
"91 185 CURVE SMOOTH",
"166 185 LINE",
"107 65 LINE",
"101 55 OFFCURVE",
"99 49 OFFCURVE",
"96 40 CURVE SMOOTH",
"95 37 OFFCURVE",
"95 34 OFFCURVE",
"95 31 CURVE SMOOTH",
"95 12 OFFCURVE",
"110 -6 OFFCURVE",
"135 -6 CURVE SMOOTH"
);
},
{
closed = 1;
nodes = (
"366 384 LINE",
"458 384 LINE",
"407 281 LINE",
"316 281 LINE"
);
}
);
};
layerId = "140D7E2C-8008-49AA-8FE3-CF6E53AFBA7D";
paths = (
{
closed = 1;
nodes = (
"153 -6 OFFCURVE",
"177 4 OFFCURVE",
"189 28 CURVE SMOOTH",
"267 185 LINE",
"358 185 LINE",
"290 44 LINE SMOOTH",
"278 19 OFFCURVE",
"297 -6 OFFCURVE",
"327 -6 CURVE SMOOTH",
"345 -6 OFFCURVE",
"368 4 OFFCURVE",
"380 28 CURVE SMOOTH",
"459 185 LINE",
"565 185 LINE SMOOTH",
"595 185 OFFCURVE",
"624 213 OFFCURVE",
"624 243 CURVE SMOOTH",
"624 264 OFFCURVE",
"608 281 OFFCURVE",
"586 281 CURVE SMOOTH",
"508 281 LINE",
"558 384 LINE",
"648 384 LINE SMOOTH",
"677 384 OFFCURVE",
"708 412 OFFCURVE",
"708 440 CURVE SMOOTH",
"708 461 OFFCURVE",
"691 480 OFFCURVE",
"669 480 CURVE SMOOTH",
"607 480 LINE",
"669 605 LINE SMOOTH",
"684 635 OFFCURVE",
"673 665 OFFCURVE",
"636 665 CURVE SMOOTH",
"618 665 OFFCURVE",
"595 654 OFFCURVE",
"583 631 CURVE SMOOTH",
"507 480 LINE",
"416 480 LINE",
"477 603 LINE SMOOTH",
"493 634 OFFCURVE",
"482 665 OFFCURVE",
"445 665 CURVE SMOOTH",
"426 665 OFFCURVE",
"401 652 OFFCURVE",
"391 631 CURVE SMOOTH",
"316 480 LINE",
"195 480 LINE SMOOTH",
"164 480 OFFCURVE",
"136 452 OFFCURVE",
"136 421 CURVE SMOOTH",
"136 400 OFFCURVE",
"151 384 OFFCURVE",
"174 384 CURVE SMOOTH",
"266 384 LINE",
"215 281 LINE",
"112 281 LINE SMOOTH",
"83 281 OFFCURVE",
"52 252 OFFCURVE",
"52 223 CURVE SMOOTH",
"52 201 OFFCURVE",
"68 185 OFFCURVE",
"91 185 CURVE SMOOTH",
"166 185 LINE",
"99 42 LINE SMOOTH",
"88 19 OFFCURVE",
"106 -6 OFFCURVE",
"135 -6 CURVE SMOOTH"
);
},
{
closed = 1;
nodes = (
"366 384 LINE",
"458 384 LINE",
"407 281 LINE",
"316 281 LINE"
);
}
);
userData = {
com.fontlab.hintData = {
hhints = (
{
position = 0;
width = 21;
},
{
position = 191;
width = 96;
},
{
position = 390;
width = 96;
}
);
};
};
width = 722;
}
);
unicode = 0023;
},
{
color = 5;
glyphname = dollar;
lastChange = "2020-01-28 23:15:40 +0000";
layers = (
{
background = {
paths = (
{
closed = 1;
nodes = (
"223 -83 OFFCURVE",
"234 -77 OFFCURVE",
"237 -64 CURVE SMOOTH",
"250 -6 LINE",
"383 11 OFFCURVE",
"505 93 OFFCURVE",
"505 212 CURVE SMOOTH",
"505 284 OFFCURVE",
"443 340 OFFCURVE",
"330 374 CURVE",
"389 652 LINE",
"439 652 OFFCURVE",
"543 631 OFFCURVE",
"540 548 CURVE SMOOTH",
"540 540 OFFCURVE",
"547 533 OFFCURVE",
"557 533 CURVE SMOOTH",
"574 533 OFFCURVE",
"580 547 OFFCURVE",
"580 573 CURVE SMOOTH",
"580 654 OFFCURVE",
"479 682 OFFCURVE",
"396 682 CURVE",
"407 737 LINE SMOOTH",
"409 747 OFFCURVE",
"403 756 OFFCURVE",
"393 756 CURVE SMOOTH",
"382 756 OFFCURVE",
"373 747 OFFCURVE",
"371 737 CURVE SMOOTH",
"360 681 LINE",
"243 671 OFFCURVE",
"130 601 OFFCURVE",
"130 490 CURVE SMOOTH",
"130 416 OFFCURVE",
"208 370 OFFCURVE",
"288 343 CURVE",
"221 28 LINE",
"145 37 OFFCURVE",
"73 74 OFFCURVE",
"62 148 CURVE SMOOTH",
"60 159 OFFCURVE",
"53 166 OFFCURVE",
"44 166 CURVE SMOOTH",
"32 166 OFFCURVE",
"16 159 OFFCURVE",
"19 136 CURVE SMOOTH",
"29 54 OFFCURVE",
"108 1 OFFCURVE",
"213 -7 CURVE",
"201 -64 LINE SMOOTH",
"199 -75 OFFCURVE",
"205 -83 OFFCURVE",
"215 -83 CURVE SMOOTH"
);
},
{
closed = 1;
nodes = (
"322 333 LINE",
"439 293 OFFCURVE",
"461 244 OFFCURVE",
"461 210 CURVE SMOOTH",
"461 112 OFFCURVE",
"364 37 OFFCURVE",
"257 28 CURVE"
);
},
{
closed = 1;
nodes = (
"217 415 OFFCURVE",
"176 453 OFFCURVE",
"176 496 CURVE SMOOTH",
"176 575 OFFCURVE",
"250 635 OFFCURVE",
"353 649 CURVE",
"297 385 LINE"
);
}
);
};
layerId = master01;
paths = (
{
closed = 1;
nodes = (
"223 -83 OFFCURVE",
"234 -77 OFFCURVE",
"237 -64 CURVE SMOOTH",
"250 -6 LINE",
"383 11 OFFCURVE",
"505 93 OFFCURVE",
"505 212 CURVE SMOOTH",
"505 284 OFFCURVE",
"443 340 OFFCURVE",
"330 374 CURVE",
"389 652 LINE",
"439 652 OFFCURVE",
"543 631 OFFCURVE",
"540 548 CURVE SMOOTH",
"540 540 OFFCURVE",
"547 533 OFFCURVE",
"557 533 CURVE SMOOTH",
"574 533 OFFCURVE",
"580 547 OFFCURVE",
"580 573 CURVE SMOOTH",
"580 654 OFFCURVE",
"479 682 OFFCURVE",
"396 682 CURVE",
"407 737 LINE SMOOTH",
"409 747 OFFCURVE",
"403 756 OFFCURVE",
"393 756 CURVE SMOOTH",
"382 756 OFFCURVE",
"373 747 OFFCURVE",
"371 737 CURVE SMOOTH",
"360 681 LINE",
"243 671 OFFCURVE",
"130 601 OFFCURVE",
"130 490 CURVE SMOOTH",
"130 416 OFFCURVE",
"208 370 OFFCURVE",
"288 343 CURVE",
"221 28 LINE",
"145 37 OFFCURVE",
"73 74 OFFCURVE",
"62 148 CURVE SMOOTH",
"60 159 OFFCURVE",
"53 166 OFFCURVE",
"44 166 CURVE SMOOTH",
"32 166 OFFCURVE",
"16 159 OFFCURVE",
"19 136 CURVE SMOOTH",
"29 54 OFFCURVE",
"108 1 OFFCURVE",
"213 -7 CURVE",
"201 -64 LINE SMOOTH",
"199 -75 OFFCURVE",
"205 -83 OFFCURVE",
"215 -83 CURVE SMOOTH"
);
},
{
closed = 1;
nodes = (
"322 333 LINE",
"439 293 OFFCURVE",
"461 244 OFFCURVE",
"461 210 CURVE SMOOTH",
"461 112 OFFCURVE",
"364 37 OFFCURVE",
"257 28 CURVE"
);
},
{
closed = 1;
nodes = (
"217 415 OFFCURVE",
"176 453 OFFCURVE",
"176 496 CURVE SMOOTH",
"176 575 OFFCURVE",
"250 635 OFFCURVE",
"353 649 CURVE",
"297 385 LINE"
);
}
);
userData = {
com.fontlab.hintData = {
hhints = (
{
position = -1;
width = 35;
},
{
position = 658;
width = 30;
}
);
vhints = (
{
position = 98;
width = 44;
},
{
position = 210;
width = 46;
},
{
position = 541;
width = 44;
},
{
position = 620;
width = 40;
}
);
};
};
width = 555;
},
{
background = {
paths = (
{
closed = 1;
nodes = (
"238 -74 OFFCURVE",
"254 -61 OFFCURVE",
"257 -46 CURVE SMOOTH",
"267 1 LINE",
"390 16 OFFCURVE",
"487 84 OFFCURVE",
"510 191 CURVE SMOOTH",
"513 203 OFFCURVE",
"514 214 OFFCURVE",
"514 224 CURVE SMOOTH",
"514 295 OFFCURVE",
"459 347 OFFCURVE",
"348 382 CURVE",
"401 631 LINE",
"417 629 OFFCURVE",
"527 623 OFFCURVE",
"527 549 CURVE SMOOTH",
"527 546 OFFCURVE",
"527 544 OFFCURVE",
"527 541 CURVE",
"527 527 OFFCURVE",
"535 517 OFFCURVE",
"551 517 CURVE SMOOTH",
"565 517 OFFCURVE",
"580 528 OFFCURVE",
"583 542 CURVE SMOOTH",
"585 551 OFFCURVE",
"586 560 OFFCURVE",
"586 569 CURVE SMOOTH",
"586 652 OFFCURVE",
"491 680 OFFCURVE",
"411 680 CURVE",
"420 723 LINE SMOOTH",
"420 725 OFFCURVE",
"421 727 OFFCURVE",
"421 728 CURVE SMOOTH",
"421 741 OFFCURVE",
"411 751 OFFCURVE",
"398 751 CURVE SMOOTH",
"383 751 OFFCURVE",
"368 738 OFFCURVE",
"365 723 CURVE SMOOTH",
"356 678 LINE",
"265 671 OFFCURVE",
"161 624 OFFCURVE",
"137 510 CURVE SMOOTH",
"135 500 OFFCURVE",
"134 491 OFFCURVE",
"134 483 CURVE SMOOTH",
"134 408 OFFCURVE",
"208 363 OFFCURVE",
"283 337 CURVE",
"223 54 LINE",
"158 61 OFFCURVE",
"97 95 OFFCURVE",
"88 162 CURVE SMOOTH",
"86 175 OFFCURVE",
"77 185 OFFCURVE",
"63 185 CURVE SMOOTH",
"44 185 OFFCURVE",
"28 168 OFFCURVE",
"26 158 CURVE SMOOTH",
"24 149 OFFCURVE",
"25 145 OFFCURVE",
"26 142 CURVE SMOOTH",
"39 62 OFFCURVE",
"111 8 OFFCURVE",
"212 0 CURVE",
"202 -46 LINE SMOOTH",
"202 -48 OFFCURVE",
"201 -50 OFFCURVE",
"201 -52 CURVE SMOOTH",
"201 -64 OFFCURVE",
"210 -74 OFFCURVE",
"223 -74 CURVE SMOOTH"
);
},
{
closed = 1;
nodes = (
"335 321 LINE",
"433 287 OFFCURVE",
"451 245 OFFCURVE",
"451 216 CURVE SMOOTH",
"451 209 OFFCURVE",
"450 202 OFFCURVE",
"449 197 CURVE SMOOTH",
"431 109 OFFCURVE",
"359 67 OFFCURVE",
"278 55 CURVE"
);
},
{
closed = 1;
nodes = (
"230 424 OFFCURVE",
"198 455 OFFCURVE",
"198 493 CURVE SMOOTH",
"198 497 OFFCURVE",
"198 502 OFFCURVE",
"199 507 CURVE SMOOTH",
"210 556 OFFCURVE",
"243 612 OFFCURVE",
"345 627 CURVE",
"296 399 LINE"
);
}
);
};
layerId = "ACFB53BD-70C1-480F-BE56-298851F5C10E";
paths = (
{
closed = 1;
nodes = (
"236 -80 OFFCURVE",
"253 -67 OFFCURVE",
"256 -52 CURVE SMOOTH",
"266 -5 LINE",
"398 11 OFFCURVE",
"513 97 OFFCURVE",
"513 218 CURVE SMOOTH",
"513 290 OFFCURVE",
"458 341 OFFCURVE",
"347 376 CURVE",
"400 625 LINE",
"416 623 OFFCURVE",
"526 618 OFFCURVE",
"526 543 CURVE SMOOTH",
"526 524 OFFCURVE",
"530 511 OFFCURVE",
"550 511 CURVE SMOOTH",
"574 511 OFFCURVE",
"585 530 OFFCURVE",
"585 563 CURVE SMOOTH",
"585 646 OFFCURVE",
"489 674 OFFCURVE",
"410 674 CURVE",
"419 719 LINE SMOOTH",
"422 735 OFFCURVE",
"410 745 OFFCURVE",
"397 745 CURVE SMOOTH",
"382 745 OFFCURVE",
"367 732 OFFCURVE",
"364 717 CURVE SMOOTH",
"355 672 LINE",
"238 663 OFFCURVE",
"133 588 OFFCURVE",
"133 481 CURVE SMOOTH",
"133 402 OFFCURVE",
"207 357 OFFCURVE",
"282 331 CURVE",
"222 48 LINE",
"157 55 OFFCURVE",
"96 89 OFFCURVE",
"87 156 CURVE SMOOTH",
"85 169 OFFCURVE",
"76 179 OFFCURVE",
"62 179 CURVE SMOOTH",
"40 179 OFFCURVE",
"25 163 OFFCURVE",
"25 143 CURVE SMOOTH",
"25 66 OFFCURVE",
"110 2 OFFCURVE",
"211 -6 CURVE",
"201 -54 LINE SMOOTH",
"198 -70 OFFCURVE",
"209 -80 OFFCURVE",
"222 -80 CURVE SMOOTH"
);
},
{
closed = 1;
nodes = (
"334 315 LINE",
"430 282 OFFCURVE",
"450 241 OFFCURVE",
"450 210 CURVE SMOOTH",
"450 126 OFFCURVE",
"373 63 OFFCURVE",
"277 49 CURVE"
);
},
{
closed = 1;
nodes = (
"229 418 OFFCURVE",
"197 450 OFFCURVE",
"197 491 CURVE SMOOTH",
"197 554 OFFCURVE",
"258 608 OFFCURVE",
"344 621 CURVE",
"295 393 LINE"
);
}
);
userData = {
com.fontlab.hintData = {
hhints = (
{
position = 0;
width = 54;
},
{
position = 631;
width = 49;
}
);
vhints = (
{
position = 42;
width = 62;
},
{
position = 150;
width = 64;
},
{
position = 467;
width = 63;
},
{
position = 543;
width = 59;
}
);
};
};
width = 588;
},
{
background = {
paths = (
{
closed = 1;
nodes = (
"244 -67 OFFCURVE",
"272 -45 OFFCURVE",
"277 -19 CURVE SMOOTH",
"282 4 LINE",
"397 24 OFFCURVE",
"485 92 OFFCURVE",
"507 196 CURVE SMOOTH",
"510 208 OFFCURVE",
"511 220 OFFCURVE",
"511 232 CURVE SMOOTH",
"511 301 OFFCURVE",
"462 352 OFFCURVE",
"364 386 CURVE",
"403 570 LINE",
"433 565 OFFCURVE",
"477 552 OFFCURVE",
"477 516 CURVE SMOOTH",
"477 513 OFFCURVE",
"477 510 OFFCURVE",
"477 507 CURVE SMOOTH",
"477 485 OFFCURVE",
"492 470 OFFCURVE",
"517 470 CURVE SMOOTH",
"541 470 OFFCURVE",
"568 490 OFFCURVE",
"573 515 CURVE SMOOTH",
"575 526 OFFCURVE",
"576 536 OFFCURVE",
"576 545 CURVE SMOOTH",
"576 626 OFFCURVE",
"497 658 OFFCURVE",
"422 662 CURVE",
"426 680 LINE SMOOTH",
"427 683 OFFCURVE",
"427 686 OFFCURVE",
"427 688 CURVE SMOOTH",
"427 710 OFFCURVE",
"410 728 OFFCURVE",
"387 728 CURVE SMOOTH",
"361 728 OFFCURVE",
"335 705 OFFCURVE",
"330 680 CURVE SMOOTH",
"326 659 LINE",
"237 648 OFFCURVE",
"147 599 OFFCURVE",
"123 486 CURVE SMOOTH",
"121 475 OFFCURVE",
"120 465 OFFCURVE",
"120 456 CURVE SMOOTH",
"120 382 OFFCURVE",
"183 338 OFFCURVE",
"252 312 CURVE",
"206 98 LINE",
"163 108 OFFCURVE",
"129 134 OFFCURVE",
"123 177 CURVE",
"121 198 OFFCURVE",
"106 213 OFFCURVE",
"83 213 CURVE SMOOTH",
"52 213 OFFCURVE",
"26 184 OFFCURVE",
"22 166 CURVE SMOOTH",
"19 152 OFFCURVE",
"21 148 OFFCURVE",
"21 144 CURVE",
"34 68 OFFCURVE",
"97 16 OFFCURVE",
"186 3 CURVE",
"181 -19 LINE SMOOTH",
"180 -22 OFFCURVE",
"180 -25 OFFCURVE",
"180 -28 CURVE SMOOTH",
"180 -50 OFFCURVE",
"195 -67 OFFCURVE",
"218 -67 CURVE SMOOTH"
);
},
{
closed = 1;
nodes = (
"341 282 LINE",
"397 257 OFFCURVE",
"407 231 OFFCURVE",
"407 213 CURVE SMOOTH",
"407 209 OFFCURVE",
"407 205 OFFCURVE",
"406 202 CURVE SMOOTH",
"394 145 OFFCURVE",
"353 114 OFFCURVE",
"303 101 CURVE"
);
},
{
closed = 1;
nodes = (
"241 436 OFFCURVE",
"224 455 OFFCURVE",
"224 475 CURVE SMOOTH",
"224 478 OFFCURVE",
"224 480 OFFCURVE",
"225 483 CURVE SMOOTH",
"232 513 OFFCURVE",
"249 549 OFFCURVE",
"305 564 CURVE",
"275 419 LINE"
);
}
);
};
layerId = "140D7E2C-8008-49AA-8FE3-CF6E53AFBA7D";
paths = (
{
closed = 1;
nodes = (
"243 -73 OFFCURVE",
"270 -51 OFFCURVE",
"276 -25 CURVE SMOOTH",
"281 -2 LINE",
"408 20 OFFCURVE",
"510 108 OFFCURVE",
"510 226 CURVE SMOOTH",
"510 296 OFFCURVE",
"460 346 OFFCURVE",
"363 380 CURVE",
"402 564 LINE",
"446 557 OFFCURVE",
"476 544 OFFCURVE",
"476 501 CURVE SMOOTH",
"476 479 OFFCURVE",
"491 464 OFFCURVE",
"516 464 CURVE SMOOTH",
"551 464 OFFCURVE",
"575 494 OFFCURVE",
"575 539 CURVE SMOOTH",
"575 621 OFFCURVE",
"493 652 OFFCURVE",
"421 656 CURVE",
"425 677 LINE SMOOTH",
"430 704 OFFCURVE",
"409 722 OFFCURVE",
"386 722 CURVE SMOOTH",
"360 722 OFFCURVE",
"334 699 OFFCURVE",
"329 674 CURVE SMOOTH",
"325 653 LINE",
"211 639 OFFCURVE",
"119 559 OFFCURVE",
"119 450 CURVE SMOOTH",
"119 375 OFFCURVE",
"182 332 OFFCURVE",
"251 306 CURVE",
"205 92 LINE",
"162 102 OFFCURVE",
"128 128 OFFCURVE",
"122 171 CURVE SMOOTH",
"119 192 OFFCURVE",
"105 207 OFFCURVE",
"82 207 CURVE SMOOTH",
"53 207 OFFCURVE",
"20 181 OFFCURVE",
"20 144 CURVE SMOOTH",
"20 75 OFFCURVE",
"99 10 OFFCURVE",
"185 -3 CURVE",
"180 -31 LINE SMOOTH",
"175 -57 OFFCURVE",
"195 -73 OFFCURVE",
"217 -73 CURVE SMOOTH"
);
},
{
closed = 1;
nodes = (
"340 276 LINE",
"396 251 OFFCURVE",
"406 225 OFFCURVE",
"406 207 CURVE SMOOTH",
"406 157 OFFCURVE",
"361 110 OFFCURVE",
"302 95 CURVE"
);
},
{
closed = 1;
nodes = (
"240 430 OFFCURVE",
"223 450 OFFCURVE",
"223 469 CURVE SMOOTH",
"223 506 OFFCURVE",
"255 545 OFFCURVE",
"304 558 CURVE",
"274 413 LINE"
);
}
);
userData = {
com.fontlab.hintData = {
vhints = (
{
position = 42;
width = 101;
},
{
position = 140;
width = 105;
},
{
position = 427;
width = 104;
},
{
position = 497;
width = 100;
}
);
};
};
width = 568;
}
);
unicode = 0024;
},
{
color = 5;
glyphname = percent;
lastChange = "2020-01-28 22:20:31 +0000";
layers = (
{
background = {
paths = (
{
closed = 1;
nodes = (
"123 -6 OFFCURVE",
"129 -3 OFFCURVE",
"133 2 CURVE SMOOTH",
"644 668 LINE SMOOTH",
"645 670 OFFCURVE",
"647 670 OFFCURVE",
"647 676 CURVE SMOOTH",
"649 685 OFFCURVE",
"643 692 OFFCURVE",
"634 692 CURVE SMOOTH",
"627 692 OFFCURVE",
"623 689 OFFCURVE",
"619 684 CURVE SMOOTH",
"111 21 LINE SMOOTH",
"110 19 OFFCURVE",
"105 13 OFFCURVE",
"105 9 CURVE SMOOTH",
"103 1 OFFCURVE",
"108 -6 OFFCURVE",
"117 -6 CURVE SMOOTH"
);
},
{
closed = 1;
nodes = (
"539 -14 OFFCURVE",
"611 45 OFFCURVE",
"627 117 CURVE SMOOTH",
"629 126 OFFCURVE",
"630 136 OFFCURVE",
"630 143 CURVE SMOOTH",
"630 202 OFFCURVE",
"585 248 OFFCURVE",
"522 248 CURVE SMOOTH",
"451 248 OFFCURVE",
"379 189 OFFCURVE",
"364 117 CURVE SMOOTH",
"362 108 OFFCURVE",
"361 99 OFFCURVE",
"361 90 CURVE SMOOTH",
"361 31 OFFCURVE",
"405 -14 OFFCURVE",
"467 -14 CURVE SMOOTH"
);
},
{
closed = 1;
nodes = (
"429 21 OFFCURVE",
"398 53 OFFCURVE",
"398 96 CURVE SMOOTH",
"398 105 OFFCURVE",
"398 107 OFFCURVE",
"400 117 CURVE SMOOTH",
"411 169 OFFCURVE",
"463 213 OFFCURVE",
"515 213 CURVE SMOOTH",
"561 213 OFFCURVE",
"593 179 OFFCURVE",
"593 136 CURVE SMOOTH",
"593 130 OFFCURVE",
"592 121 OFFCURVE",
"591 117 CURVE SMOOTH",
"579 63 OFFCURVE",
"527 21 OFFCURVE",
"474 21 CURVE SMOOTH"
);
},
{
closed = 1;
nodes = (
"295 434 OFFCURVE",
"367 493 OFFCURVE",
"382 565 CURVE SMOOTH",
"384 574 OFFCURVE",
"385 585 OFFCURVE",
"385 592 CURVE SMOOTH",
"385 651 OFFCURVE",
"341 696 OFFCURVE",
"279 696 CURVE SMOOTH",
"207 696 OFFCURVE",
"134 637 OFFCURVE",
"119 565 CURVE SMOOTH",
"117 556 OFFCURVE",
"116 545 OFFCURVE",
"116 539 CURVE SMOOTH",
"116 480 OFFCURVE",
"160 434 OFFCURVE",
"223 434 CURVE SMOOTH"
);
},
{
closed = 1;
nodes = (
"185 469 OFFCURVE",
"153 501 OFFCURVE",
"153 544 CURVE SMOOTH",
"153 551 OFFCURVE",
"153 558 OFFCURVE",
"155 565 CURVE SMOOTH",
"166 617 OFFCURVE",
"219 661 OFFCURVE",
"271 661 CURVE SMOOTH",
"316 661 OFFCURVE",
"349 627 OFFCURVE",
"349 584 CURVE SMOOTH",
"349 578 OFFCURVE",
"348 569 OFFCURVE",
"347 565 CURVE SMOOTH",
"335 511 OFFCURVE",
"282 469 OFFCURVE",
"230 469 CURVE SMOOTH"
);
},
{
closed = 1;
nodes = (
"142 7 OFFCURVE",
"150 15 OFFCURVE",
"150 25 CURVE SMOOTH",
"150 34 OFFCURVE",
"142 42 OFFCURVE",
"132 42 CURVE SMOOTH",
"122 42 OFFCURVE",
"115 34 OFFCURVE",
"115 25 CURVE SMOOTH",
"115 15 OFFCURVE",
"122 7 OFFCURVE",
"132 7 CURVE SMOOTH"
);
}
);
};
layerId = master01;
paths = (
{
closed = 1;
nodes = (
"125 -6 OFFCURVE",
"131 -3 OFFCURVE",
"135 2 CURVE SMOOTH",
"646 668 LINE SMOOTH",
"648 671 OFFCURVE",
"650 674 OFFCURVE",
"650 679 CURVE SMOOTH",
"650 687 OFFCURVE",
"642 694 OFFCURVE",
"632 694 CURVE SMOOTH",
"625 694 OFFCURVE",
"621 691 OFFCURVE",
"617 686 CURVE SMOOTH",
"109 23 LINE SMOOTH",
"106 19 OFFCURVE",
"103 15 OFFCURVE",
"103 8 CURVE SMOOTH",
"103 2 OFFCURVE",
"109 -6 OFFCURVE",
"119 -6 CURVE SMOOTH"
);
},
{
closed = 1;
nodes = (
"548 -14 OFFCURVE",
"630 63 OFFCURVE",
"630 143 CURVE SMOOTH",
"630 202 OFFCURVE",
"585 248 OFFCURVE",
"522 248 CURVE SMOOTH",
"440 248 OFFCURVE",
"361 171 OFFCURVE",
"361 90 CURVE SMOOTH",
"361 31 OFFCURVE",
"405 -14 OFFCURVE",
"467 -14 CURVE SMOOTH"
);
},
{
closed = 1;
nodes = (
"429 21 OFFCURVE",
"398 53 OFFCURVE",
"398 96 CURVE SMOOTH",
"398 157 OFFCURVE",
"455 213 OFFCURVE",
"515 213 CURVE SMOOTH",
"561 213 OFFCURVE",
"593 179 OFFCURVE",
"593 136 CURVE SMOOTH",
"593 76 OFFCURVE",
"534 21 OFFCURVE",
"474 21 CURVE SMOOTH"
);
},
{
closed = 1;
nodes = (
"305 434 OFFCURVE",
"385 511 OFFCURVE",
"385 592 CURVE SMOOTH",
"385 651 OFFCURVE",
"341 696 OFFCURVE",
"279 696 CURVE SMOOTH",
"197 696 OFFCURVE",
"116 620 OFFCURVE",
"116 539 CURVE SMOOTH",
"116 480 OFFCURVE",
"160 434 OFFCURVE",
"223 434 CURVE SMOOTH"
);
},
{
closed = 1;
nodes = (
"185 469 OFFCURVE",
"153 501 OFFCURVE",
"153 544 CURVE SMOOTH",
"153 605 OFFCURVE",
"212 661 OFFCURVE",
"271 661 CURVE SMOOTH",
"316 661 OFFCURVE",
"349 627 OFFCURVE",
"349 584 CURVE SMOOTH",
"349 525 OFFCURVE",
"290 469 OFFCURVE",
"230 469 CURVE SMOOTH"
);
}
);
userData = {
com.fontlab.hintData = {
hhints = (
{
position = -8;
width = 35;
},
{
position = 0;
width = 21;
},
{
position = 219;
width = 35;
},
{
position = 440;
width = 35;
},
{
position = 667;
width = 35;
}
);
vhints = (
{
position = 179;
width = 36;
},
{
position = 412;
width = 36;
},
{
position = 424;
width = 37;
},
{
position = 656;
width = 37;
}
);
};
};
width = 704;
},
{
background = {
paths = (
{
closed = 1;
nodes = (
"136 -5 OFFCURVE",
"145 -1 OFFCURVE",
"152 8 CURVE SMOOTH",
"642 647 LINE SMOOTH",
"646 652 OFFCURVE",
"648 656 OFFCURVE",
"648 663 CURVE SMOOTH",
"648 675 OFFCURVE",
"640 685 OFFCURVE",
"627 685 CURVE SMOOTH",
"618 685 OFFCURVE",
"608 680 OFFCURVE",
"602 672 CURVE SMOOTH",
"115 36 LINE SMOOTH",
"110 29 OFFCURVE",
"107 23 OFFCURVE",
"107 19 CURVE",
"107 17 OFFCURVE",
"106 16 OFFCURVE",
"106 14 CURVE SMOOTH",
"106 4 OFFCURVE",
"114 -5 OFFCURVE",
"127 -5 CURVE SMOOTH"
);
},
{
closed = 1;
nodes = (
"538 -13 OFFCURVE",
"613 48 OFFCURVE",
"628 123 CURVE SMOOTH",
"630 133 OFFCURVE",
"631 142 OFFCURVE",
"631 151 CURVE SMOOTH",
"631 213 OFFCURVE",
"586 259 OFFCURVE",
"521 259 CURVE SMOOTH",
"446 259 OFFCURVE",
"371 198 OFFCURVE",
"356 123 CURVE SMOOTH",
"354 113 OFFCURVE",
"353 104 OFFCURVE",
"353 95 CURVE SMOOTH",
"353 33 OFFCURVE",
"398 -13 OFFCURVE",
"463 -13 CURVE SMOOTH"
);
},
{
closed = 1;
nodes = (
"435 41 OFFCURVE",
"408 68 OFFCURVE",
"408 105 CURVE SMOOTH",
"408 111 OFFCURVE",
"409 117 OFFCURVE",
"410 123 CURVE SMOOTH",
"418 168 OFFCURVE",
"464 205 OFFCURVE",
"509 205 CURVE SMOOTH",
"548 205 OFFCURVE",
"576 177 OFFCURVE",
"576 139 CURVE SMOOTH",
"576 134 OFFCURVE",
"575 129 OFFCURVE",
"574 123 CURVE SMOOTH",
"566 77 OFFCURVE",
"519 41 OFFCURVE",
"474 41 CURVE SMOOTH"
);
},
{
closed = 1;
nodes = (
"303 417 OFFCURVE",
"378 478 OFFCURVE",
"393 553 CURVE SMOOTH",
"395 563 OFFCURVE",
"396 572 OFFCURVE",
"396 581 CURVE SMOOTH",
"396 643 OFFCURVE",
"351 689 OFFCURVE",
"286 689 CURVE SMOOTH",
"211 689 OFFCURVE",
"136 628 OFFCURVE",
"121 553 CURVE SMOOTH",
"119 543 OFFCURVE",
"118 534 OFFCURVE",
"118 525 CURVE SMOOTH",
"118 463 OFFCURVE",
"163 417 OFFCURVE",
"228 417 CURVE SMOOTH"
);
},
{
closed = 1;
nodes = (
"201 471 OFFCURVE",
"173 498 OFFCURVE",
"173 536 CURVE SMOOTH",
"173 541 OFFCURVE",
"174 547 OFFCURVE",
"175 553 CURVE SMOOTH",
"183 598 OFFCURVE",
"230 635 OFFCURVE",
"275 635 CURVE SMOOTH",
"314 635 OFFCURVE",
"341 607 OFFCURVE",
"341 571 CURVE SMOOTH",
"341 565 OFFCURVE",
"340 559 OFFCURVE",
"339 553 CURVE SMOOTH",
"331 507 OFFCURVE",
"285 471 OFFCURVE",
"240 471 CURVE SMOOTH"
);
},
{
closed = 1;
nodes = (
"176 33 OFFCURVE",
"188 45 OFFCURVE",
"188 59 CURVE SMOOTH",
"188 73 OFFCURVE",
"176 85 OFFCURVE",
"162 85 CURVE SMOOTH",
"148 85 OFFCURVE",
"136 73 OFFCURVE",
"136 59 CURVE SMOOTH",
"136 45 OFFCURVE",
"148 33 OFFCURVE",
"162 33 CURVE SMOOTH"
);
}
);
};
layerId = "ACFB53BD-70C1-480F-BE56-298851F5C10E";
paths = (
{
closed = 1;
nodes = (
"138 -7 OFFCURVE",
"147 -3 OFFCURVE",
"154 6 CURVE SMOOTH",
"641 642 LINE SMOOTH",
"646 649 OFFCURVE",
"650 655 OFFCURVE",
"650 662 CURVE SMOOTH",
"650 675 OFFCURVE",
"638 684 OFFCURVE",
"625 684 CURVE SMOOTH",
"615 684 OFFCURVE",
"606 679 OFFCURVE",
"600 671 CURVE SMOOTH",
"116 38 LINE SMOOTH",
"107 27 OFFCURVE",
"105 20 OFFCURVE",
"105 13 CURVE SMOOTH",
"105 2 OFFCURVE",
"114 -7 OFFCURVE",
"129 -7 CURVE SMOOTH"
);
},
{
closed = 1;
nodes = (
"544 -14 OFFCURVE",
"631 63 OFFCURVE",
"631 150 CURVE SMOOTH",
"631 211 OFFCURVE",
"586 258 OFFCURVE",
"521 258 CURVE SMOOTH",
"438 258 OFFCURVE",
"353 183 OFFCURVE",
"353 94 CURVE SMOOTH",
"353 32 OFFCURVE",
"398 -14 OFFCURVE",
"463 -14 CURVE SMOOTH"
);
},
{
closed = 1;
nodes = (
"435 40 OFFCURVE",
"408 67 OFFCURVE",
"408 104 CURVE SMOOTH",
"408 157 OFFCURVE",
"457 204 OFFCURVE",
"509 204 CURVE SMOOTH",
"548 204 OFFCURVE",
"575 175 OFFCURVE",
"575 138 CURVE SMOOTH",
"575 87 OFFCURVE",
"525 40 OFFCURVE",
"474 40 CURVE SMOOTH"
);
},
{
closed = 1;
nodes = (
"309 416 OFFCURVE",
"396 493 OFFCURVE",
"396 580 CURVE SMOOTH",
"396 641 OFFCURVE",
"351 688 OFFCURVE",
"286 688 CURVE SMOOTH",
"203 688 OFFCURVE",
"118 613 OFFCURVE",
"118 524 CURVE SMOOTH",
"118 462 OFFCURVE",
"163 416 OFFCURVE",
"228 416 CURVE SMOOTH"
);
},
{
closed = 1;
nodes = (
"201 470 OFFCURVE",
"173 497 OFFCURVE",
"173 535 CURVE SMOOTH",
"173 586 OFFCURVE",
"223 634 OFFCURVE",
"275 634 CURVE SMOOTH",
"313 634 OFFCURVE",
"341 606 OFFCURVE",
"341 570 CURVE SMOOTH",
"341 523 OFFCURVE",
"295 470 OFFCURVE",
"240 470 CURVE SMOOTH"
);
}
);
userData = {
com.fontlab.hintData = {
hhints = (
{
position = -8;
width = 54;
},
{
position = 210;
width = 54;
},
{
position = 422;
width = 54;
},
{
position = 640;
width = 54;
},
{
position = 670;
width = 20;
}
);
vhints = (
{
position = 121;
width = 55;
},
{
position = 344;
width = 55;
},
{
position = 356;
width = 55;
},
{
position = 579;
width = 55;
}
);
};
};
width = 709;
},
{
background = {
paths = (
{
closed = 1;
nodes = (
"143 -6 OFFCURVE",
"160 1 OFFCURVE",
"173 18 CURVE SMOOTH",
"618 598 LINE SMOOTH",
"623 605 OFFCURVE",
"626 613 OFFCURVE",
"628 620 CURVE",
"628 622 OFFCURVE",
"629 625 OFFCURVE",
"629 627 CURVE SMOOTH",
"629 648 OFFCURVE",
"614 666 OFFCURVE",
"591 666 CURVE SMOOTH",
"575 666 OFFCURVE",
"558 658 OFFCURVE",
"546 643 CURVE SMOOTH",
"104 65 LINE SMOOTH",
"96 55 OFFCURVE",
"93 45 OFFCURVE",
"91 39 CURVE SMOOTH",
"90 36 OFFCURVE",
"90 33 OFFCURVE",
"90 30 CURVE SMOOTH",
"90 11 OFFCURVE",
"104 -6 OFFCURVE",
"128 -6 CURVE SMOOTH"
);
},
{
closed = 1;
nodes = (
"513 -13 OFFCURVE",
"594 52 OFFCURVE",
"610 133 CURVE SMOOTH",
"612 143 OFFCURVE",
"613 153 OFFCURVE",
"613 163 CURVE SMOOTH",
"613 230 OFFCURVE",
"565 279 OFFCURVE",
"495 279 CURVE SMOOTH",
"414 279 OFFCURVE",
"333 214 OFFCURVE",
"317 133 CURVE SMOOTH",
"315 123 OFFCURVE",
"314 113 OFFCURVE",
"314 103 CURVE SMOOTH",
"314 36 OFFCURVE",
"362 -13 OFFCURVE",
"433 -13 CURVE SMOOTH"
);
},
{
closed = 1;
nodes = (
"428 81 OFFCURVE",
"411 98 OFFCURVE",
"411 122 CURVE SMOOTH",
"411 126 OFFCURVE",
"411 129 OFFCURVE",
"412 133 CURVE SMOOTH",
"419 161 OFFCURVE",
"446 185 OFFCURVE",
"475 185 CURVE SMOOTH",
"499 185 OFFCURVE",
"516 167 OFFCURVE",
"516 144 CURVE SMOOTH",
"516 140 OFFCURVE",
"516 137 OFFCURVE",
"515 133 CURVE SMOOTH",
"508 104 OFFCURVE",
"481 81 OFFCURVE",
"453 81 CURVE SMOOTH"
);
},
{
closed = 1;
nodes = (
"300 377 OFFCURVE",
"381 443 OFFCURVE",
"397 524 CURVE SMOOTH",
"399 534 OFFCURVE",
"400 544 OFFCURVE",
"400 554 CURVE SMOOTH",
"400 620 OFFCURVE",
"352 670 OFFCURVE",
"281 670 CURVE SMOOTH",
"201 670 OFFCURVE",
"120 604 OFFCURVE",
"104 524 CURVE SMOOTH",
"102 514 OFFCURVE",
"101 504 OFFCURVE",
"101 494 CURVE SMOOTH",
"101 427 OFFCURVE",
"149 377 OFFCURVE",
"219 377 CURVE SMOOTH"
);
},
{
closed = 1;
nodes = (
"215 472 OFFCURVE",
"198 489 OFFCURVE",
"198 513 CURVE SMOOTH",
"198 517 OFFCURVE",
"198 520 OFFCURVE",
"199 524 CURVE SMOOTH",
"206 552 OFFCURVE",
"233 575 OFFCURVE",
"261 575 CURVE SMOOTH",
"286 575 OFFCURVE",
"303 558 OFFCURVE",
"303 535 CURVE SMOOTH",
"303 531 OFFCURVE",
"303 528 OFFCURVE",
"302 524 CURVE SMOOTH",
"295 495 OFFCURVE",
"268 472 OFFCURVE",
"239 472 CURVE SMOOTH"
);
}
);
};
layerId = "140D7E2C-8008-49AA-8FE3-CF6E53AFBA7D";
paths = (
{
closed = 1;
nodes = (
"146 -6 OFFCURVE",
"163 5 OFFCURVE",
"173 18 CURVE SMOOTH",
"614 593 LINE SMOOTH",
"622 603 OFFCURVE",
"629 615 OFFCURVE",
"629 629 CURVE SMOOTH",
"629 647 OFFCURVE",
"614 666 OFFCURVE",
"591 666 CURVE SMOOTH",
"574 666 OFFCURVE",
"558 658 OFFCURVE",
"546 643 CURVE SMOOTH",
"108 70 LINE SMOOTH",
"98 56 OFFCURVE",
"90 42 OFFCURVE",
"90 28 CURVE SMOOTH",
"90 9 OFFCURVE",
"104 -6 OFFCURVE",
"128 -6 CURVE SMOOTH"
);
},
{
closed = 1;
nodes = (
"525 -13 OFFCURVE",
"613 72 OFFCURVE",
"613 163 CURVE SMOOTH",
"613 229 OFFCURVE",
"565 279 OFFCURVE",
"495 279 CURVE SMOOTH",
"402 279 OFFCURVE",
"314 195 OFFCURVE",
"314 103 CURVE SMOOTH",
"314 37 OFFCURVE",
"362 -13 OFFCURVE",
"433 -13 CURVE SMOOTH"
);
},
{
closed = 1;
nodes = (
"428 81 OFFCURVE",
"411 99 OFFCURVE",
"411 122 CURVE SMOOTH",
"411 155 OFFCURVE",
"442 185 OFFCURVE",
"475 185 CURVE SMOOTH",
"499 185 OFFCURVE",
"516 167 OFFCURVE",
"516 144 CURVE SMOOTH",
"516 111 OFFCURVE",
"485 81 OFFCURVE",
"453 81 CURVE SMOOTH"
);
},
{
closed = 1;
nodes = (
"311 377 OFFCURVE",
"400 462 OFFCURVE",
"400 554 CURVE SMOOTH",
"400 620 OFFCURVE",
"351 670 OFFCURVE",
"281 670 CURVE SMOOTH",
"190 670 OFFCURVE",
"101 585 OFFCURVE",
"101 494 CURVE SMOOTH",
"101 427 OFFCURVE",
"150 377 OFFCURVE",
"219 377 CURVE SMOOTH"
);
},
{
closed = 1;
nodes = (
"215 472 OFFCURVE",
"198 490 OFFCURVE",
"198 513 CURVE SMOOTH",
"198 545 OFFCURVE",
"229 575 OFFCURVE",
"261 575 CURVE SMOOTH",
"286 575 OFFCURVE",
"303 557 OFFCURVE",
"303 535 CURVE SMOOTH",
"303 501 OFFCURVE",
"272 472 OFFCURVE",
"239 472 CURVE SMOOTH"
);
}
);
userData = {
com.fontlab.hintData = {
hhints = (
{
position = -7;
width = 94;
},
{
position = 0;
width = 21;
},
{
position = 191;
width = 94;
},
{
position = 383;
width = 95;
},
{
position = 581;
width = 95;
}
);
vhints = (
{
position = 116;
width = 97;
},
{
position = 318;
width = 97;
},
{
position = 329;
width = 97;
},
{
position = 531;
width = 97;
}
);
};
};
width = 678;
}
);
unicode = 0025;
},
{
color = 5;
glyphname = ampersand;
lastChange = "2020-01-28 22:13:47 +0000";
layers = (
{
background = {
paths = (
{
closed = 1;
nodes = (
"221 -6 OFFCURVE",
"320 1 OFFCURVE",
"429 119 CURVE",
"502 4 LINE SMOOTH",
"505 0 OFFCURVE",
"510 -2 OFFCURVE",
"515 -2 CURVE SMOOTH",
"521 -2 OFFCURVE",
"533 3 OFFCURVE",
"535 15 CURVE SMOOTH",
"536 21 OFFCURVE",
"537 22 OFFCURVE",
"534 27 CURVE SMOOTH",
"456 152 LINE",
"482 187 OFFCURVE",
"500 217 OFFCURVE",
"521 259 CURVE SMOOTH",
"528 273 OFFCURVE",
"530 279 OFFCURVE",
"530 278 CURVE SMOOTH",
"530 269 OFFCURVE",
"525 294 OFFCURVE",
"517 294 CURVE SMOOTH",
"504 294 OFFCURVE",
"501 288 OFFCURVE",
"490 269 CURVE SMOOTH",
"486 262 OFFCURVE",
"464 217 OFFCURVE",
"437 181 CURVE",
"311 383 LINE",
"421 436 OFFCURVE",
"479 485 OFFCURVE",
"492 559 CURVE SMOOTH",
"494 570 OFFCURVE",
"495 575 OFFCURVE",
"495 585 CURVE SMOOTH",
"495 645 OFFCURVE",
"445 696 OFFCURVE",
"380 696 CURVE SMOOTH",
"306 696 OFFCURVE",
"223 632 OFFCURVE",
"208 561 CURVE SMOOTH",
"205 547 OFFCURVE",
"205 539 OFFCURVE",
"205 531 CURVE SMOOTH",
"205 477 OFFCURVE",
"235 424 OFFCURVE",
"257 391 CURVE",
"159 343 OFFCURVE",
"60 290 OFFCURVE",
"35 176 CURVE",
"32 163 OFFCURVE",
"31 152 OFFCURVE",
"31 141 CURVE SMOOTH",
"31 50 OFFCURVE",
"112 -6 OFFCURVE",
"198 -6 CURVE SMOOTH"
);
},
{
closed = 1;
nodes = (
"146 29 OFFCURVE",
"67 66 OFFCURVE",
"67 147 CURVE SMOOTH",
"67 157 OFFCURVE",
"69 168 OFFCURVE",
"71 176 CURVE",
"93 276 OFFCURVE",
"172 316 OFFCURVE",
"277 366 CURVE",
"412 148 LINE",
"316 37 OFFCURVE",
"227 29 OFFCURVE",
"205 29 CURVE SMOOTH"
);
},
{
closed = 1;
nodes = (
"271 438 OFFCURVE",
"240 489 OFFCURVE",
"240 537 CURVE SMOOTH",
"240 545 OFFCURVE",
"241 552 OFFCURVE",
"243 560 CURVE SMOOTH",
"257 617 OFFCURVE",
"321 661 OFFCURVE",
"372 661 CURVE SMOOTH",
"421 661 OFFCURVE",
"460 620 OFFCURVE",
"460 576 CURVE SMOOTH",
"460 572 OFFCURVE",
"460 564 OFFCURVE",
"459 560 CURVE SMOOTH",
"449 520 OFFCURVE",
"438 474 OFFCURVE",
"294 410 CURVE"
);
}
);
};
layerId = master01;
paths = (
{
closed = 1;
nodes = (
"261 -6 OFFCURVE",
"353 36 OFFCURVE",
"429 119 CURVE",
"500 8 LINE SMOOTH",
"504 2 OFFCURVE",
"509 -2 OFFCURVE",
"516 -2 CURVE SMOOTH",
"526 -2 OFFCURVE",
"536 10 OFFCURVE",
"536 18 CURVE SMOOTH",
"536 24 OFFCURVE",
"532 31 OFFCURVE",
"528 37 CURVE SMOOTH",
"456 152 LINE",
"482 187 OFFCURVE",
"500 217 OFFCURVE",
"517 250 CURVE SMOOTH",
"527 269 OFFCURVE",
"530 276 OFFCURVE",
"530 283 CURVE SMOOTH",
"530 289 OFFCURVE",
"525 294 OFFCURVE",
"517 294 CURVE SMOOTH",
"507 294 OFFCURVE",
"501 289 OFFCURVE",
"493 274 CURVE SMOOTH",
"485 261 OFFCURVE",
"464 217 OFFCURVE",
"437 181 CURVE",
"311 383 LINE",
"412 432 OFFCURVE",
"495 492 OFFCURVE",
"495 580 CURVE SMOOTH",
"495 645 OFFCURVE",
"446 696 OFFCURVE",
"373 696 CURVE SMOOTH",
"286 696 OFFCURVE",
"205 627 OFFCURVE",
"205 534 CURVE SMOOTH",
"205 477 OFFCURVE",
"235 424 OFFCURVE",
"257 391 CURVE",
"146 337 OFFCURVE",
"31 268 OFFCURVE",
"31 141 CURVE SMOOTH",
"31 50 OFFCURVE",
"112 -6 OFFCURVE",
"198 -6 CURVE SMOOTH"
);
},
{
closed = 1;
nodes = (
"146 29 OFFCURVE",
"67 66 OFFCURVE",
"67 147 CURVE SMOOTH",
"67 258 OFFCURVE",
"168 314 OFFCURVE",
"277 366 CURVE",
"412 148 LINE",
"341 66 OFFCURVE",
"261 29 OFFCURVE",
"205 29 CURVE SMOOTH"
);
},
{
closed = 1;
nodes = (
"271 438 OFFCURVE",
"240 489 OFFCURVE",
"240 540 CURVE SMOOTH",
"240 606 OFFCURVE",
"297 661 OFFCURVE",
"365 661 CURVE SMOOTH",
"422 661 OFFCURVE",
"460 620 OFFCURVE",
"460 571 CURVE SMOOTH",
"460 504 OFFCURVE",
"395 455 OFFCURVE",
"294 410 CURVE"
);
}
);
userData = {
com.fontlab.hintData = {
hhints = (
{
position = -4;
width = 35;
},
{
position = 0;
width = 21;
},
{
position = 663;
width = 35;
}
);
vhints = (
{
position = 95;
width = 36;
},
{
position = 269;
width = 36;
},
{
position = 525;
width = 35;
}
);
};
};
width = 622;
},
{
background = {
paths = (
{
closed = 1;
nodes = (
"236 -6 OFFCURVE",
"333 1 OFFCURVE",
"433 108 CURVE",
"496 8 LINE SMOOTH",
"500 2 OFFCURVE",
"507 -2 OFFCURVE",
"515 -2 CURVE SMOOTH",
"530 -2 OFFCURVE",
"544 10 OFFCURVE",
"547 25 CURVE SMOOTH",
"548 31 OFFCURVE",
"547 38 OFFCURVE",
"545 42 CURVE SMOOTH",
"473 157 LINE",
"494 185 OFFCURVE",
"514 218 OFFCURVE",
"533 256 CURVE SMOOTH",
"540 270 OFFCURVE",
"541 274 OFFCURVE",
"542 276 CURVE SMOOTH",
"543 278 OFFCURVE",
"543 280 OFFCURVE",
"543 282 CURVE SMOOTH",
"543 294 OFFCURVE",
"534 302 OFFCURVE",
"521 302 CURVE SMOOTH",
"504 302 OFFCURVE",
"497 294 OFFCURVE",
"484 270 CURVE SMOOTH",
"470 244 OFFCURVE",
"459 221 OFFCURVE",
"445 202 CURVE",
"337 374 LINE",
"438 422 OFFCURVE",
"487 469 OFFCURVE",
"507 549 CURVE SMOOTH",
"509 557 OFFCURVE",
"509 564 OFFCURVE",
"509 572 CURVE SMOOTH",
"509 634 OFFCURVE",
"457 688 OFFCURVE",
"389 688 CURVE SMOOTH",
"313 688 OFFCURVE",
"227 621 OFFCURVE",
"212 546 CURVE SMOOTH",
"210 536 OFFCURVE",
"209 526 OFFCURVE",
"209 517 CURVE SMOOTH",
"209 465 OFFCURVE",
"235 417 OFFCURVE",
"254 388 CURVE",
"163 344 OFFCURVE",
"74 295 OFFCURVE",
"47 179 CURVE SMOOTH",
"44 166 OFFCURVE",
"43 154 OFFCURVE",
"43 143 CURVE SMOOTH",
"43 50 OFFCURVE",
"125 -6 OFFCURVE",
"211 -6 CURVE SMOOTH"
);
},
{
closed = 1;
nodes = (
"168 48 OFFCURVE",
"98 81 OFFCURVE",
"98 153 CURVE SMOOTH",
"98 161 OFFCURVE",
"99 170 OFFCURVE",
"101 179 CURVE SMOOTH",
"121 268 OFFCURVE",
"193 304 OFFCURVE",
"284 348 CURVE",
"406 151 LINE",
"322 54 OFFCURVE",
"243 48 OFFCURVE",
"222 48 CURVE SMOOTH"
);
},
{
closed = 1;
nodes = (
"290 439 OFFCURVE",
"264 484 OFFCURVE",
"264 527 CURVE SMOOTH",
"264 533 OFFCURVE",
"265 540 OFFCURVE",
"266 546 CURVE SMOOTH",
"274 596 OFFCURVE",
"335 634 OFFCURVE",
"378 634 CURVE SMOOTH",
"421 634 OFFCURVE",
"454 599 OFFCURVE",
"454 560 CURVE SMOOTH",
"454 556 OFFCURVE",
"454 551 OFFCURVE",
"453 547 CURVE SMOOTH",
"444 512 OFFCURVE",
"436 472 OFFCURVE",
"309 415 CURVE"
);
}
);
};
layerId = "ACFB53BD-70C1-480F-BE56-298851F5C10E";
paths = (
{
closed = 1;
nodes = (
"235 -6 OFFCURVE",
"333 1 OFFCURVE",
"433 108 CURVE",
"495 10 LINE SMOOTH",
"499 3 OFFCURVE",
"506 -2 OFFCURVE",
"515 -2 CURVE SMOOTH",
"531 -2 OFFCURVE",
"549 14 OFFCURVE",
"548 30 CURVE SMOOTH",
"547 39 OFFCURVE",
"544 43 OFFCURVE",
"537 55 CURVE SMOOTH",
"473 157 LINE",
"494 185 OFFCURVE",
"516 222 OFFCURVE",
"533 256 CURVE SMOOTH",
"540 271 OFFCURVE",
"543 274 OFFCURVE",
"543 283 CURVE SMOOTH",
"543 294 OFFCURVE",
"535 302 OFFCURVE",
"521 302 CURVE SMOOTH",
"503 302 OFFCURVE",
"497 294 OFFCURVE",
"484 270 CURVE SMOOTH",
"466 237 OFFCURVE",
"459 221 OFFCURVE",
"445 202 CURVE",
"337 375 LINE",
"433 421 OFFCURVE",
"509 480 OFFCURVE",
"509 572 CURVE SMOOTH",
"509 634 OFFCURVE",
"456 688 OFFCURVE",
"389 688 CURVE SMOOTH",
"290 688 OFFCURVE",
"209 602 OFFCURVE",
"209 517 CURVE SMOOTH",
"209 464 OFFCURVE",
"236 416 OFFCURVE",
"254 388 CURVE",
"146 336 OFFCURVE",
"43 268 OFFCURVE",
"43 143 CURVE SMOOTH",
"43 50 OFFCURVE",
"125 -6 OFFCURVE",
"211 -6 CURVE SMOOTH"
);
},
{
closed = 1;
nodes = (
"169 48 OFFCURVE",
"98 81 OFFCURVE",
"98 153 CURVE SMOOTH",
"98 255 OFFCURVE",
"189 302 OFFCURVE",
"284 349 CURVE",
"406 151 LINE",
"322 54 OFFCURVE",
"242 48 OFFCURVE",
"222 48 CURVE SMOOTH"
);
},
{
closed = 1;
nodes = (
"289 438 OFFCURVE",
"264 484 OFFCURVE",
"264 527 CURVE SMOOTH",
"264 582 OFFCURVE",
"314 634 OFFCURVE",
"378 634 CURVE SMOOTH",
"421 634 OFFCURVE",
"454 598 OFFCURVE",
"454 560 CURVE SMOOTH",
"454 496 OFFCURVE",
"396 454 OFFCURVE",
"308 414 CURVE"
);
}
);
userData = {
com.fontlab.hintData = {
hhints = (
{
position = -4;
width = 54;
},
{
position = 0;
width = 21;
},
{
position = 636;
width = 54;
}
);
vhints = (
{
position = 40;
width = 55;
},
{
position = 206;
width = 55;
},
{
position = 451;
width = 55;
}
);
};
};
width = 649;
},
{
background = {
paths = (
{
closed = 1;
nodes = (
"278 -6 OFFCURVE",
"348 32 OFFCURVE",
"403 85 CURVE",
"446 15 LINE SMOOTH",
"453 4 OFFCURVE",
"465 -2 OFFCURVE",
"479 -2 CURVE SMOOTH",
"505 -2 OFFCURVE",
"530 19 OFFCURVE",
"535 45 CURVE",
"538 55 OFFCURVE",
"535 67 OFFCURVE",
"531 74 CURVE SMOOTH",
"474 168 LINE",
"495 199 OFFCURVE",
"525 248 OFFCURVE",
"531 273 CURVE SMOOTH",
"532 277 OFFCURVE",
"532 280 OFFCURVE",
"532 284 CURVE SMOOTH",
"532 305 OFFCURVE",
"517 320 OFFCURVE",
"494 320 CURVE SMOOTH",
"464 320 OFFCURVE",
"453 308 OFFCURVE",
"435 274 CURVE SMOOTH",
"422 249 LINE",
"357 356 LINE",
"437 399 OFFCURVE",
"480 447 OFFCURVE",
"499 521 CURVE SMOOTH",
"501 529 OFFCURVE",
"502 538 OFFCURVE",
"502 546 CURVE SMOOTH",
"502 613 OFFCURVE",
"446 670 OFFCURVE",
"374 670 CURVE SMOOTH",
"293 670 OFFCURVE",
"206 597 OFFCURVE",
"186 519 CURVE SMOOTH",
"183 507 OFFCURVE",
"183 496 OFFCURVE",
"183 485 CURVE SMOOTH",
"183 445 OFFCURVE",
"197 410 OFFCURVE",
"212 382 CURVE",
"135 342 OFFCURVE",
"60 289 OFFCURVE",
"36 185 CURVE SMOOTH",
"33 172 OFFCURVE",
"32 159 OFFCURVE",
"32 147 CURVE SMOOTH",
"32 52 OFFCURVE",
"115 -6 OFFCURVE",
"203 -6 CURVE SMOOTH"
);
},
{
closed = 1;
nodes = (
"182 89 OFFCURVE",
"128 113 OFFCURVE",
"128 166 CURVE SMOOTH",
"128 172 OFFCURVE",
"129 178 OFFCURVE",
"130 185 CURVE SMOOTH",
"139 246 OFFCURVE",
"198 278 OFFCURVE",
"263 310 CURVE",
"357 159 LINE",
"320 120 OFFCURVE",
"273 89 OFFCURVE",
"223 89 CURVE SMOOTH"
);
},
{
closed = 1;
nodes = (
"294 449 OFFCURVE",
"279 479 OFFCURVE",
"279 507 CURVE SMOOTH",
"279 511 OFFCURVE",
"279 515 OFFCURVE",
"280 519 CURVE SMOOTH",
"288 551 OFFCURVE",
"326 576 OFFCURVE",
"354 576 CURVE SMOOTH",
"383 576 OFFCURVE",
"406 553 OFFCURVE",
"406 528 CURVE SMOOTH",
"406 525 OFFCURVE",
"406 522 OFFCURVE",
"405 519 CURVE SMOOTH",
"398 497 OFFCURVE",
"393 469 OFFCURVE",
"308 428 CURVE"
);
}
);
};
layerId = "140D7E2C-8008-49AA-8FE3-CF6E53AFBA7D";
paths = (
{
closed = 1;
nodes = (
"278 -6 OFFCURVE",
"348 32 OFFCURVE",
"403 85 CURVE",
"446 15 LINE SMOOTH",
"453 4 OFFCURVE",
"464 -2 OFFCURVE",
"479 -2 CURVE SMOOTH",
"502 -2 OFFCURVE",
"537 21 OFFCURVE",
"537 53 CURVE SMOOTH",
"537 61 OFFCURVE",
"535 67 OFFCURVE",
"531 74 CURVE SMOOTH",
"474 168 LINE",
"488 189 OFFCURVE",
"509 219 OFFCURVE",
"521 246 CURVE SMOOTH",
"528 261 OFFCURVE",
"532 274 OFFCURVE",
"532 284 CURVE SMOOTH",
"532 305 OFFCURVE",
"517 320 OFFCURVE",
"493 320 CURVE SMOOTH",
"469 320 OFFCURVE",
"454 308 OFFCURVE",
"441 283 CURVE SMOOTH",
"432 266 OFFCURVE",
"427 257 OFFCURVE",
"422 249 CURVE",
"357 356 LINE",
"439 400 OFFCURVE",
"502 468 OFFCURVE",
"502 546 CURVE SMOOTH",
"502 613 OFFCURVE",
"446 670 OFFCURVE",
"374 670 CURVE SMOOTH",
"281 670 OFFCURVE",
"183 586 OFFCURVE",
"183 485 CURVE SMOOTH",
"183 445 OFFCURVE",
"197 410 OFFCURVE",
"212 382 CURVE",
"114 331 OFFCURVE",
"32 256 OFFCURVE",
"32 147 CURVE SMOOTH",
"32 53 OFFCURVE",
"115 -6 OFFCURVE",
"203 -6 CURVE SMOOTH"
);
},
{
closed = 1;
nodes = (
"183 89 OFFCURVE",
"128 113 OFFCURVE",
"128 166 CURVE SMOOTH",
"128 236 OFFCURVE",
"191 277 OFFCURVE",
"263 310 CURVE",
"357 159 LINE",
"320 120 OFFCURVE",
"273 89 OFFCURVE",
"223 89 CURVE SMOOTH"
);
},
{
closed = 1;
nodes = (
"294 449 OFFCURVE",
"279 480 OFFCURVE",
"279 507 CURVE SMOOTH",
"279 546 OFFCURVE",
"316 576 OFFCURVE",
"354 576 CURVE SMOOTH",
"383 576 OFFCURVE",
"406 553 OFFCURVE",
"406 528 CURVE SMOOTH",
"406 486 OFFCURVE",
"367 456 OFFCURVE",
"308 428 CURVE"
);
}
);
userData = {
com.fontlab.hintData = {
hhints = (
{
position = -4;
width = 95;
},
{
position = 0;
width = 21;
},
{
position = 578;
width = 94;
}
);
vhints = (
{
position = 41;
width = 96;
},
{
position = 192;
width = 96;
},
{
position = 415;
width = 96;
}
);
};
};
width = 626;
}
);
unicode = 0026;
},
{
color = 5;
glyphname = quotesingle;
lastChange = "2020-01-29 03:22:57 +0000";
layers = (
{
background = {
paths = (
{
closed = 1;
nodes = (
"156 515 OFFCURVE",
"168 523 OFFCURVE",
"170 534 CURVE SMOOTH",
"200 673 LINE SMOOTH",
"202 684 OFFCURVE",
"195 692 OFFCURVE",
"185 692 CURVE SMOOTH",
"176 692 OFFCURVE",
"164 684 OFFCURVE",
"162 673 CURVE SMOOTH",
"132 534 LINE SMOOTH",
"130 523 OFFCURVE",
"137 515 OFFCURVE",
"147 515 CURVE SMOOTH"
);
}
);
};
layerId = master01;
paths = (
{
closed = 1;
nodes = (
"156 515 OFFCURVE",
"168 523 OFFCURVE",
"170 534 CURVE SMOOTH",
"200 673 LINE SMOOTH",
"202 684 OFFCURVE",
"195 692 OFFCURVE",
"185 692 CURVE SMOOTH",
"176 692 OFFCURVE",
"164 684 OFFCURVE",
"162 673 CURVE SMOOTH",
"132 534 LINE SMOOTH",
"130 523 OFFCURVE",
"137 515 OFFCURVE",
"147 515 CURVE SMOOTH"
);
}
);
userData = {
com.fontlab.hintData = {
hhints = (
{
position = 521;
width = 177;
}
);
vhints = (
{
position = 188;
width = 68;
}
);
};
};
width = 174;
},
{
background = {
paths = (
{
closed = 1;
nodes = (
"163 500 OFFCURVE",
"178 512 OFFCURVE",
"182 528 CURVE SMOOTH",
"210 662 LINE SMOOTH",
"210.359 663.797 OFFCURVE",
"210.532 665.565 OFFCURVE",
"210.532 667.286 CURVE SMOOTH",
"210.532 679.928 OFFCURVE",
"201.203 690 OFFCURVE",
"188 690 CURVE SMOOTH",
"172 690 OFFCURVE",
"157 677 OFFCURVE",
"154 662 CURVE SMOOTH",
"126 528 LINE SMOOTH",
"125.403 525.612 OFFCURVE",
"125.118 523.314 OFFCURVE",
"125.118 521.131 CURVE SMOOTH",
"125.118 508.686 OFFCURVE",
"134.388 500 OFFCURVE",
"148 500 CURVE SMOOTH"
);
}
);
};
layerId = "ACFB53BD-70C1-480F-BE56-298851F5C10E";
paths = (
{
closed = 1;
nodes = (
"163 494 OFFCURVE",
"178 508 OFFCURVE",
"181 522 CURVE SMOOTH",
"209 656 LINE SMOOTH",
"212 673 OFFCURVE",
"203 684 OFFCURVE",
"187 684 CURVE SMOOTH",
"172 684 OFFCURVE",
"156 671 OFFCURVE",
"153 656 CURVE SMOOTH",
"125 522 LINE SMOOTH",
"121 505 OFFCURVE",
"130 494 OFFCURVE",
"147 494 CURVE SMOOTH"
);
}
);
userData = {
com.fontlab.hintData = {
hhints = (
{
position = 500;
width = 190;
}
);
vhints = (
{
position = 125;
width = 85;
}
);
};
};
width = 172;
},
{
background = {
paths = (
{
closed = 1;
nodes = (
"157 448 OFFCURVE",
"184 469 OFFCURVE",
"190 496 CURVE SMOOTH",
"216 618 LINE SMOOTH",
"217 621 OFFCURVE",
"217 624 OFFCURVE",
"217 628 CURVE SMOOTH",
"217 649 OFFCURVE",
"200 666 OFFCURVE",
"178 666 CURVE SMOOTH",
"151 666 OFFCURVE",
"126 644 OFFCURVE",
"120 618 CURVE SMOOTH",
"94 496 LINE SMOOTH",
"93 492 OFFCURVE",
"93 489 OFFCURVE",
"93 485 CURVE SMOOTH",
"93 464 OFFCURVE",
"109 448 OFFCURVE",
"132 448 CURVE SMOOTH"
);
}
);
};
layerId = "140D7E2C-8008-49AA-8FE3-CF6E53AFBA7D";
paths = (
{
closed = 1;
nodes = (
"157 448 OFFCURVE",
"184 469 OFFCURVE",
"190 496 CURVE SMOOTH",
"216 618 LINE SMOOTH",
"222 637 OFFCURVE",
"207 666 OFFCURVE",
"178 666 CURVE SMOOTH",
"152 666 OFFCURVE",
"126 645 OFFCURVE",
"120 618 CURVE SMOOTH",
"94 496 LINE SMOOTH",
"88 474 OFFCURVE",
"102 448 OFFCURVE",
"132 448 CURVE SMOOTH"
);
}
);
userData = {
com.fontlab.hintData = {
hhints = (
{
position = 454;
width = 218;
}
);
};
};
width = 187;
}
);
unicode = 0027;
},
{
color = 5;
glyphname = parenleft;
lastChange = "2020-01-29 00:55:32 +0000";
layers = (
{
background = {
paths = (
{
closed = 1;
nodes = (
"196 -119 OFFCURVE",
"207 -110 OFFCURVE",
"209 -101 CURVE SMOOTH",
"210 -97 OFFCURVE",
"210 -91 OFFCURVE",
"206 -86 CURVE SMOOTH",
"204 -84 OFFCURVE",
"115 36 OFFCURVE",
"115 222 CURVE SMOOTH",
"115 262 OFFCURVE",
"119 304 OFFCURVE",
"129 349 CURVE SMOOTH",
"184 606 OFFCURVE",
"397 765 OFFCURVE",
"402 769 CURVE SMOOTH",
"407 773 OFFCURVE",
"410 778 OFFCURVE",
"411 783 CURVE SMOOTH",
"413 793 OFFCURVE",
"407 802 OFFCURVE",
"397 802 CURVE SMOOTH",
"391 802 OFFCURVE",
"383 796 OFFCURVE",
"378 792 CURVE SMOOTH",
"243 680 OFFCURVE",
"126 516 OFFCURVE",
"91 349 CURVE SMOOTH",
"81 302 OFFCURVE",
"77 257 OFFCURVE",
"77 216 CURVE SMOOTH",
"77 42 OFFCURVE",
"150 -76 OFFCURVE",
"171 -110 CURVE",
"175 -114 OFFCURVE",
"180 -119 OFFCURVE",
"187 -119 CURVE SMOOTH"
);
}
);
};
layerId = master01;
paths = (
{
closed = 1;
nodes = (
"195 -119 OFFCURVE",
"210 -110 OFFCURVE",
"210 -97 CURVE SMOOTH",
"210 -93 OFFCURVE",
"208 -89 OFFCURVE",
"204 -83 CURVE SMOOTH",
"201 -78 OFFCURVE",
"115 36 OFFCURVE",
"115 222 CURVE SMOOTH",
"115 450 OFFCURVE",
"251 648 OFFCURVE",
"402 769 CURVE SMOOTH",
"407 773 OFFCURVE",
"412 779 OFFCURVE",
"412 785 CURVE SMOOTH",
"412 793 OFFCURVE",
"407 802 OFFCURVE",
"397 802 CURVE SMOOTH",
"391 802 OFFCURVE",
"383 796 OFFCURVE",
"373 788 CURVE SMOOTH",
"214 661 OFFCURVE",
"77 442 OFFCURVE",
"77 216 CURVE SMOOTH",
"77 42 OFFCURVE",
"151 -76 OFFCURVE",
"169 -107 CURVE SMOOTH",
"174 -115 OFFCURVE",
"180 -119 OFFCURVE",
"187 -119 CURVE SMOOTH"
);
}
);
userData = {
com.fontlab.hintData = {
vhints = (
{
position = 130;
width = 39;
}
);
};
};
width = 332;
},
{
background = {
paths = (
{
closed = 1;
nodes = (
"206 -114 OFFCURVE",
"221 -102 OFFCURVE",
"225 -87 CURVE SMOOTH",
"227 -79 OFFCURVE",
"226 -71 OFFCURVE",
"221 -66 CURVE SMOOTH",
"219 -64 OFFCURVE",
"135 48 OFFCURVE",
"135 224 CURVE SMOOTH",
"135 262 OFFCURVE",
"139 302 OFFCURVE",
"148 345 CURVE SMOOTH",
"198 586 OFFCURVE",
"400 737 OFFCURVE",
"405 740 CURVE SMOOTH",
"414 745 OFFCURVE",
"420 754 OFFCURVE",
"420 766 CURVE SMOOTH",
"420 779 OFFCURVE",
"410 789 OFFCURVE",
"397 789 CURVE SMOOTH",
"391 789 OFFCURVE",
"384 786 OFFCURVE",
"372 777 CURVE SMOOTH",
"236 675 OFFCURVE",
"128 516 OFFCURVE",
"92 345 CURVE SMOOTH",
"82 297 OFFCURVE",
"78 253 OFFCURVE",
"78 212 CURVE SMOOTH",
"78 29 OFFCURVE",
"159 -85 OFFCURVE",
"170 -102 CURVE SMOOTH",
"174 -108 OFFCURVE",
"181 -114 OFFCURVE",
"193 -114 CURVE SMOOTH"
);
}
);
};
layerId = "ACFB53BD-70C1-480F-BE56-298851F5C10E";
paths = (
{
closed = 1;
nodes = (
"206 -114 OFFCURVE",
"223 -100 OFFCURVE",
"223 -85 CURVE SMOOTH",
"223 -76 OFFCURVE",
"221 -70 OFFCURVE",
"212 -57 CURVE SMOOTH",
"199 -38 OFFCURVE",
"134 58 OFFCURVE",
"134 224 CURVE SMOOTH",
"134 438 OFFCURVE",
"265 622 OFFCURVE",
"396 733 CURVE SMOOTH",
"412 747 OFFCURVE",
"420 755 OFFCURVE",
"420 766 CURVE SMOOTH",
"420 779 OFFCURVE",
"409 789 OFFCURVE",
"396 789 CURVE SMOOTH",
"390 789 OFFCURVE",
"383 786 OFFCURVE",
"370 776 CURVE SMOOTH",
"198 643 OFFCURVE",
"77 432 OFFCURVE",
"77 212 CURVE SMOOTH",
"77 34 OFFCURVE",
"160 -88 OFFCURVE",
"166 -97 CURVE SMOOTH",
"173 -108 OFFCURVE",
"182 -114 OFFCURVE",
"192 -114 CURVE SMOOTH"
);
}
);
userData = {
com.fontlab.hintData = {
vhints = (
{
position = 70;
width = 57;
}
);
};
};
width = 344;
},
{
background = {
paths = (
{
closed = 1;
nodes = (
"222 -104 OFFCURVE",
"251 -83 OFFCURVE",
"257 -57 CURVE SMOOTH",
"258 -53 OFFCURVE",
"258 -50 OFFCURVE",
"258 -47 CURVE SMOOTH",
"258 -37 OFFCURVE",
"255 -28 OFFCURVE",
"249 -21 CURVE SMOOTH",
"207 28 OFFCURVE",
"175 124 OFFCURVE",
"175 233 CURVE SMOOTH",
"175 266 OFFCURVE",
"179 301 OFFCURVE",
"186 336 CURVE SMOOTH",
"213 471 OFFCURVE",
"309 609 OFFCURVE",
"406 676 CURVE",
"422 686 OFFCURVE",
"429 699 OFFCURVE",
"432 713 CURVE SMOOTH",
"433 717 OFFCURVE",
"433 720 OFFCURVE",
"433 723 CURVE SMOOTH",
"433 745 OFFCURVE",
"417 762 OFFCURVE",
"395 762 CURVE SMOOTH",
"385 762 OFFCURVE",
"372 757 OFFCURVE",
"355 744 CURVE SMOOTH",
"227 646 OFFCURVE",
"123 497 OFFCURVE",
"90 336 CURVE SMOOTH",
"81 292 OFFCURVE",
"77 250 OFFCURVE",
"77 212 CURVE SMOOTH",
"77 54 OFFCURVE",
"143 -53 OFFCURVE",
"162 -84 CURVE SMOOTH",
"168 -94 OFFCURVE",
"179 -104 OFFCURVE",
"199 -104 CURVE SMOOTH"
);
}
);
};
layerId = "140D7E2C-8008-49AA-8FE3-CF6E53AFBA7D";
paths = (
{
closed = 1;
nodes = (
"224 -104 OFFCURVE",
"258 -79 OFFCURVE",
"258 -47 CURVE SMOOTH",
"258 -38 OFFCURVE",
"256 -32 OFFCURVE",
"248 -21 CURVE SMOOTH",
"210 30 OFFCURVE",
"175 126 OFFCURVE",
"175 233 CURVE SMOOTH",
"175 399 OFFCURVE",
"272 577 OFFCURVE",
"396 670 CURVE SMOOTH",
"423 690 OFFCURVE",
"433 704 OFFCURVE",
"433 723 CURVE SMOOTH",
"433 745 OFFCURVE",
"416 762 OFFCURVE",
"394 762 CURVE SMOOTH",
"384 762 OFFCURVE",
"365 754 OFFCURVE",
"325 722 CURVE SMOOTH",
"189 611 OFFCURVE",
"76 419 OFFCURVE",
"76 212 CURVE SMOOTH",
"76 54 OFFCURVE",
"142 -53 OFFCURVE",
"161 -83 CURVE SMOOTH",
"168 -94 OFFCURVE",
"178 -104 OFFCURVE",
"198 -104 CURVE SMOOTH"
);
}
);
userData = {
com.fontlab.hintData = {
vhints = (
{
position = 62;
width = 99;
}
);
};
};
width = 357;
}
);
unicode = 0028;
},
{
color = 5;
glyphname = parenright;
lastChange = "2020-01-29 00:53:45 +0000";
layers = (
{
background = {
paths = (
{
closed = 1;
nodes = (
"-3 -119 OFFCURVE",
"6 -114 OFFCURVE",
"10 -110 CURVE SMOOTH",
"54 -68 OFFCURVE",
"234 103 OFFCURVE",
"286 349 CURVE SMOOTH",
"294 387 OFFCURVE",
"298 425 OFFCURVE",
"298 463 CURVE SMOOTH",
"298 589 OFFCURVE",
"255 706 OFFCURVE",
"187 792 CURVE SMOOTH",
"184 796 OFFCURVE",
"178 802 OFFCURVE",
"172 802 CURVE SMOOTH",
"162 802 OFFCURVE",
"152 793 OFFCURVE",
"150 783 CURVE SMOOTH",
"149 780 OFFCURVE",
"150 773 OFFCURVE",
"153 769 CURVE SMOOTH",
"156 766 OFFCURVE",
"260 652 OFFCURVE",
"260 463 CURVE SMOOTH",
"260 427 OFFCURVE",
"257 389 OFFCURVE",
"248 349 CURVE SMOOTH",
"192 88 OFFCURVE",
"-12 -83 OFFCURVE",
"-15 -86 CURVE SMOOTH",
"-18 -88 OFFCURVE",
"-23 -97 OFFCURVE",
"-24 -101 CURVE SMOOTH",
"-26 -110 OFFCURVE",
"-19 -119 OFFCURVE",
"-10 -119 CURVE SMOOTH"
);
}
);
};
layerId = master01;
paths = (
{
closed = 1;
nodes = (
"-4 -119 OFFCURVE",
"4 -116 OFFCURVE",
"12 -109 CURVE SMOOTH",
"54 -68 OFFCURVE",
"234 103 OFFCURVE",
"286 349 CURVE SMOOTH",
"318 503 OFFCURVE",
"283 670 OFFCURVE",
"187 792 CURVE SMOOTH",
"184 796 OFFCURVE",
"178 802 OFFCURVE",
"172 802 CURVE SMOOTH",
"162 802 OFFCURVE",
"152 793 OFFCURVE",
"150 783 CURVE SMOOTH",
"149 780 OFFCURVE",
"150 773 OFFCURVE",
"153 769 CURVE SMOOTH",
"248 674 OFFCURVE",
"278 470 OFFCURVE",
"248 349 CURVE SMOOTH",
"192 115 OFFCURVE",
"53 -24 OFFCURVE",
"-8 -79 CURVE SMOOTH",
"-18 -88 OFFCURVE",
"-23 -95 OFFCURVE",
"-24 -101 CURVE SMOOTH",
"-26 -110 OFFCURVE",
"-19 -119 OFFCURVE",
"-10 -119 CURVE SMOOTH"
);
}
);
userData = {
com.fontlab.hintData = {
vhints = (
{
position = 346;
width = 37;
}
);
};
};
width = 334;
},
{
background = {
paths = (
{
closed = 1;
nodes = (
"12 -114 OFFCURVE",
"21 -108 OFFCURVE",
"27 -102 CURVE SMOOTH",
"49 -80 OFFCURVE",
"238 85 OFFCURVE",
"295 345 CURVE SMOOTH",
"304 386 OFFCURVE",
"308 427 OFFCURVE",
"308 466 CURVE SMOOTH",
"308 589 OFFCURVE",
"269 699 OFFCURVE",
"199 777 CURVE SMOOTH",
"191 786 OFFCURVE",
"184 789 OFFCURVE",
"178 789 CURVE SMOOTH",
"163 789 OFFCURVE",
"149 776 OFFCURVE",
"145 761 CURVE SMOOTH",
"143 753 OFFCURVE",
"144 746 OFFCURVE",
"150 740 CURVE SMOOTH",
"153 737 OFFCURVE",
"250 630 OFFCURVE",
"250 451 CURVE SMOOTH",
"250 418 OFFCURVE",
"247 383 OFFCURVE",
"239 345 CURVE SMOOTH",
"188 101 OFFCURVE",
"-5 -63 OFFCURVE",
"-8 -66 CURVE SMOOTH",
"-16 -74 OFFCURVE",
"-22 -81 OFFCURVE",
"-22 -92 CURVE SMOOTH",
"-22 -104 OFFCURVE",
"-12 -114 OFFCURVE",
"0 -114 CURVE SMOOTH"
);
}
);
};
layerId = "ACFB53BD-70C1-480F-BE56-298851F5C10E";
paths = (
{
closed = 1;
nodes = (
"16 -115 OFFCURVE",
"25 -109 OFFCURVE",
"36 -98 CURVE SMOOTH",
"191 53 OFFCURVE",
"307 229 OFFCURVE",
"307 466 CURVE SMOOTH",
"307 578 OFFCURVE",
"273 685 OFFCURVE",
"200 775 CURVE SMOOTH",
"191 786 OFFCURVE",
"182 789 OFFCURVE",
"174 789 CURVE SMOOTH",
"162 789 OFFCURVE",
"146 777 OFFCURVE",
"146 758 CURVE SMOOTH",
"146 751 OFFCURVE",
"149 744 OFFCURVE",
"156 735 CURVE SMOOTH",
"222 651 OFFCURVE",
"249 550 OFFCURVE",
"249 450 CURVE SMOOTH",
"249 248 OFFCURVE",
"137 78 OFFCURVE",
"6 -53 CURVE SMOOTH",
"-16 -74 OFFCURVE",
"-22 -83 OFFCURVE",
"-22 -93 CURVE SMOOTH",
"-22 -105 OFFCURVE",
"-12 -115 OFFCURVE",
"0 -115 CURVE SMOOTH"
);
}
);
userData = {
com.fontlab.hintData = {
vhints = (
{
position = 277;
width = 57;
}
);
};
};
width = 343;
},
{
background = {
paths = (
{
closed = 1;
nodes = (
"32 -104 OFFCURVE",
"46 -94 OFFCURVE",
"57 -84 CURVE SMOOTH",
"98 -46 OFFCURVE",
"261 110 OFFCURVE",
"307 336 CURVE SMOOTH",
"315 375 OFFCURVE",
"319 413 OFFCURVE",
"319 450 CURVE SMOOTH",
"319 565 OFFCURVE",
"281 668 OFFCURVE",
"216 744 CURVE SMOOTH",
"205 757 OFFCURVE",
"194 762 OFFCURVE",
"184 762 CURVE SMOOTH",
"158 762 OFFCURVE",
"133 738 OFFCURVE",
"125 713 CURVE SMOOTH",
"124 710 OFFCURVE",
"124 706 OFFCURVE",
"124 703 CURVE SMOOTH",
"124 693 OFFCURVE",
"127 684 OFFCURVE",
"135 676 CURVE SMOOTH",
"187 624 OFFCURVE",
"221 532 OFFCURVE",
"221 431 CURVE SMOOTH",
"221 400 OFFCURVE",
"218 368 OFFCURVE",
"211 336 CURVE SMOOTH",
"178 184 OFFCURVE",
"77 46 OFFCURVE",
"-4 -21 CURVE SMOOTH",
"-16 -31 OFFCURVE",
"-21 -43 OFFCURVE",
"-26 -57 CURVE SMOOTH",
"-27 -60 OFFCURVE",
"-27 -63 OFFCURVE",
"-27 -66 CURVE SMOOTH",
"-27 -88 OFFCURVE",
"-8 -104 OFFCURVE",
"12 -104 CURVE SMOOTH"
);
}
);
};
layerId = "140D7E2C-8008-49AA-8FE3-CF6E53AFBA7D";
paths = (
{
closed = 1;
nodes = (
"32 -104 OFFCURVE",
"46 -94 OFFCURVE",
"57 -84 CURVE SMOOTH",
"197 51 OFFCURVE",
"319 236 OFFCURVE",
"319 450 CURVE SMOOTH",
"319 566 OFFCURVE",
"280 669 OFFCURVE",
"219 741 CURVE SMOOTH",
"207 755 OFFCURVE",
"196 762 OFFCURVE",
"184 762 CURVE SMOOTH",
"154 762 OFFCURVE",
"124 732 OFFCURVE",
"124 703 CURVE SMOOTH",
"124 691 OFFCURVE",
"129 682 OFFCURVE",
"138 673 CURVE SMOOTH",
"188 623 OFFCURVE",
"221 531 OFFCURVE",
"221 431 CURVE SMOOTH",
"221 267 OFFCURVE",
"119 84 OFFCURVE",
"-2 -19 CURVE SMOOTH",
"-17 -32 OFFCURVE",
"-27 -50 OFFCURVE",
"-27 -66 CURVE SMOOTH",
"-27 -89 OFFCURVE",
"-8 -104 OFFCURVE",
"12 -104 CURVE SMOOTH"
);
}
);
userData = {
com.fontlab.hintData = {
vhints = (
{
position = 251;
width = 98;
}
);
};
};
width = 358;
}
);
unicode = 0029;
},
{
color = 5;
glyphname = asterisk;
lastChange = "2020-01-29 02:27:13 +0000";
layers = (
{
background = {
paths = (
{
closed = 1;
nodes = (
"-147 451 OFFCURVE",
"-136 454 OFFCURVE",
"-128 462 CURVE SMOOTH",
"-108 484 LINE SMOOTH",
"-89 505 OFFCURVE",
"-74 526 OFFCURVE",
"-54 559 CURVE",
"-48 527 OFFCURVE",
"-41 505 OFFCURVE",
"-31 484 CURVE SMOOTH",
"-21 463 LINE SMOOTH",
"-16 453 OFFCURVE",
"-6 451 OFFCURVE",
"4 457 CURVE SMOOTH",
"14 463 OFFCURVE",
"18 474 OFFCURVE",
"12 484 CURVE SMOOTH",
"0 504 LINE SMOOTH",
"-12 524 OFFCURVE",
"-25 541 OFFCURVE",
"-47 563 CURVE",
"-12 565 OFFCURVE",
"14 570 OFFCURVE",
"41 577 CURVE SMOOTH",
"67 584 LINE SMOOTH",
"79 587 OFFCURVE",
"86 599 OFFCURVE",
"86 608 CURVE SMOOTH",
"86 618 OFFCURVE",
"74 623 OFFCURVE",
"63 619 CURVE SMOOTH",
"37 610 LINE SMOOTH",
"12 601 OFFCURVE",
"-10 592 OFFCURVE",
"-47 571 CURVE",
"-31 605 OFFCURVE",
"-22 630 OFFCURVE",
"-16 655 CURVE SMOOTH",
"-10 681 LINE SMOOTH",
"-7 693 OFFCURVE",
"-15 701 OFFCURVE",
"-24 701 CURVE SMOOTH",
"-34 701 OFFCURVE",
"-44 693 OFFCURVE",
"-46 681 CURVE SMOOTH",
"-50 655 LINE SMOOTH",
"-54 629 OFFCURVE",
"-58 605 OFFCURVE",
"-56 571 CURVE",
"-82 590 OFFCURVE",
"-101 601 OFFCURVE",
"-122 609 CURVE SMOOTH",
"-145 618 LINE SMOOTH",
"-156 622 OFFCURVE",
"-167 617 OFFCURVE",
"-172 607 CURVE SMOOTH",
"-177 598 OFFCURVE",
"-174 587 OFFCURVE",
"-164 584 CURVE SMOOTH",
"-140 577 LINE SMOOTH",
"-118 571 OFFCURVE",
"-98 566 OFFCURVE",
"-60 563 CURVE",
"-92 541 OFFCURVE",
"-112 525 OFFCURVE",
"-132 504 CURVE SMOOTH",
"-152 483 LINE SMOOTH",
"-161 474 OFFCURVE",
"-161 462 OFFCURVE",
"-155 457 CURVE SMOOTH"
);
},
{
closed = 1;
nodes = (
"160 453 OFFCURVE",
"167 456 OFFCURVE",
"174 464 CURVE SMOOTH",
"192 484 LINE SMOOTH",
"211 505 OFFCURVE",
"226 526 OFFCURVE",
"246 559 CURVE",
"252 527 OFFCURVE",
"257 512 OFFCURVE",
"266 491 CURVE SMOOTH",
"269 484 OFFCURVE",
"272 477 OFFCURVE",
"277 467 CURVE SMOOTH",
"282 457 OFFCURVE",
"286 454 OFFCURVE",
"293 454 CURVE SMOOTH",
"304 454 OFFCURVE",
"315 463 OFFCURVE",
"315 474 CURVE SMOOTH",
"315 478 OFFCURVE",
"314 481 OFFCURVE",
"306 494 CURVE SMOOTH",
"294 514 LINE SMOOTH",
"288 524 OFFCURVE",
"275 541 OFFCURVE",
"253 563 CURVE",
"288 565 OFFCURVE",
"314 570 OFFCURVE",
"341 577 CURVE SMOOTH",
"367 584 LINE SMOOTH",
"379 587 OFFCURVE",
"386 598 OFFCURVE",
"386 607 CURVE SMOOTH",
"386 614 OFFCURVE",
"381 620 OFFCURVE",
"371 620 CURVE SMOOTH",
"365 620 OFFCURVE",
"355 617 OFFCURVE",
"336 610 CURVE SMOOTH",
"315 602 LINE SMOOTH",
"297 595 OFFCURVE",
"280 586 OFFCURVE",
"253 571 CURVE",
"269 605 OFFCURVE",
"277 630 OFFCURVE",
"283 650 CURVE SMOOTH",
"287 664 OFFCURVE",
"291 679 OFFCURVE",
"291 685 CURVE SMOOTH",
"291 693 OFFCURVE",
"285 701 OFFCURVE",
"276 701 CURVE SMOOTH",
"266 701 OFFCURVE",
"256 693 OFFCURVE",
"254 681 CURVE SMOOTH",
"250 655 LINE SMOOTH",
"246 629 OFFCURVE",
"242 605 OFFCURVE",
"244 571 CURVE",
"218 590 OFFCURVE",
"199 600 OFFCURVE",
"181 608 CURVE SMOOTH",
"170 613 OFFCURVE",
"156 619 OFFCURVE",
"146 619 CURVE SMOOTH",
"135 619 OFFCURVE",
"126 610 OFFCURVE",
"126 598 CURVE SMOOTH",
"126 591 OFFCURVE",
"130 585 OFFCURVE",
"140 582 CURVE SMOOTH",
"160 577 LINE SMOOTH",
"182 571 OFFCURVE",
"202 566 OFFCURVE",
"240 563 CURVE",
"208 541 OFFCURVE",
"188 525 OFFCURVE",
"168 504 CURVE SMOOTH",
"148 483 LINE SMOOTH",
"143 478 OFFCURVE",
"140 472 OFFCURVE",
"140 467 CURVE SMOOTH",
"140 459 OFFCURVE",
"146 453 OFFCURVE",
"154 453 CURVE SMOOTH"
);
},
{
closed = 1;
nodes = (
"166 453 OFFCURVE",
"177 466 OFFCURVE",
"194 486 CURVE SMOOTH",
"211 506 OFFCURVE",
"226 524 OFFCURVE",
"246 557 CURVE",
"252 525 OFFCURVE",
"259 513 OFFCURVE",
"267 488 CURVE SMOOTH",
"274 467 OFFCURVE",
"283 454 OFFCURVE",
"294 454 CURVE SMOOTH",
"304 454 OFFCURVE",
"314 463 OFFCURVE",
"314 474 CURVE SMOOTH",
"314 481 OFFCURVE",
"305 496 OFFCURVE",
"296 511 CURVE SMOOTH",
"288 524 OFFCURVE",
"277 540 OFFCURVE",
"255 562 CURVE",
"290 564 OFFCURVE",
"314 569 OFFCURVE",
"347 578 CURVE SMOOTH",
"374 585 OFFCURVE",
"386 594 OFFCURVE",
"386 606 CURVE SMOOTH",
"386 614 OFFCURVE",
"381 620 OFFCURVE",
"371 620 CURVE SMOOTH",
"361 620 OFFCURVE",
"344 615 OFFCURVE",
"323 607 CURVE SMOOTH",
"296 597 OFFCURVE",
"282 588 OFFCURVE",
"255 573 CURVE",
"271 607 OFFCURVE",
"280 638 OFFCURVE",
"286 658 CURVE SMOOTH",
"295 691 OFFCURVE",
"289 701 OFFCURVE",
"276 701 CURVE SMOOTH",
"261 701 OFFCURVE",
"254 688 OFFCURVE",
"249 659 CURVE SMOOTH",
"244 629 OFFCURVE",
"241 607 OFFCURVE",
"243 573 CURVE",
"217 592 OFFCURVE",
"199 600 OFFCURVE",
"181 608 CURVE SMOOTH",
"170 613 OFFCURVE",
"156 619 OFFCURVE",
"146 619 CURVE SMOOTH",
"135 619 OFFCURVE",
"126 610 OFFCURVE",
"126 600 CURVE SMOOTH",
"126 589 OFFCURVE",
"133 584 OFFCURVE",
"155 578 CURVE SMOOTH",
"182 571 OFFCURVE",
"200 565 OFFCURVE",
"238 562 CURVE",
"206 540 OFFCURVE",
"189 527 OFFCURVE",
"170 508 CURVE SMOOTH",
"151 489 OFFCURVE",
"140 476 OFFCURVE",
"140 467 CURVE SMOOTH",
"140 459 OFFCURVE",
"146 453 OFFCURVE",
"154 453 CURVE SMOOTH"
);
}
);
};
layerId = master01;
paths = (
{
closed = 1;
nodes = (
"166 453 OFFCURVE",
"177 466 OFFCURVE",
"194 486 CURVE SMOOTH",
"211 506 OFFCURVE",
"226 524 OFFCURVE",
"246 557 CURVE",
"252 525 OFFCURVE",
"259 513 OFFCURVE",
"267 488 CURVE SMOOTH",
"274 467 OFFCURVE",
"283 454 OFFCURVE",
"294 454 CURVE SMOOTH",
"304 454 OFFCURVE",
"314 463 OFFCURVE",
"314 474 CURVE SMOOTH",
"314 481 OFFCURVE",
"305 496 OFFCURVE",
"296 511 CURVE SMOOTH",
"288 524 OFFCURVE",
"277 540 OFFCURVE",
"255 562 CURVE",
"290 564 OFFCURVE",
"314 569 OFFCURVE",
"347 578 CURVE SMOOTH",
"374 585 OFFCURVE",
"386 594 OFFCURVE",
"386 606 CURVE SMOOTH",
"386 614 OFFCURVE",
"381 620 OFFCURVE",
"371 620 CURVE SMOOTH",
"343 620 OFFCURVE",
"291 593 OFFCURVE",
"255 573 CURVE",
"271 607 OFFCURVE",
"280 638 OFFCURVE",
"286 658 CURVE SMOOTH",
"295 691 OFFCURVE",
"289 701 OFFCURVE",
"276 701 CURVE SMOOTH",
"261 701 OFFCURVE",
"254 688 OFFCURVE",
"249 659 CURVE SMOOTH",
"244 629 OFFCURVE",
"241 607 OFFCURVE",
"243 573 CURVE",
"217 592 OFFCURVE",
"199 600 OFFCURVE",
"181 608 CURVE SMOOTH",
"170 613 OFFCURVE",
"156 619 OFFCURVE",
"146 619 CURVE SMOOTH",
"135 619 OFFCURVE",
"126 610 OFFCURVE",
"126 600 CURVE SMOOTH",
"126 589 OFFCURVE",
"133 584 OFFCURVE",
"155 578 CURVE SMOOTH",
"182 571 OFFCURVE",
"200 565 OFFCURVE",
"238 562 CURVE",
"206 540 OFFCURVE",
"189 527 OFFCURVE",
"170 508 CURVE SMOOTH",
"151 489 OFFCURVE",
"140 476 OFFCURVE",
"140 467 CURVE SMOOTH",
"140 459 OFFCURVE",
"146 453 OFFCURVE",
"154 453 CURVE SMOOTH"
);
}
);
userData = {
com.fontlab.hintData = {
hhints = (
{
position = 457;
width = 241;
}
);
vhints = (
{
position = 316;
width = 36;
}
);
};
};
width = 359;
},
{
background = {
paths = (
{
closed = 1;
nodes = (
"-487 447 OFFCURVE",
"-480 450 OFFCURVE",
"-473 456 CURVE SMOOTH",
"-430 494 LINE SMOOTH",
"-417 506 OFFCURVE",
"-393 535 OFFCURVE",
"-393 535 CURVE",
"-393 535 OFFCURVE",
"-383 506 OFFCURVE",
"-374 494 CURVE SMOOTH",
"-347 456 LINE",
"-344 450 OFFCURVE",
"-337 447 OFFCURVE",
"-330 447 CURVE SMOOTH",
"-317 447 OFFCURVE",
"-303 458 OFFCURVE",
"-298 474 CURVE SMOOTH",
"-296 481 OFFCURVE",
"-297 488 OFFCURVE",
"-301 494 CURVE SMOOTH",
"-326 529 LINE SMOOTH",
"-336 544 OFFCURVE",
"-355 559 OFFCURVE",
"-355 559 CURVE",
"-355 559 OFFCURVE",
"-322 565 OFFCURVE",
"-305 573 CURVE SMOOTH",
"-269 590 LINE SMOOTH",
"-259 595 OFFCURVE",
"-250 604 OFFCURVE",
"-250 614 CURVE SMOOTH",
"-250 616 OFFCURVE",
"-249 617 OFFCURVE",
"-249 619 CURVE SMOOTH",
"-249 630 OFFCURVE",
"-257 640 OFFCURVE",
"-270 640 CURVE SMOOTH",
"-276 640 OFFCURVE",
"-280 639 OFFCURVE",
"-285 637 CURVE SMOOTH",
"-316 623 LINE SMOOTH",
"-332 616 OFFCURVE",
"-358 597 OFFCURVE",
"-358 597 CURVE",
"-358 597 OFFCURVE",
"-346 626 OFFCURVE",
"-343 644 CURVE SMOOTH",
"-338 671 LINE",
"-337 673 OFFCURVE",
"-337 675 OFFCURVE",
"-337 678 CURVE SMOOTH",
"-337 689 OFFCURVE",
"-346 698 OFFCURVE",
"-359 698 CURVE SMOOTH",
"-374 698 OFFCURVE",
"-388 686 OFFCURVE",
"-392 671 CURVE",
"-397 644 LINE SMOOTH",
"-400 626 OFFCURVE",
"-402 597 OFFCURVE",
"-402 597 CURVE",
"-402 597 OFFCURVE",
"-420 615 OFFCURVE",
"-434 623 CURVE SMOOTH",
"-459 637 LINE SMOOTH",
"-462 639 OFFCURVE",
"-466 640 OFFCURVE",
"-472 640 CURVE SMOOTH",
"-487 640 OFFCURVE",
"-502 626 OFFCURVE",
"-504 614 CURVE SMOOTH",
"-506 604 OFFCURVE",
"-503 595 OFFCURVE",
"-495 590 CURVE SMOOTH",
"-465 573 LINE SMOOTH",
"-452 565 OFFCURVE",
"-421 559 OFFCURVE",
"-421 559 CURVE",
"-421 559 OFFCURVE",
"-448 544 OFFCURVE",
"-464 529 CURVE SMOOTH",
"-503 494 LINE SMOOTH",
"-509 488 OFFCURVE",
"-514 481 OFFCURVE",
"-514 474 CURVE SMOOTH",
"-514 472 OFFCURVE",
"-515 470 OFFCURVE",
"-515 468 CURVE SMOOTH",
"-515 455 OFFCURVE",
"-505 447 OFFCURVE",
"-494 447 CURVE SMOOTH"
);
},
{
closed = 1;
nodes = (
"-486 447 OFFCURVE",
"-477 449 OFFCURVE",
"-465 460 CURVE SMOOTH",
"-428 494 LINE SMOOTH",
"-415 506 OFFCURVE",
"-399 525 OFFCURVE",
"-391 535 CURVE",
"-387 523 OFFCURVE",
"-380 506 OFFCURVE",
"-372 494 CURVE SMOOTH",
"-364 482 OFFCURVE",
"-358 473 OFFCURVE",
"-350 462 CURVE SMOOTH",
"-343 452 OFFCURVE",
"-336 447 OFFCURVE",
"-328 447 CURVE SMOOTH",
"-316 447 OFFCURVE",
"-297 463 OFFCURVE",
"-297 479 CURVE SMOOTH",
"-297 488 OFFCURVE",
"-300 494 OFFCURVE",
"-309 506 CURVE SMOOTH",
"-326 529 LINE SMOOTH",
"-337 544 OFFCURVE",
"-348 553 OFFCURVE",
"-355 559 CURVE",
"-335 561 OFFCURVE",
"-317 567 OFFCURVE",
"-305 573 CURVE SMOOTH",
"-269 590 LINE SMOOTH",
"-261 594 OFFCURVE",
"-249 604 OFFCURVE",
"-249 619 CURVE SMOOTH",
"-249 629 OFFCURVE",
"-257 640 OFFCURVE",
"-270 640 CURVE SMOOTH",
"-276 640 OFFCURVE",
"-284 638 OFFCURVE",
"-294 633 CURVE SMOOTH",
"-316 623 LINE SMOOTH",
"-332 616 OFFCURVE",
"-348 604 OFFCURVE",
"-358 597 CURVE",
"-355 605 OFFCURVE",
"-347 624 OFFCURVE",
"-343 642 CURVE SMOOTH",
"-340 655 OFFCURVE",
"-337 672 OFFCURVE",
"-337 682 CURVE SMOOTH",
"-337 693 OFFCURVE",
"-347 702 OFFCURVE",
"-359 702 CURVE SMOOTH",
"-374 702 OFFCURVE",
"-390 690 OFFCURVE",
"-392 675 CURVE SMOOTH",
"-397 644 LINE SMOOTH",
"-400 626 OFFCURVE",
"-401 610 OFFCURVE",
"-402 597 CURVE",
"-411 606 OFFCURVE",
"-420 614 OFFCURVE",
"-434 623 CURVE SMOOTH",
"-456 637 OFFCURVE",
"-464 640 OFFCURVE",
"-472 640 CURVE SMOOTH",
"-491 640 OFFCURVE",
"-505 621 OFFCURVE",
"-505 608 CURVE SMOOTH",
"-505 599 OFFCURVE",
"-500 592 OFFCURVE",
"-487 585 CURVE SMOOTH",
"-468 575 LINE SMOOTH",
"-452 566 OFFCURVE",
"-434 561 OFFCURVE",
"-421 559 CURVE",
"-434 551 OFFCURVE",
"-450 542 OFFCURVE",
"-467 526 CURVE SMOOTH",
"-500 496 LINE SMOOTH",
"-510 487 OFFCURVE",
"-515 479 OFFCURVE",
"-515 468 CURVE SMOOTH",
"-515 455 OFFCURVE",
"-505 447 OFFCURVE",
"-494 447 CURVE SMOOTH"
);
},
{
closed = 1;
nodes = (
"-186 447 OFFCURVE",
"-177 449 OFFCURVE",
"-165 460 CURVE SMOOTH",
"-128 494 LINE SMOOTH",
"-115 506 OFFCURVE",
"-99 525 OFFCURVE",
"-91 535 CURVE",
"-87 523 OFFCURVE",
"-80 506 OFFCURVE",
"-72 494 CURVE SMOOTH",
"-64 482 OFFCURVE",
"-58 473 OFFCURVE",
"-50 462 CURVE SMOOTH",
"-43 452 OFFCURVE",
"-36 447 OFFCURVE",
"-28 447 CURVE SMOOTH",
"-16 447 OFFCURVE",
"3 463 OFFCURVE",
"3 479 CURVE SMOOTH",
"3 488 OFFCURVE",
"0 494 OFFCURVE",
"-9 506 CURVE SMOOTH",
"-26 529 LINE SMOOTH",
"-37 544 OFFCURVE",
"-48 553 OFFCURVE",
"-55 559 CURVE",
"-33 564 OFFCURVE",
"-17 567 OFFCURVE",
"11 580 CURVE SMOOTH",
"35 591 OFFCURVE",
"51 601 OFFCURVE",
"51 619 CURVE SMOOTH",
"51 629 OFFCURVE",
"43 640 OFFCURVE",
"30 640 CURVE SMOOTH",
"22 640 OFFCURVE",
"8 634 OFFCURVE",
"-6 628 CURVE SMOOTH",
"-19 622 OFFCURVE",
"-43 608 OFFCURVE",
"-58 597 CURVE",
"-55 605 OFFCURVE",
"-47 624 OFFCURVE",
"-41 649 CURVE SMOOTH",
"-33 681 OFFCURVE",
"-37 702 OFFCURVE",
"-60 702 CURVE SMOOTH",
"-81 702 OFFCURVE",
"-91 689 OFFCURVE",
"-96 653 CURVE SMOOTH",
"-100 626 OFFCURVE",
"-101 610 OFFCURVE",
"-102 597 CURVE",
"-111 606 OFFCURVE",
"-120 614 OFFCURVE",
"-134 623 CURVE SMOOTH",
"-156 637 OFFCURVE",
"-164 640 OFFCURVE",
"-172 640 CURVE SMOOTH",
"-191 640 OFFCURVE",
"-205 621 OFFCURVE",
"-205 608 CURVE SMOOTH",
"-205 596 OFFCURVE",
"-195 589 OFFCURVE",
"-176 579 CURVE SMOOTH",
"-152 566 OFFCURVE",
"-134 561 OFFCURVE",
"-121 559 CURVE",
"-134 551 OFFCURVE",
"-150 542 OFFCURVE",
"-167 526 CURVE SMOOTH",
"-200 496 LINE SMOOTH",
"-210 487 OFFCURVE",
"-215 479 OFFCURVE",
"-215 468 CURVE SMOOTH",
"-215 455 OFFCURVE",
"-205 447 OFFCURVE",
"-194 447 CURVE SMOOTH"
);
},
{
closed = 1;
nodes = (
"172 450 OFFCURVE",
"190 463 OFFCURVE",
"210 484 CURVE SMOOTH",
"227 501 OFFCURVE",
"240 521 OFFCURVE",
"249 537 CURVE",
"252 523 OFFCURVE",
"255 504 OFFCURVE",
"264 484 CURVE SMOOTH",
"276 461 OFFCURVE",
"285 450 OFFCURVE",
"302 450 CURVE SMOOTH",
"318 450 OFFCURVE",
"332 463 OFFCURVE",
"335 479 CURVE SMOOTH",
"338 492 OFFCURVE",
"334 507 OFFCURVE",
"317 526 CURVE SMOOTH",
"303 542 OFFCURVE",
"292 553 OFFCURVE",
"284 559 CURVE",
"308 563 OFFCURVE",
"322 563 OFFCURVE",
"350 572 CURVE SMOOTH",
"376 580 OFFCURVE",
"391 588 OFFCURVE",
"395 608 CURVE SMOOTH",
"398 623 OFFCURVE",
"389 636 OFFCURVE",
"372 636 CURVE SMOOTH",
"360 636 OFFCURVE",
"342 628 OFFCURVE",
"333 624 CURVE SMOOTH",
"318 617 OFFCURVE",
"297 604 OFFCURVE",
"279 592 CURVE",
"285 603 OFFCURVE",
"300 636 OFFCURVE",
"306 665 CURVE SMOOTH",
"311 689 OFFCURVE",
"300 702 OFFCURVE",
"283 702 CURVE SMOOTH",
"266 702 OFFCURVE",
"249 689 OFFCURVE",
"244 664 CURVE SMOOTH",
"238 635 OFFCURVE",
"238 604 OFFCURVE",
"242 592 CURVE",
"233 601 OFFCURVE",
"220 613 OFFCURVE",
"206 623 CURVE SMOOTH",
"194 632 OFFCURVE",
"182 637 OFFCURVE",
"168 637 CURVE SMOOTH",
"150 637 OFFCURVE",
"136 624 OFFCURVE",
"133 609 CURVE SMOOTH",
"130 594 OFFCURVE",
"137 581 OFFCURVE",
"163 573 CURVE SMOOTH",
"189 565 OFFCURVE",
"210 561 OFFCURVE",
"223 559 CURVE",
"207 550 OFFCURVE",
"186 537 OFFCURVE",
"165 518 CURVE SMOOTH",
"145 500 OFFCURVE",
"138 489 OFFCURVE",
"135 476 CURVE SMOOTH",
"132 461 OFFCURVE",
"142 450 OFFCURVE",
"157 450 CURVE SMOOTH"
);
},
{
closed = 1;
nodes = (
"175 450 OFFCURVE",
"188 461 OFFCURVE",
"209 482 CURVE SMOOTH",
"227 500 OFFCURVE",
"243 521 OFFCURVE",
"253 537 CURVE",
"256 523 OFFCURVE",
"262 504 OFFCURVE",
"270 484 CURVE SMOOTH",
"278 463 OFFCURVE",
"291 450 OFFCURVE",
"308 450 CURVE SMOOTH",
"324 450 OFFCURVE",
"339 464 OFFCURVE",
"339 479 CURVE SMOOTH",
"339 489 OFFCURVE",
"333 504 OFFCURVE",
"318 525 CURVE SMOOTH",
"304 544 OFFCURVE",
"293 553 OFFCURVE",
"286 559 CURVE",
"309 563 OFFCURVE",
"322 564 OFFCURVE",
"349 572 CURVE SMOOTH",
"375 580 OFFCURVE",
"392 588 OFFCURVE",
"394 607 CURVE SMOOTH",
"395 617 OFFCURVE",
"387 629 OFFCURVE",
"375 630 CURVE SMOOTH",
"367 631 OFFCURVE",
"351 630 OFFCURVE",
"337 624 CURVE SMOOTH",
"322 618 OFFCURVE",
"296 608 OFFCURVE",
"281 597 CURVE",
"284 605 OFFCURVE",
"293 626 OFFCURVE",
"300 652 CURVE SMOOTH",
"308 683 OFFCURVE",
"300 702 OFFCURVE",
"279 702 CURVE SMOOTH",
"257 702 OFFCURVE",
"246 687 OFFCURVE",
"242 656 CURVE SMOOTH",
"238 625 OFFCURVE",
"240 607 OFFCURVE",
"239 594 CURVE",
"230 604 OFFCURVE",
"219 613 OFFCURVE",
"199 624 CURVE SMOOTH",
"182 633 OFFCURVE",
"171 636 OFFCURVE",
"160 635 CURVE SMOOTH",
"145 634 OFFCURVE",
"132 620 OFFCURVE",
"132 606 CURVE SMOOTH",
"132 589 OFFCURVE",
"147 580 OFFCURVE",
"165 573 CURVE SMOOTH",
"187 564 OFFCURVE",
"209 561 OFFCURVE",
"222 559 CURVE",
"209 551 OFFCURVE",
"191 542 OFFCURVE",
"164 518 CURVE SMOOTH",
"144 500 OFFCURVE",
"134 487 OFFCURVE",
"134 472 CURVE SMOOTH",
"134 459 OFFCURVE",
"147 450 OFFCURVE",
"157 450 CURVE SMOOTH"
);
},
{
closed = 1;
nodes = (
"172 450 OFFCURVE",
"190 463 OFFCURVE",
"210 484 CURVE SMOOTH",
"227 501 OFFCURVE",
"240 521 OFFCURVE",
"249 537 CURVE",
"252 523 OFFCURVE",
"255 504 OFFCURVE",
"264 484 CURVE SMOOTH",
"276 461 OFFCURVE",
"285 450 OFFCURVE",
"302 450 CURVE SMOOTH",
"321 450 OFFCURVE",
"336 468 OFFCURVE",
"336 487 CURVE SMOOTH",
"336 498 OFFCURVE",
"331 511 OFFCURVE",
"317 526 CURVE SMOOTH",
"303 542 OFFCURVE",
"292 553 OFFCURVE",
"284 559 CURVE",
"308 562 OFFCURVE",
"325 564 OFFCURVE",
"351 572 CURVE SMOOTH",
"379 581 OFFCURVE",
"396 592 OFFCURVE",
"396 613 CURVE SMOOTH",
"396 625 OFFCURVE",
"389 636 OFFCURVE",
"372 636 CURVE SMOOTH",
"358 636 OFFCURVE",
"340 628 OFFCURVE",
"330 623 CURVE SMOOTH",
"317 617 OFFCURVE",
"297 604 OFFCURVE",
"279 592 CURVE",
"287 607 OFFCURVE",
"307 653 OFFCURVE",
"307 676 CURVE SMOOTH",
"307 693 OFFCURVE",
"297 702 OFFCURVE",
"283 702 CURVE SMOOTH",
"255 702 OFFCURVE",
"239 676 OFFCURVE",
"239 632 CURVE SMOOTH",
"239 613 OFFCURVE",
"241 602 OFFCURVE",
"242 592 CURVE",
"233 601 OFFCURVE",
"220 613 OFFCURVE",
"206 623 CURVE SMOOTH",
"194 632 OFFCURVE",
"182 637 OFFCURVE",
"168 637 CURVE SMOOTH",
"148 637 OFFCURVE",
"132 621 OFFCURVE",
"132 603 CURVE SMOOTH",
"132 590 OFFCURVE",
"141 580 OFFCURVE",
"163 573 CURVE SMOOTH",
"189 565 OFFCURVE",
"210 561 OFFCURVE",
"223 559 CURVE",
"207 550 OFFCURVE",
"186 537 OFFCURVE",
"165 518 CURVE SMOOTH",
"145 500 OFFCURVE",
"134 487 OFFCURVE",
"134 472 CURVE SMOOTH",
"134 460 OFFCURVE",
"144 450 OFFCURVE",
"157 450 CURVE SMOOTH"
);
}
);
};
layerId = "ACFB53BD-70C1-480F-BE56-298851F5C10E";
paths = (
{
closed = 1;
nodes = (
"172 450 OFFCURVE",
"190 463 OFFCURVE",
"210 484 CURVE SMOOTH",
"227 501 OFFCURVE",
"240 521 OFFCURVE",
"249 537 CURVE",
"252 523 OFFCURVE",
"255 504 OFFCURVE",
"264 484 CURVE SMOOTH",
"276 461 OFFCURVE",
"285 450 OFFCURVE",
"302 450 CURVE SMOOTH",
"321 450 OFFCURVE",
"336 468 OFFCURVE",
"336 487 CURVE SMOOTH",
"336 498 OFFCURVE",
"331 511 OFFCURVE",
"317 526 CURVE SMOOTH",
"303 542 OFFCURVE",
"292 553 OFFCURVE",
"284 559 CURVE",
"308 562 OFFCURVE",
"325 564 OFFCURVE",
"351 572 CURVE SMOOTH",
"379 581 OFFCURVE",
"396 592 OFFCURVE",
"396 613 CURVE SMOOTH",
"396 625 OFFCURVE",
"389 636 OFFCURVE",
"372 636 CURVE SMOOTH",
"348 636 OFFCURVE",
"313 615 OFFCURVE",
"279 592 CURVE",
"287 607 OFFCURVE",
"307 653 OFFCURVE",
"307 676 CURVE SMOOTH",
"307 693 OFFCURVE",
"297 702 OFFCURVE",
"283 702 CURVE SMOOTH",
"255 702 OFFCURVE",
"239 676 OFFCURVE",
"239 632 CURVE SMOOTH",
"239 613 OFFCURVE",
"241 602 OFFCURVE",
"242 592 CURVE",
"233 601 OFFCURVE",
"220 613 OFFCURVE",
"206 623 CURVE SMOOTH",
"194 632 OFFCURVE",
"182 637 OFFCURVE",
"168 637 CURVE SMOOTH",
"148 637 OFFCURVE",
"132 621 OFFCURVE",
"132 603 CURVE SMOOTH",
"132 590 OFFCURVE",
"141 580 OFFCURVE",
"163 573 CURVE SMOOTH",
"189 565 OFFCURVE",
"210 561 OFFCURVE",
"223 559 CURVE",
"207 550 OFFCURVE",
"186 537 OFFCURVE",
"165 518 CURVE SMOOTH",
"145 500 OFFCURVE",
"134 487 OFFCURVE",
"134 472 CURVE SMOOTH",
"134 460 OFFCURVE",
"144 450 OFFCURVE",
"157 450 CURVE SMOOTH"
);
}
);
userData = {
com.fontlab.hintData = {
hhints = (
{
position = 582;
width = 50;
},
{
position = 670;
width = 20;
}
);
vhints = (
{
position = 132;
width = 265;
}
);
};
};
width = 373;
},
{
background = {
paths = (
{
closed = 1;
nodes = (
"-507 415 OFFCURVE",
"-492 421 OFFCURVE",
"-480 434 CURVE SMOOTH",
"-463 452 LINE",
"-453 435 LINE SMOOTH",
"-446 423 OFFCURVE",
"-436 415 OFFCURVE",
"-420 415 CURVE SMOOTH",
"-394 415 OFFCURVE",
"-368 438 OFFCURVE",
"-363 462 CURVE SMOOTH",
"-361 472 OFFCURVE",
"-362 481 OFFCURVE",
"-366 490 CURVE SMOOTH",
"-374 508 LINE",
"-352 515 LINE SMOOTH",
"-331 522 OFFCURVE",
"-315 540 OFFCURVE",
"-310 560 CURVE SMOOTH",
"-309 564 OFFCURVE",
"-309 567 OFFCURVE",
"-309 570 CURVE SMOOTH",
"-309 592 OFFCURVE",
"-326 606 OFFCURVE",
"-347 606 CURVE SMOOTH",
"-351 606 OFFCURVE",
"-354 606 OFFCURVE",
"-362 604 CURVE SMOOTH",
"-385 597 LINE",
"-381 619 LINE SMOOTH",
"-380 623 OFFCURVE",
"-380 626 OFFCURVE",
"-380 629 CURVE SMOOTH",
"-380 650 OFFCURVE",
"-396 666 OFFCURVE",
"-418 666 CURVE SMOOTH",
"-444 666 OFFCURVE",
"-470 645 OFFCURVE",
"-475 619 CURVE SMOOTH",
"-479 597 LINE",
"-499 603 LINE SMOOTH",
"-506 605 OFFCURVE",
"-509 605 OFFCURVE",
"-514 605 CURVE SMOOTH",
"-537 605 OFFCURVE",
"-562 587 OFFCURVE",
"-569 559 CURVE SMOOTH",
"-570 555 OFFCURVE",
"-570 551 OFFCURVE",
"-570 547 CURVE SMOOTH",
"-570 532 OFFCURVE",
"-562 519 OFFCURVE",
"-547 514 CURVE SMOOTH",
"-527 507 LINE",
"-544 490 LINE SMOOTH",
"-552 482 OFFCURVE",
"-556 472 OFFCURVE",
"-559 463 CURVE SMOOTH",
"-560 460 OFFCURVE",
"-560 457 OFFCURVE",
"-560 454 CURVE SMOOTH",
"-560 433 OFFCURVE",
"-545 415 OFFCURVE",
"-521 415 CURVE SMOOTH"
);
},
{
closed = 1;
nodes = (
"-208 415 OFFCURVE",
"-192 421 OFFCURVE",
"-180 434 CURVE SMOOTH",
"-163 452 LINE",
"-152 435 LINE SMOOTH",
"-144 423 OFFCURVE",
"-135 415 OFFCURVE",
"-120 415 CURVE SMOOTH",
"-94 415 OFFCURVE",
"-62 441 OFFCURVE",
"-62 470 CURVE SMOOTH",
"-62 481 OFFCURVE",
"-65 488 OFFCURVE",
"-68 494 CURVE SMOOTH",
"-74 508 LINE",
"-51 515 LINE SMOOTH",
"-26 523 OFFCURVE",
"-9 547 OFFCURVE",
"-9 570 CURVE SMOOTH",
"-9 592 OFFCURVE",
"-26 606 OFFCURVE",
"-47 606 CURVE SMOOTH",
"-57 606 OFFCURVE",
"-70 602 OFFCURVE",
"-85 597 CURVE",
"-83 609 OFFCURVE",
"-80 621 OFFCURVE",
"-80 629 CURVE SMOOTH",
"-80 650 OFFCURVE",
"-96 666 OFFCURVE",
"-119 666 CURVE SMOOTH",
"-145 666 OFFCURVE",
"-170 645 OFFCURVE",
"-175 619 CURVE SMOOTH",
"-179 597 LINE",
"-192 601 OFFCURVE",
"-200 605 OFFCURVE",
"-214 605 CURVE SMOOTH",
"-241 605 OFFCURVE",
"-270 580 OFFCURVE",
"-270 547 CURVE SMOOTH",
"-270 533 OFFCURVE",
"-262 519 OFFCURVE",
"-247 514 CURVE SMOOTH",
"-227 507 LINE",
"-244 490 LINE SMOOTH",
"-255 479 OFFCURVE",
"-260 467 OFFCURVE",
"-260 454 CURVE SMOOTH",
"-260 433 OFFCURVE",
"-244 415 OFFCURVE",
"-221 415 CURVE SMOOTH"
);
},
{
closed = 1;
nodes = (
"-272 379 OFFCURVE",
"-261 383 OFFCURVE",
"-249 393 CURVE SMOOTH",
"-198 439 LINE SMOOTH",
"-182 454 OFFCURVE",
"-162 478 OFFCURVE",
"-151 491 CURVE",
"-146 476 OFFCURVE",
"-137 454 OFFCURVE",
"-127 439 CURVE SMOOTH",
"-117 424 OFFCURVE",
"-110 412 OFFCURVE",
"-99 398 CURVE SMOOTH",
"-89 386 OFFCURVE",
"-82 379 OFFCURVE",
"-71 379 CURVE SMOOTH",
"-56 379 OFFCURVE",
"-32 399 OFFCURVE",
"-32 420 CURVE SMOOTH",
"-32 426 OFFCURVE",
"-32 432 OFFCURVE",
"-38 441 CURVE SMOOTH",
"-69 483 LINE SMOOTH",
"-83 502 OFFCURVE",
"-97 514 OFFCURVE",
"-106 521 CURVE",
"-80 524 OFFCURVE",
"-57 532 OFFCURVE",
"-42 539 CURVE SMOOTH",
"4 561 LINE SMOOTH",
"14 566 OFFCURVE",
"29 579 OFFCURVE",
"29 598 CURVE SMOOTH",
"29 610 OFFCURVE",
"19 624 OFFCURVE",
"2 624 CURVE SMOOTH",
"-5 624 OFFCURVE",
"-14 621 OFFCURVE",
"-28 615 CURVE SMOOTH",
"-56 603 LINE SMOOTH",
"-76 594 OFFCURVE",
"-97 579 OFFCURVE",
"-110 570 CURVE",
"-106 580 OFFCURVE",
"-96 604 OFFCURVE",
"-90 627 CURVE SMOOTH",
"-86 642 OFFCURVE",
"-83 660 OFFCURVE",
"-83 673 CURVE SMOOTH",
"-83 687 OFFCURVE",
"-96 698 OFFCURVE",
"-111 698 CURVE SMOOTH",
"-130 698 OFFCURVE",
"-150 683 OFFCURVE",
"-153 664 CURVE SMOOTH",
"-159 629 LINE SMOOTH",
"-163 606 OFFCURVE",
"-164 586 OFFCURVE",
"-165 570 CURVE",
"-177 581 OFFCURVE",
"-188 593 OFFCURVE",
"-206 603 CURVE SMOOTH",
"-231 617 LINE SMOOTH",
"-238 621 OFFCURVE",
"-245 624 OFFCURVE",
"-254 624 CURVE SMOOTH",
"-278 624 OFFCURVE",
"-296 600 OFFCURVE",
"-296 584 CURVE SMOOTH",
"-296 572 OFFCURVE",
"-290 564 OFFCURVE",
"-281 559 CURVE SMOOTH",
"-245 539 LINE SMOOTH",
"-229 530 OFFCURVE",
"-206 524 OFFCURVE",
"-190 521 CURVE",
"-201 514 OFFCURVE",
"-223 501 OFFCURVE",
"-244 483 CURVE SMOOTH",
"-294 439 LINE SMOOTH",
"-304 431 OFFCURVE",
"-309 420 OFFCURVE",
"-309 406 CURVE SMOOTH",
"-309 389 OFFCURVE",
"-296 379 OFFCURVE",
"-282 379 CURVE SMOOTH"
);
},
{
closed = 1;
nodes = (
"-242 407 OFFCURVE",
"-231 411 OFFCURVE",
"-219 421 CURVE SMOOTH",
"-197 440 LINE SMOOTH",
"-180 454 OFFCURVE",
"-162 478 OFFCURVE",
"-151 491 CURVE",
"-145 477 OFFCURVE",
"-136 460 OFFCURVE",
"-130 449 CURVE SMOOTH",
"-124 439 OFFCURVE",
"-119 429 OFFCURVE",
"-111 418 CURVE SMOOTH",
"-103 407 OFFCURVE",
"-95 403 OFFCURVE",
"-84 403 CURVE SMOOTH",
"-69 403 OFFCURVE",
"-43 420 OFFCURVE",
"-43 438 CURVE SMOOTH",
"-43 447 OFFCURVE",
"-45 455 OFFCURVE",
"-57 470 CURVE SMOOTH",
"-71 488 LINE SMOOTH",
"-82 502 OFFCURVE",
"-97 514 OFFCURVE",
"-106 521 CURVE",
"-80 524 OFFCURVE",
"-57 530 OFFCURVE",
"-42 537 CURVE SMOOTH",
"-19 548 LINE SMOOTH",
"-6 554 OFFCURVE",
"7 566 OFFCURVE",
"7 585 CURVE SMOOTH",
"7 597 OFFCURVE",
"-3 612 OFFCURVE",
"-21 612 CURVE SMOOTH",
"-31 612 OFFCURVE",
"-44 610 OFFCURVE",
"-56 603 CURVE SMOOTH",
"-72 594 LINE SMOOTH",
"-88 585 OFFCURVE",
"-100 575 OFFCURVE",
"-114 564 CURVE",
"-103 585 OFFCURVE",
"-98 597 OFFCURVE",
"-93 614 CURVE SMOOTH",
"-87 633 OFFCURVE",
"-86 644 OFFCURVE",
"-86 656 CURVE SMOOTH",
"-86 672 OFFCURVE",
"-99 683 OFFCURVE",
"-114 683 CURVE SMOOTH",
"-136 683 OFFCURVE",
"-153 667 OFFCURVE",
"-157 645 CURVE SMOOTH",
"-161 622 LINE SMOOTH",
"-165 599 OFFCURVE",
"-164 585 OFFCURVE",
"-163 566 CURVE",
"-175 579 OFFCURVE",
"-184 589 OFFCURVE",
"-199 598 CURVE SMOOTH",
"-216 608 OFFCURVE",
"-227 615 OFFCURVE",
"-239 615 CURVE SMOOTH",
"-263 615 OFFCURVE",
"-281 591 OFFCURVE",
"-281 575 CURVE SMOOTH",
"-281 561 OFFCURVE",
"-273 553 OFFCURVE",
"-259 546 CURVE SMOOTH",
"-240 537 LINE SMOOTH",
"-225 530 OFFCURVE",
"-209 523 OFFCURVE",
"-192 520 CURVE",
"-209 511 OFFCURVE",
"-224 500 OFFCURVE",
"-241 486 CURVE SMOOTH",
"-264 467 LINE SMOOTH",
"-275 458 OFFCURVE",
"-280 447 OFFCURVE",
"-280 436 CURVE SMOOTH",
"-280 417 OFFCURVE",
"-266 407 OFFCURVE",
"-252 407 CURVE SMOOTH"
);
},
{
closed = 1;
nodes = (
"558 437 OFFCURVE",
"569 441 OFFCURVE",
"581 451 CURVE SMOOTH",
"603 470 LINE SMOOTH",
"619 484 OFFCURVE",
"637 505 OFFCURVE",
"648 517 CURVE",
"654 504 OFFCURVE",
"664 489 OFFCURVE",
"670 479 CURVE SMOOTH",
"676 469 OFFCURVE",
"681 459 OFFCURVE",
"689 448 CURVE SMOOTH",
"697 437 OFFCURVE",
"705 433 OFFCURVE",
"716 433 CURVE SMOOTH",
"731 433 OFFCURVE",
"757 450 OFFCURVE",
"757 468 CURVE SMOOTH",
"757 477 OFFCURVE",
"754 484 OFFCURVE",
"741 503 CURVE SMOOTH",
"732 516 LINE SMOOTH",
"723 529 OFFCURVE",
"710 542 OFFCURVE",
"700 549 CURVE",
"724 552 OFFCURVE",
"744 561 OFFCURVE",
"758 567 CURVE SMOOTH",
"781 577 LINE SMOOTH",
"794 583 OFFCURVE",
"807 596 OFFCURVE",
"807 615 CURVE SMOOTH",
"807 627 OFFCURVE",
"797 642 OFFCURVE",
"779 642 CURVE SMOOTH",
"768 642 OFFCURVE",
"755 638 OFFCURVE",
"742 631 CURVE SMOOTH",
"728 624 LINE SMOOTH",
"713 616 OFFCURVE",
"701 607 OFFCURVE",
"688 597 CURVE",
"694 610 OFFCURVE",
"702 628 OFFCURVE",
"707 644 CURVE SMOOTH",
"713 663 OFFCURVE",
"714 674 OFFCURVE",
"714 686 CURVE SMOOTH",
"714 702 OFFCURVE",
"701 713 OFFCURVE",
"686 713 CURVE SMOOTH",
"664 713 OFFCURVE",
"647 697 OFFCURVE",
"643 675 CURVE SMOOTH",
"639 652 LINE SMOOTH",
"635 630 OFFCURVE",
"634 617 OFFCURVE",
"636 599 CURVE",
"624 612 OFFCURVE",
"616 621 OFFCURVE",
"601 630 CURVE SMOOTH",
"585 640 OFFCURVE",
"573 645 OFFCURVE",
"561 645 CURVE SMOOTH",
"537 645 OFFCURVE",
"519 621 OFFCURVE",
"519 605 CURVE SMOOTH",
"519 590 OFFCURVE",
"527 581 OFFCURVE",
"541 574 CURVE SMOOTH",
"560 564 LINE SMOOTH",
"572 558 OFFCURVE",
"590 552 OFFCURVE",
"599 548 CURVE",
"586 541 OFFCURVE",
"572 530 OFFCURVE",
"557 516 CURVE SMOOTH",
"538 499 LINE SMOOTH",
"525 487 OFFCURVE",
"520 477 OFFCURVE",
"520 466 CURVE SMOOTH",
"520 447 OFFCURVE",
"534 437 OFFCURVE",
"548 437 CURVE SMOOTH"
);
},
{
closed = 1;
nodes = (
"170 436 OFFCURVE",
"184 446 OFFCURVE",
"204 465 CURVE SMOOTH",
"226 487 OFFCURVE",
"238 509 OFFCURVE",
"250 528 CURVE",
"255 509 OFFCURVE",
"262 491 OFFCURVE",
"273 472 CURVE SMOOTH",
"288 447 OFFCURVE",
"303 433 OFFCURVE",
"321 433 CURVE SMOOTH",
"338 433 OFFCURVE",
"357 449 OFFCURVE",
"357 468 CURVE SMOOTH",
"357 483 OFFCURVE",
"348 498 OFFCURVE",
"335 514 CURVE SMOOTH",
"323 529 OFFCURVE",
"310 542 OFFCURVE",
"298 552 CURVE",
"317 554 OFFCURVE",
"336 557 OFFCURVE",
"366 567 CURVE SMOOTH",
"395 579 OFFCURVE",
"407 595 OFFCURVE",
"407 615 CURVE SMOOTH",
"407 627 OFFCURVE",
"397 642 OFFCURVE",
"379 642 CURVE SMOOTH",
"368 642 OFFCURVE",
"357 639 OFFCURVE",
"340 631 CURVE SMOOTH",
"323 622 OFFCURVE",
"309 614 OFFCURVE",
"288 597 CURVE",
"294 610 OFFCURVE",
"303 627 OFFCURVE",
"311 653 CURVE SMOOTH",
"322 690 OFFCURVE",
"310 713 OFFCURVE",
"284 713 CURVE SMOOTH",
"264 713 OFFCURVE",
"246 697 OFFCURVE",
"240 670 CURVE SMOOTH",
"234 645 OFFCURVE",
"237 620 OFFCURVE",
"238 598 CURVE",
"228 607 OFFCURVE",
"217 620 OFFCURVE",
"201 630 CURVE SMOOTH",
"185 640 OFFCURVE",
"173 645 OFFCURVE",
"157 645 CURVE SMOOTH",
"137 645 OFFCURVE",
"120 627 OFFCURVE",
"120 607 CURVE SMOOTH",
"120 591 OFFCURVE",
"128 579 OFFCURVE",
"150 567 CURVE SMOOTH",
"172 556 OFFCURVE",
"190 552 OFFCURVE",
"206 552 CURVE",
"192 545 OFFCURVE",
"172 533 OFFCURVE",
"151 514 CURVE SMOOTH",
"130 494 OFFCURVE",
"122 485 OFFCURVE",
"122 466 CURVE SMOOTH",
"122 449 OFFCURVE",
"135 437 OFFCURVE",
"152 436 CURVE SMOOTH"
);
},
{
closed = 1;
nodes = (
"171 438 OFFCURVE",
"194 449 OFFCURVE",
"211 472 CURVE SMOOTH",
"225 491 OFFCURVE",
"240 511 OFFCURVE",
"252 530 CURVE",
"256 511 OFFCURVE",
"259 495 OFFCURVE",
"267 471 CURVE SMOOTH",
"274 449 OFFCURVE",
"288 438 OFFCURVE",
"309 438 CURVE SMOOTH",
"333 438 OFFCURVE",
"352 459 OFFCURVE",
"357 478 CURVE SMOOTH",
"360 490 OFFCURVE",
"357 505 OFFCURVE",
"343 519 CURVE SMOOTH",
"328 534 OFFCURVE",
"312 545 OFFCURVE",
"299 555 CURVE",
"323 556 OFFCURVE",
"342 555 OFFCURVE",
"364 558 CURVE SMOOTH",
"390 562 OFFCURVE",
"408 585 OFFCURVE",
"412 605 CURVE SMOOTH",
"417 629 OFFCURVE",
"401 644 OFFCURVE",
"379 644 CURVE SMOOTH",
"354 644 OFFCURVE",
"318 621 OFFCURVE",
"289 597 CURVE",
"299 612 OFFCURVE",
"318 639 OFFCURVE",
"323 664 CURVE SMOOTH",
"329 696 OFFCURVE",
"319 716 OFFCURVE",
"293 716 CURVE SMOOTH",
"268 716 OFFCURVE",
"247 697 OFFCURVE",
"240 665 CURVE SMOOTH",
"235 642 OFFCURVE",
"238 619 OFFCURVE",
"245 598 CURVE",
"236 608 OFFCURVE",
"224 619 OFFCURVE",
"210 630 CURVE SMOOTH",
"196 641 OFFCURVE",
"183 646 OFFCURVE",
"172 646 CURVE SMOOTH",
"145 646 OFFCURVE",
"126 626 OFFCURVE",
"122 605 CURVE SMOOTH",
"118 585 OFFCURVE",
"127 570 OFFCURVE",
"146 563 CURVE SMOOTH",
"166 556 OFFCURVE",
"194 553 OFFCURVE",
"213 553 CURVE",
"199 547 OFFCURVE",
"179 536 OFFCURVE",
"157 520 CURVE SMOOTH",
"133 503 OFFCURVE",
"127 490 OFFCURVE",
"123 475 CURVE SMOOTH",
"118 455 OFFCURVE",
"131 438 OFFCURVE",
"154 438 CURVE SMOOTH"
);
}
);
};
guideLines = (
{
position = "{246, 405}";
}
);
layerId = "140D7E2C-8008-49AA-8FE3-CF6E53AFBA7D";
paths = (
{
closed = 1;
nodes = (
"171 438 OFFCURVE",
"194 449 OFFCURVE",
"211 472 CURVE SMOOTH",
"225 491 OFFCURVE",
"240 511 OFFCURVE",
"252 530 CURVE",
"256 511 OFFCURVE",
"259 495 OFFCURVE",
"267 471 CURVE SMOOTH",
"274 449 OFFCURVE",
"288 438 OFFCURVE",
"309 438 CURVE SMOOTH",
"337 438 OFFCURVE",
"358 466 OFFCURVE",
"358 487 CURVE SMOOTH",
"358 497 OFFCURVE",
"354 508 OFFCURVE",
"343 519 CURVE SMOOTH",
"328 534 OFFCURVE",
"312 545 OFFCURVE",
"299 555 CURVE",
"323 556 OFFCURVE",
"342 555 OFFCURVE",
"364 558 CURVE SMOOTH",
"396 563 OFFCURVE",
"413 587 OFFCURVE",
"413 610 CURVE SMOOTH",
"413 633 OFFCURVE",
"398 644 OFFCURVE",
"379 644 CURVE SMOOTH",
"354 644 OFFCURVE",
"318 621 OFFCURVE",
"289 597 CURVE",
"305 621 OFFCURVE",
"325 652 OFFCURVE",
"325 681 CURVE SMOOTH",
"325 703 OFFCURVE",
"314 716 OFFCURVE",
"293 716 CURVE SMOOTH",
"262 716 OFFCURVE",
"238 688 OFFCURVE",
"238 642 CURVE SMOOTH",
"238 627 OFFCURVE",
"240 612 OFFCURVE",
"245 598 CURVE",
"236 608 OFFCURVE",
"224 619 OFFCURVE",
"210 630 CURVE SMOOTH",
"196 641 OFFCURVE",
"183 646 OFFCURVE",
"172 646 CURVE SMOOTH",
"141 646 OFFCURVE",
"121 620 OFFCURVE",
"121 596 CURVE SMOOTH",
"121 580 OFFCURVE",
"130 569 OFFCURVE",
"150 562 CURVE SMOOTH",
"166 556 OFFCURVE",
"194 553 OFFCURVE",
"213 553 CURVE",
"199 547 OFFCURVE",
"179 536 OFFCURVE",
"157 520 CURVE SMOOTH",
"140 508 OFFCURVE",
"122 489 OFFCURVE",
"122 467 CURVE SMOOTH",
"122 450 OFFCURVE",
"134 438 OFFCURVE",
"154 438 CURVE SMOOTH"
);
}
);
userData = {
com.fontlab.hintData = {
hhints = (
{
position = 421;
width = 251;
}
);
};
};
width = 381;
}
);
unicode = 002A;
},
{
color = 5;
glyphname = plus;
lastChange = "2020-01-29 04:10:32 +0000";
layers = (
{
background = {
paths = (
{
closed = 1;
nodes = (
"198 83 OFFCURVE",
"208 91 OFFCURVE",
"210 100 CURVE SMOOTH",
"237 227 LINE",
"367 227 LINE SMOOTH",
"376 227 OFFCURVE",
"386 236 OFFCURVE",
"388 245 CURVE SMOOTH",
"390 255 OFFCURVE",
"384 263 OFFCURVE",
"375 263 CURVE SMOOTH",
"245 263 LINE",
"270 380 LINE",
"271 389 OFFCURVE",
"265 397 OFFCURVE",
"256 397 CURVE SMOOTH",
"246 397 OFFCURVE",
"236 389 OFFCURVE",
"235 380 CURVE",
"210 263 LINE",
"82 263 LINE SMOOTH",
"72 263 OFFCURVE",
"62 255 OFFCURVE",
"60 245 CURVE SMOOTH",
"58 236 OFFCURVE",
"64 227 OFFCURVE",
"74 227 CURVE SMOOTH",
"202 227 LINE",
"175 100 LINE SMOOTH",
"173 91 OFFCURVE",
"180 83 OFFCURVE",
"189 83 CURVE SMOOTH"
);
}
);
};
layerId = master01;
paths = (
{
closed = 1;
nodes = (
"198 83 OFFCURVE",
"208 91 OFFCURVE",
"210 100 CURVE SMOOTH",
"237 227 LINE",
"367 227 LINE SMOOTH",
"377 227 OFFCURVE",
"388 239 OFFCURVE",
"388 249 CURVE SMOOTH",
"388 257 OFFCURVE",
"383 263 OFFCURVE",
"375 263 CURVE SMOOTH",
"245 263 LINE",
"270 380 LINE SMOOTH",
"271 389 OFFCURVE",
"265 397 OFFCURVE",
"256 397 CURVE SMOOTH",
"246 397 OFFCURVE",
"236 389 OFFCURVE",
"235 380 CURVE SMOOTH",
"210 263 LINE",
"82 263 LINE SMOOTH",
"71 263 OFFCURVE",
"60 253 OFFCURVE",
"60 242 CURVE SMOOTH",
"60 234 OFFCURVE",
"65 227 OFFCURVE",
"74 227 CURVE SMOOTH",
"202 227 LINE",
"175 100 LINE SMOOTH",
"173 91 OFFCURVE",
"180 83 OFFCURVE",
"189 83 CURVE SMOOTH"
);
}
);
userData = {
com.fontlab.hintData = {
hhints = (
{
position = 233;
width = 36;
}
);
vhints = (
{
position = 110;
width = 328;
}
);
};
};
width = 448;
},
{
background = {
paths = (
{
closed = 1;
nodes = (
"204 85 OFFCURVE",
"218 97 OFFCURVE",
"221 112 CURVE SMOOTH",
"245 224 LINE",
"359 224 LINE SMOOTH",
"374 224 OFFCURVE",
"389 236 OFFCURVE",
"392 251 CURVE SMOOTH",
"392 253 OFFCURVE",
"393 255 OFFCURVE",
"393 257 CURVE SMOOTH",
"393 269 OFFCURVE",
"384 278 OFFCURVE",
"371 278 CURVE SMOOTH",
"257 278 LINE",
"278 380 LINE SMOOTH",
"278 382 OFFCURVE",
"279 384 OFFCURVE",
"279 386 CURVE SMOOTH",
"279 398 OFFCURVE",
"270 407 OFFCURVE",
"257 407 CURVE SMOOTH",
"242 407 OFFCURVE",
"227 395 OFFCURVE",
"224 380 CURVE SMOOTH",
"203 278 LINE",
"90 278 LINE SMOOTH",
"75 278 OFFCURVE",
"60 266 OFFCURVE",
"57 251 CURVE SMOOTH",
"57 249 OFFCURVE",
"56 247 OFFCURVE",
"56 245 CURVE SMOOTH",
"56 233 OFFCURVE",
"65 224 OFFCURVE",
"78 224 CURVE SMOOTH",
"191 224 LINE",
"167 112 LINE SMOOTH",
"167 110 OFFCURVE",
"166 108 OFFCURVE",
"166 107 CURVE SMOOTH",
"166 94 OFFCURVE",
"176 85 OFFCURVE",
"189 85 CURVE SMOOTH"
);
}
);
};
layerId = "ACFB53BD-70C1-480F-BE56-298851F5C10E";
paths = (
{
closed = 1;
nodes = (
"203 85 OFFCURVE",
"218 97 OFFCURVE",
"221 112 CURVE SMOOTH",
"245 224 LINE",
"359 224 LINE SMOOTH",
"376 224 OFFCURVE",
"392 240 OFFCURVE",
"392 257 CURVE SMOOTH",
"392 269 OFFCURVE",
"383 278 OFFCURVE",
"371 278 CURVE SMOOTH",
"257 278 LINE",
"278 380 LINE SMOOTH",
"281 394 OFFCURVE",
"275 407 OFFCURVE",
"257 407 CURVE SMOOTH",
"242 407 OFFCURVE",
"227 395 OFFCURVE",
"224 380 CURVE SMOOTH",
"203 278 LINE",
"90 278 LINE SMOOTH",
"72 278 OFFCURVE",
"56 262 OFFCURVE",
"56 245 CURVE SMOOTH",
"56 232 OFFCURVE",
"67 224 OFFCURVE",
"78 224 CURVE SMOOTH",
"191 224 LINE",
"167 112 LINE SMOOTH",
"164 97 OFFCURVE",
"174 85 OFFCURVE",
"189 85 CURVE SMOOTH"
);
}
);
userData = {
com.fontlab.hintData = {
hhints = (
{
position = 224;
width = 54;
}
);
};
};
width = 445;
},
{
background = {
paths = (
{
closed = 1;
nodes = (
"210 77 OFFCURVE",
"235 98 OFFCURVE",
"241 124 CURVE SMOOTH",
"258 203 LINE",
"339 203 LINE SMOOTH",
"365 203 OFFCURVE",
"390 224 OFFCURVE",
"396 251 CURVE SMOOTH",
"397 254 OFFCURVE",
"397 257 OFFCURVE",
"397 260 CURVE SMOOTH",
"397 282 OFFCURVE",
"382 298 OFFCURVE",
"359 298 CURVE SMOOTH",
"278 298 LINE",
"293 368 LINE SMOOTH",
"294 371 OFFCURVE",
"294 374 OFFCURVE",
"294 377 CURVE SMOOTH",
"294 399 OFFCURVE",
"279 415 OFFCURVE",
"256 415 CURVE SMOOTH",
"230 415 OFFCURVE",
"204 394 OFFCURVE",
"199 368 CURVE SMOOTH",
"184 298 LINE",
"104 298 LINE SMOOTH",
"77 298 OFFCURVE",
"51 277 OFFCURVE",
"46 251 CURVE SMOOTH",
"45 247 OFFCURVE",
"45 244 OFFCURVE",
"45 240 CURVE SMOOTH",
"45 219 OFFCURVE",
"61 203 OFFCURVE",
"84 203 CURVE SMOOTH",
"164 203 LINE",
"147 124 LINE SMOOTH",
"146 120 OFFCURVE",
"146 117 OFFCURVE",
"146 114 CURVE SMOOTH",
"146 93 OFFCURVE",
"162 77 OFFCURVE",
"184 77 CURVE SMOOTH"
);
}
);
};
layerId = "140D7E2C-8008-49AA-8FE3-CF6E53AFBA7D";
paths = (
{
closed = 1;
nodes = (
"210 76 OFFCURVE",
"235 97 OFFCURVE",
"241 123 CURVE SMOOTH",
"258 202 LINE",
"339 202 LINE SMOOTH",
"368 202 OFFCURVE",
"397 230 OFFCURVE",
"397 259 CURVE SMOOTH",
"397 280 OFFCURVE",
"382 297 OFFCURVE",
"359 297 CURVE SMOOTH",
"278 297 LINE",
"293 367 LINE SMOOTH",
"299 386 OFFCURVE",
"285 414 OFFCURVE",
"256 414 CURVE SMOOTH",
"231 414 OFFCURVE",
"205 394 OFFCURVE",
"199 367 CURVE SMOOTH",
"184 297 LINE",
"104 297 LINE SMOOTH",
"77 297 OFFCURVE",
"45 273 OFFCURVE",
"45 239 CURVE SMOOTH",
"45 218 OFFCURVE",
"61 202 OFFCURVE",
"84 202 CURVE SMOOTH",
"164 202 LINE",
"147 123 LINE SMOOTH",
"142 102 OFFCURVE",
"156 76 OFFCURVE",
"184 76 CURVE SMOOTH"
);
}
);
userData = {
com.fontlab.hintData = {
hhints = (
{
position = 203;
width = 95;
}
);
};
};
width = 440;
}
);
unicode = 002B;
},
{
color = 5;
glyphname = comma;
lastChange = "2020-01-31 01:00:26 +0000";
layers = (
{
background = {
paths = (
{
closed = 1;
nodes = (
"-11 -97 OFFCURVE",
"6 -68 OFFCURVE",
"31 -28 CURVE SMOOTH",
"55 10 OFFCURVE",
"62 18 OFFCURVE",
"62 39 CURVE SMOOTH",
"62 49 OFFCURVE",
"56 58 OFFCURVE",
"44 58 CURVE SMOOTH",
"28 58 OFFCURVE",
"9 42 OFFCURVE",
"5 22 CURVE SMOOTH",
"3 13 OFFCURVE",
"6 2 OFFCURVE",
"13 -6 CURVE",
"-29 -77 LINE SMOOTH",
"-32 -82 OFFCURVE",
"-32 -84 OFFCURVE",
"-33 -87 CURVE SMOOTH",
"-35 -92 OFFCURVE",
"-28 -97 OFFCURVE",
"-22 -97 CURVE SMOOTH"
);
}
);
};
layerId = master01;
paths = (
{
closed = 1;
nodes = (
"-11 -96 OFFCURVE",
"2 -72 OFFCURVE",
"31 -27 CURVE SMOOTH",
"55 10 OFFCURVE",
"62 19 OFFCURVE",
"62 40 CURVE SMOOTH",
"62 49 OFFCURVE",
"56 59 OFFCURVE",
"43 59 CURVE SMOOTH",
"24 59 OFFCURVE",
"4 39 OFFCURVE",
"4 17 CURVE SMOOTH",
"4 7 OFFCURVE",
"6 3 OFFCURVE",
"13 -5 CURVE",
"-29 -76 LINE SMOOTH",
"-31 -79 OFFCURVE",
"-33 -83 OFFCURVE",
"-33 -87 CURVE SMOOTH",
"-33 -92 OFFCURVE",
"-28 -96 OFFCURVE",
"-22 -96 CURVE SMOOTH"
);
}
);
userData = {
com.fontlab.hintData = {
hhints = (
{
position = -96;
width = 155;
}
);
vhints = (
{
position = 115;
width = 57;
}
);
};
};
width = 147;
},
{
background = {
paths = (
{
closed = 1;
nodes = (
"3 -93 OFFCURVE",
"7 -77 OFFCURVE",
"43 -19 CURVE SMOOTH",
"66 17 OFFCURVE",
"72 26 OFFCURVE",
"76 45 CURVE SMOOTH",
"76 47 OFFCURVE",
"77 49 OFFCURVE",
"77 50 CURVE SMOOTH",
"77 64 OFFCURVE",
"67 77 OFFCURVE",
"51 77 CURVE SMOOTH",
"30 77 OFFCURVE",
"6 56 OFFCURVE",
"1 32 CURVE SMOOTH",
"1 29 OFFCURVE",
"0 26 OFFCURVE",
"0 23 CURVE SMOOTH",
"0 15 OFFCURVE",
"3 7 OFFCURVE",
"7 2 CURVE",
"-31 -62 LINE SMOOTH",
"-32 -66 OFFCURVE",
"-35 -69 OFFCURVE",
"-35 -75 CURVE SMOOTH",
"-35 -85 OFFCURVE",
"-28 -93 OFFCURVE",
"-16 -93 CURVE SMOOTH"
);
}
);
};
layerId = "ACFB53BD-70C1-480F-BE56-298851F5C10E";
paths = (
{
closed = 1;
nodes = (
"2 -93 OFFCURVE",
"6 -81 OFFCURVE",
"41 -24 CURVE SMOOTH",
"58 3 OFFCURVE",
"77 36 OFFCURVE",
"77 50 CURVE SMOOTH",
"77 65 OFFCURVE",
"66 77 OFFCURVE",
"51 77 CURVE SMOOTH",
"27 77 OFFCURVE",
"0 53 OFFCURVE",
"0 23 CURVE SMOOTH",
"0 14 OFFCURVE",
"3 7 OFFCURVE",
"7 2 CURVE",
"-29 -58 LINE SMOOTH",
"-32 -63 OFFCURVE",
"-35 -69 OFFCURVE",
"-35 -75 CURVE SMOOTH",
"-35 -85 OFFCURVE",
"-27 -93 OFFCURVE",
"-16 -93 CURVE SMOOTH"
);
}
);
userData = {
com.fontlab.hintData = {
hhints = (
{
position = -93;
width = 170;
}
);
vhints = (
{
position = 54;
width = 76;
}
);
};
};
width = 159;
},
{
background = {
paths = (
{
closed = 1;
nodes = (
"31 -84 OFFCURVE",
"45 -66 OFFCURVE",
"59 -45 CURVE SMOOTH",
"83 -7 OFFCURVE",
"112 43 OFFCURVE",
"116 64 CURVE SMOOTH",
"117 68 OFFCURVE",
"117 71 OFFCURVE",
"117 75 CURVE SMOOTH",
"117 98 OFFCURVE",
"100 115 OFFCURVE",
"75 115 CURVE SMOOTH",
"44 115 OFFCURVE",
"10 85 OFFCURVE",
"3 52 CURVE SMOOTH",
"2 47 OFFCURVE",
"1 42 OFFCURVE",
"1 38 CURVE SMOOTH",
"1 32 OFFCURVE",
"2 26 OFFCURVE",
"4 21 CURVE",
"-24 -26 LINE SMOOTH",
"-27 -31 OFFCURVE",
"-29 -35 OFFCURVE",
"-30 -42 CURVE SMOOTH",
"-31 -45 OFFCURVE",
"-31 -48 OFFCURVE",
"-31 -51 CURVE SMOOTH",
"-31 -70 OFFCURVE",
"-17 -84 OFFCURVE",
"5 -84 CURVE SMOOTH"
);
}
);
};
layerId = "140D7E2C-8008-49AA-8FE3-CF6E53AFBA7D";
paths = (
{
closed = 1;
nodes = (
"28 -84 OFFCURVE",
"42 -69 OFFCURVE",
"64 -36 CURVE SMOOTH",
"81 -11 OFFCURVE",
"116 48 OFFCURVE",
"116 75 CURVE SMOOTH",
"116 97 OFFCURVE",
"99 115 OFFCURVE",
"74 115 CURVE SMOOTH",
"36 115 OFFCURVE",
"0 75 OFFCURVE",
"0 38 CURVE SMOOTH",
"0 33 OFFCURVE",
"1 27 OFFCURVE",
"3 21 CURVE",
"-25 -26 LINE SMOOTH",
"-28 -31 OFFCURVE",
"-32 -40 OFFCURVE",
"-32 -51 CURVE SMOOTH",
"-32 -69 OFFCURVE",
"-18 -84 OFFCURVE",
"4 -84 CURVE SMOOTH"
);
}
);
userData = {
com.fontlab.hintData = {
hhints = (
{
position = -84;
width = 199;
}
);
vhints = (
{
position = 45;
width = 116;
}
);
};
};
width = 193;
}
);
leftKerningGroup = comma;
rightKerningGroup = comma;
unicode = 002C;
},
{
color = 5;
glyphname = hyphen;
lastChange = "2020-01-30 18:05:04 +0000";
layers = (
{
background = {
paths = (
{
closed = 1;
nodes = (
"336 226 LINE SMOOTH",
"345 226 OFFCURVE",
"356 235 OFFCURVE",
"358 244 CURVE SMOOTH",
"360 253 OFFCURVE",
"352 262 OFFCURVE",
"343 262 CURVE SMOOTH",
"85 262 LINE SMOOTH",
"76 262 OFFCURVE",
"67 253 OFFCURVE",
"65 244 CURVE SMOOTH",
"63 235 OFFCURVE",
"69 226 OFFCURVE",
"78 226 CURVE SMOOTH"
);
}
);
};
layerId = master01;
paths = (
{
closed = 1;
nodes = (
"336 226 LINE SMOOTH",
"346 226 OFFCURVE",
"358 237 OFFCURVE",
"358 247 CURVE SMOOTH",
"358 255 OFFCURVE",
"351 262 OFFCURVE",
"343 262 CURVE SMOOTH",
"85 262 LINE SMOOTH",
"75 262 OFFCURVE",
"65 250 OFFCURVE",
"65 241 CURVE SMOOTH",
"65 233 OFFCURVE",
"70 226 OFFCURVE",
"78 226 CURVE SMOOTH"
);
}
);
userData = {
com.fontlab.hintData = {
hhints = (
{
position = 232;
width = 36;
}
);
vhints = (
{
position = 128;
width = 293;
}
);
};
};
width = 423;
},
{
background = {
paths = (
{
closed = 1;
nodes = (
"326 223 LINE SMOOTH",
"341 223 OFFCURVE",
"359 236 OFFCURVE",
"359 250 CURVE SMOOTH",
"359 252 OFFCURVE",
"360 254 OFFCURVE",
"360 255 CURVE SMOOTH",
"360 268 OFFCURVE",
"350 277 OFFCURVE",
"337 277 CURVE SMOOTH",
"90 277 LINE SMOOTH",
"76 277 OFFCURVE",
"58 265 OFFCURVE",
"58 250 CURVE SMOOTH",
"58 248 OFFCURVE",
"57 247 OFFCURVE",
"57 245 CURVE SMOOTH",
"57 233 OFFCURVE",
"67 223 OFFCURVE",
"79 223 CURVE SMOOTH"
);
}
);
};
layerId = "ACFB53BD-70C1-480F-BE56-298851F5C10E";
paths = (
{
closed = 1;
nodes = (
"325 223 LINE SMOOTH",
"341 223 OFFCURVE",
"358 239 OFFCURVE",
"358 255 CURVE SMOOTH",
"358 267 OFFCURVE",
"349 277 OFFCURVE",
"336 277 CURVE SMOOTH",
"89 277 LINE SMOOTH",
"74 277 OFFCURVE",
"56 266 OFFCURVE",
"56 245 CURVE SMOOTH",
"56 233 OFFCURVE",
"66 223 OFFCURVE",
"78 223 CURVE SMOOTH"
);
}
);
userData = {
com.fontlab.hintData = {
hhints = (
{
position = 223;
width = 54;
}
);
vhints = (
{
position = 68;
width = 302;
}
);
};
};
width = 411;
},
{
background = {
paths = (
{
closed = 1;
nodes = (
"309 203 LINE SMOOTH",
"335 203 OFFCURVE",
"360 225 OFFCURVE",
"366 250 CURVE",
"367 253 OFFCURVE",
"367 256 OFFCURVE",
"367 259 CURVE SMOOTH",
"367 281 OFFCURVE",
"352 297 OFFCURVE",
"329 297 CURVE SMOOTH",
"104 297 LINE SMOOTH",
"80 297 OFFCURVE",
"52 276 OFFCURVE",
"47 250 CURVE",
"46 247 OFFCURVE",
"46 244 OFFCURVE",
"46 241 CURVE SMOOTH",
"46 220 OFFCURVE",
"63 203 OFFCURVE",
"84 203 CURVE SMOOTH"
);
}
);
};
layerId = "140D7E2C-8008-49AA-8FE3-CF6E53AFBA7D";
paths = (
{
closed = 1;
nodes = (
"309 204 LINE SMOOTH",
"337 204 OFFCURVE",
"367 232 OFFCURVE",
"367 260 CURVE SMOOTH",
"367 282 OFFCURVE",
"352 298 OFFCURVE",
"329 298 CURVE SMOOTH",
"104 298 LINE SMOOTH",
"79 298 OFFCURVE",
"46 273 OFFCURVE",
"46 242 CURVE SMOOTH",
"46 221 OFFCURVE",
"63 204 OFFCURVE",
"84 204 CURVE SMOOTH"
);
}
);
userData = {
com.fontlab.hintData = {
hhints = (
{
position = 203;
width = 94;
}
);
vhints = (
{
position = 62;
width = 321;
}
);
};
};
width = 409;
}
);
leftKerningGroup = hyphen;
rightKerningGroup = hyphen;
unicode = 002D;
},
{
color = 5;
glyphname = period;
lastChange = "2020-01-31 00:57:34 +0000";
layers = (
{
background = {
paths = (
{
closed = 1;
nodes = (
"28 0 OFFCURVE",
"50 17 OFFCURVE",
"50 39 CURVE SMOOTH",
"50 40 OFFCURVE",
"51 43 OFFCURVE",
"51 45 CURVE SMOOTH",
"51 57 OFFCURVE",
"44 66 OFFCURVE",
"33 66 CURVE SMOOTH",
"17 66 OFFCURVE",
"0 47 OFFCURVE",
"-6 29 CURVE SMOOTH",
"-7 26 OFFCURVE",
"-7 24 OFFCURVE",
"-7 21 CURVE SMOOTH",
"-7 10 OFFCURVE",
"0 0 OFFCURVE",
"11 0 CURVE SMOOTH"
);
}
);
};
layerId = master01;
paths = (
{
closed = 1;
nodes = (
"31 0 OFFCURVE",
"51 25 OFFCURVE",
"51 45 CURVE SMOOTH",
"51 57 OFFCURVE",
"44 66 OFFCURVE",
"33 66 CURVE SMOOTH",
"13 66 OFFCURVE",
"-7 41 OFFCURVE",
"-7 21 CURVE SMOOTH",
"-7 10 OFFCURVE",
"0 0 OFFCURVE",
"11 0 CURVE SMOOTH"
);
}
);
userData = {
com.fontlab.hintData = {
hhints = (
{
position = 0;
width = 66;
}
);
vhints = (
{
position = 81;
width = 58;
}
);
};
};
width = 134;
},
{
background = {
paths = (
{
closed = 1;
nodes = (
"36 0 OFFCURVE",
"59 21 OFFCURVE",
"64 47 CURVE",
"65 50 OFFCURVE",
"65 53 OFFCURVE",
"65 56 CURVE SMOOTH",
"65 72 OFFCURVE",
"55 83 OFFCURVE",
"40 83 CURVE SMOOTH",
"19 83 OFFCURVE",
"-5 61 OFFCURVE",
"-9 38 CURVE",
"-10 34 OFFCURVE",
"-10 31 OFFCURVE",
"-10 28 CURVE SMOOTH",
"-10 12 OFFCURVE",
"-1 0 OFFCURVE",
"15 0 CURVE SMOOTH"
);
}
);
};
layerId = "ACFB53BD-70C1-480F-BE56-298851F5C10E";
paths = (
{
closed = 1;
nodes = (
"41 0 OFFCURVE",
"65 30 OFFCURVE",
"65 56 CURVE SMOOTH",
"65 72 OFFCURVE",
"55 83 OFFCURVE",
"40 83 CURVE SMOOTH",
"18 83 OFFCURVE",
"-10 57 OFFCURVE",
"-10 28 CURVE SMOOTH",
"-10 12 OFFCURVE",
"0 0 OFFCURVE",
"15 0 CURVE SMOOTH"
);
}
);
userData = {
com.fontlab.hintData = {
hhints = (
{
position = 0;
width = 83;
}
);
vhints = (
{
position = 22;
width = 75;
}
);
};
};
width = 141;
},
{
background = {
paths = (
{
closed = 1;
nodes = (
"61 0 OFFCURVE",
"96 29 OFFCURVE",
"103 65 CURVE SMOOTH",
"104 70 OFFCURVE",
"105 74 OFFCURVE",
"105 78 CURVE SMOOTH",
"105 103 OFFCURVE",
"88 121 OFFCURVE",
"63 121 CURVE SMOOTH",
"32 121 OFFCURVE",
"-2 90 OFFCURVE",
"-9 57 CURVE SMOOTH",
"-10 52 OFFCURVE",
"-11 47 OFFCURVE",
"-11 43 CURVE SMOOTH",
"-11 18 OFFCURVE",
"5 0 OFFCURVE",
"31 0 CURVE SMOOTH"
);
}
);
};
layerId = "140D7E2C-8008-49AA-8FE3-CF6E53AFBA7D";
paths = (
{
closed = 1;
nodes = (
"68 0 OFFCURVE",
"104 40 OFFCURVE",
"104 78 CURVE SMOOTH",
"104 103 OFFCURVE",
"87 121 OFFCURVE",
"63 121 CURVE SMOOTH",
"25 121 OFFCURVE",
"-11 81 OFFCURVE",
"-11 43 CURVE SMOOTH",
"-11 18 OFFCURVE",
"5 0 OFFCURVE",
"31 0 CURVE SMOOTH"
);
}
);
userData = {
com.fontlab.hintData = {
hhints = (
{
position = 0;
width = 121;
}
);
vhints = (
{
position = 14;
width = 115;
}
);
};
};
width = 171;
}
);
leftKerningGroup = period;
rightKerningGroup = period;
unicode = 002E;
},
{
color = 5;
glyphname = slash;
lastChange = "2020-01-29 04:18:09 +0000";
layers = (
{
background = {
paths = (
{
closed = 1;
nodes = (
"20 0 OFFCURVE",
"24 2 OFFCURVE",
"29 8 CURVE SMOOTH",
"539 674 LINE SMOOTH",
"541 676 OFFCURVE",
"542 679 OFFCURVE",
"543 682 CURVE SMOOTH",
"547 694 OFFCURVE",
"540 702 OFFCURVE",
"528 702 CURVE SMOOTH",
"521 702 OFFCURVE",
"516 699 OFFCURVE",
"512 694 CURVE SMOOTH",
"4 31 LINE SMOOTH",
"0 26 OFFCURVE",
"-3 22 OFFCURVE",
"-3 19 CURVE SMOOTH",
"-3 7 OFFCURVE",
"2 0 OFFCURVE",
"12 0 CURVE SMOOTH"
);
}
);
};
layerId = master01;
paths = (
{
closed = 1;
nodes = (
"20 0 OFFCURVE",
"24 2 OFFCURVE",
"29 8 CURVE SMOOTH",
"539 674 LINE SMOOTH",
"542 678 OFFCURVE",
"544 682 OFFCURVE",
"544 688 CURVE SMOOTH",
"544 696 OFFCURVE",
"539 702 OFFCURVE",
"528 702 CURVE SMOOTH",
"521 702 OFFCURVE",
"516 699 OFFCURVE",
"512 694 CURVE SMOOTH",
"4 31 LINE SMOOTH",
"1 27 OFFCURVE",
"-3 22 OFFCURVE",
"-3 15 CURVE SMOOTH",
"-3 7 OFFCURVE",
"4 0 OFFCURVE",
"12 0 CURVE SMOOTH"
);
}
);
userData = {
com.fontlab.hintData = {
hhints = (
{
position = -2;
width = 21;
}
);
};
};
width = 495;
},
{
background = {
paths = (
{
closed = 1;
nodes = (
"21 -1 OFFCURVE",
"31 4 OFFCURVE",
"38 13 CURVE SMOOTH",
"520 641 LINE SMOOTH",
"525 648 OFFCURVE",
"534 657 OFFCURVE",
"534 666 CURVE SMOOTH",
"534 668 OFFCURVE",
"535 669 OFFCURVE",
"535 671 CURVE SMOOTH",
"535 682 OFFCURVE",
"526 692 OFFCURVE",
"512 692 CURVE SMOOTH",
"502 692 OFFCURVE",
"491 688 OFFCURVE",
"484 678 CURVE SMOOTH",
"-5 41 LINE SMOOTH",
"-8 37 OFFCURVE",
"-11 32 OFFCURVE",
"-11 27 CURVE SMOOTH",
"-11 25 OFFCURVE",
"-12 23 OFFCURVE",
"-12 21 CURVE SMOOTH",
"-12 9 OFFCURVE",
"-4 -1 OFFCURVE",
"11 -1 CURVE SMOOTH"
);
}
);
};
layerId = "ACFB53BD-70C1-480F-BE56-298851F5C10E";
paths = (
{
closed = 1;
nodes = (
"21 -1 OFFCURVE",
"31 4 OFFCURVE",
"38 13 CURVE SMOOTH",
"520 641 LINE SMOOTH",
"525 648 OFFCURVE",
"534 660 OFFCURVE",
"534 671 CURVE SMOOTH",
"534 682 OFFCURVE",
"525 692 OFFCURVE",
"512 692 CURVE SMOOTH",
"502 692 OFFCURVE",
"491 688 OFFCURVE",
"483 678 CURVE SMOOTH",
"-5 41 LINE SMOOTH",
"-9 35 OFFCURVE",
"-12 26 OFFCURVE",
"-12 21 CURVE SMOOTH",
"-12 9 OFFCURVE",
"-4 -1 OFFCURVE",
"11 -1 CURVE SMOOTH"
);
}
);
userData = {
com.fontlab.hintData = {
hhints = (
{
position = -1;
width = 21;
}
);
};
};
width = 479;
},
{
background = {
paths = (
{
closed = 1;
nodes = (
"40 -1 OFFCURVE",
"57 8 OFFCURVE",
"70 24 CURVE SMOOTH",
"508 594 LINE",
"513 602 OFFCURVE",
"522 615 OFFCURVE",
"525 628 CURVE SMOOTH",
"526 631 OFFCURVE",
"526 634 OFFCURVE",
"526 636 CURVE SMOOTH",
"526 656 OFFCURVE",
"511 674 OFFCURVE",
"487 674 CURVE SMOOTH",
"471 674 OFFCURVE",
"453 668 OFFCURVE",
"440 650 CURVE SMOOTH",
"-5 70 LINE SMOOTH",
"-10 63 OFFCURVE",
"-14 55 OFFCURVE",
"-16 47 CURVE SMOOTH",
"-17 44 OFFCURVE",
"-17 41 OFFCURVE",
"-17 38 CURVE SMOOTH",
"-17 17 OFFCURVE",
"-2 -1 OFFCURVE",
"23 -1 CURVE SMOOTH"
);
}
);
};
layerId = "140D7E2C-8008-49AA-8FE3-CF6E53AFBA7D";
paths = (
{
closed = 1;
nodes = (
"38 -1 OFFCURVE",
"56 7 OFFCURVE",
"69 24 CURVE SMOOTH",
"507 594 LINE SMOOTH",
"516 609 OFFCURVE",
"525 622 OFFCURVE",
"525 637 CURVE SMOOTH",
"525 656 OFFCURVE",
"510 674 OFFCURVE",
"486 674 CURVE SMOOTH",
"469 674 OFFCURVE",
"451 666 OFFCURVE",
"439 650 CURVE SMOOTH",
"-6 70 LINE SMOOTH",
"-11 64 OFFCURVE",
"-18 49 OFFCURVE",
"-18 38 CURVE SMOOTH",
"-18 17 OFFCURVE",
"-3 -1 OFFCURVE",
"22 -1 CURVE SMOOTH"
);
}
);
width = 467;
}
);
unicode = 002F;
},
{
color = 5;
glyphname = zero;
lastChange = "2020-01-29 03:38:28 +0000";
layers = (
{
background = {
paths = (
{
closed = 1;
nodes = (
"370 -6 OFFCURVE",
"521 162 OFFCURVE",
"561 360 CURVE SMOOTH",
"568 395 OFFCURVE",
"572 428 OFFCURVE",
"572 460 CURVE SMOOTH",
"572 592 OFFCURVE",
"512 691 OFFCURVE",
"406 691 CURVE SMOOTH",
"266 691 OFFCURVE",
"118 518 OFFCURVE",
"78 324 CURVE SMOOTH",
"71 290 OFFCURVE",
"67 257 OFFCURVE",
"67 226 CURVE SMOOTH",
"67 94 OFFCURVE",
"128 -6 OFFCURVE",
"234 -6 CURVE SMOOTH"
);
},
{
closed = 1;
nodes = (
"152 30 OFFCURVE",
"103 120 OFFCURVE",
"103 234 CURVE SMOOTH",
"103 264 OFFCURVE",
"106 295 OFFCURVE",
"113 326 CURVE",
"152 506 OFFCURVE",
"283 655 OFFCURVE",
"398 655 CURVE SMOOTH",
"485 655 OFFCURVE",
"536 565 OFFCURVE",
"536 449 CURVE SMOOTH",
"536 420 OFFCURVE",
"533 389 OFFCURVE",
"526 358 CURVE SMOOTH",
"486 180 OFFCURVE",
"356 30 OFFCURVE",
"242 30 CURVE SMOOTH"
);
}
);
};
layerId = master01;
paths = (
{
closed = 1;
nodes = (
"411 -6 OFFCURVE",
"571 256 OFFCURVE",
"571 460 CURVE SMOOTH",
"571 592 OFFCURVE",
"511 691 OFFCURVE",
"405 691 CURVE SMOOTH",
"228 691 OFFCURVE",
"66 431 OFFCURVE",
"66 226 CURVE SMOOTH",
"66 94 OFFCURVE",
"127 -6 OFFCURVE",
"233 -6 CURVE SMOOTH"
);
},
{
closed = 1;
nodes = (
"151 30 OFFCURVE",
"102 120 OFFCURVE",
"102 234 CURVE SMOOTH",
"102 412 OFFCURVE",
"241 655 OFFCURVE",
"397 655 CURVE SMOOTH",
"484 655 OFFCURVE",
"535 565 OFFCURVE",
"535 449 CURVE SMOOTH",
"535 273 OFFCURVE",
"397 30 OFFCURVE",
"241 30 CURVE SMOOTH"
);
}
);
userData = {
com.fontlab.hintData = {
hhints = (
{
position = -3;
width = 36;
},
{
position = 658;
width = 36;
}
);
vhints = (
{
position = 129;
width = 36;
},
{
position = 598;
width = 36;
}
);
};
};
width = 595;
},
{
background = {
paths = (
{
closed = 1;
nodes = (
"382 -6 OFFCURVE",
"531 161 OFFCURVE",
"571 355 CURVE SMOOTH",
"578 389 OFFCURVE",
"582 422 OFFCURVE",
"582 453 CURVE SMOOTH",
"582 584 OFFCURVE",
"521 683 OFFCURVE",
"414 683 CURVE SMOOTH",
"274 683 OFFCURVE",
"128 512 OFFCURVE",
"87 321 CURVE SMOOTH",
"80 288 OFFCURVE",
"77 255 OFFCURVE",
"77 225 CURVE SMOOTH",
"77 94 OFFCURVE",
"138 -6 OFFCURVE",
"245 -6 CURVE SMOOTH"
);
},
{
closed = 1;
nodes = (
"177 49 OFFCURVE",
"132 130 OFFCURVE",
"132 235 CURVE SMOOTH",
"132 263 OFFCURVE",
"135 293 OFFCURVE",
"142 323 CURVE SMOOTH",
"181 489 OFFCURVE",
"298 628 OFFCURVE",
"403 628 CURVE SMOOTH",
"481 628 OFFCURVE",
"527 546 OFFCURVE",
"527 441 CURVE SMOOTH",
"527 413 OFFCURVE",
"523 383 OFFCURVE",
"517 353 CURVE SMOOTH",
"484 187 OFFCURVE",
"361 49 OFFCURVE",
"257 49 CURVE SMOOTH"
);
}
);
};
layerId = "ACFB53BD-70C1-480F-BE56-298851F5C10E";
paths = (
{
closed = 1;
nodes = (
"421 -6 OFFCURVE",
"581 250 OFFCURVE",
"581 453 CURVE SMOOTH",
"581 583 OFFCURVE",
"520 683 OFFCURVE",
"413 683 CURVE SMOOTH",
"237 683 OFFCURVE",
"76 428 OFFCURVE",
"76 225 CURVE SMOOTH",
"76 94 OFFCURVE",
"138 -6 OFFCURVE",
"244 -6 CURVE SMOOTH"
);
},
{
closed = 1;
nodes = (
"176 49 OFFCURVE",
"132 131 OFFCURVE",
"132 235 CURVE SMOOTH",
"132 400 OFFCURVE",
"257 628 OFFCURVE",
"402 628 CURVE SMOOTH",
"481 628 OFFCURVE",
"526 546 OFFCURVE",
"526 441 CURVE SMOOTH",
"526 276 OFFCURVE",
"400 49 OFFCURVE",
"256 49 CURVE SMOOTH"
);
}
);
userData = {
com.fontlab.hintData = {
hhints = (
{
position = -3;
width = 55;
},
{
position = 631;
width = 55;
}
);
vhints = (
{
position = 72;
width = 56;
},
{
position = 522;
width = 55;
}
);
};
};
width = 616;
},
{
background = {
paths = (
{
closed = 1;
nodes = (
"361 -6 OFFCURVE",
"508 157 OFFCURVE",
"547 345 CURVE",
"554 378 OFFCURVE",
"557 410 OFFCURVE",
"557 440 CURVE SMOOTH",
"557 568 OFFCURVE",
"496 666 OFFCURVE",
"388 666 CURVE SMOOTH",
"248 666 OFFCURVE",
"103 499 OFFCURVE",
"63 314 CURVE SMOOTH",
"56 282 OFFCURVE",
"53 251 OFFCURVE",
"53 222 CURVE SMOOTH",
"53 93 OFFCURVE",
"115 -6 OFFCURVE",
"224 -6 CURVE SMOOTH"
);
},
{
closed = 1;
nodes = (
"183 90 OFFCURVE",
"150 155 OFFCURVE",
"150 239 CURVE SMOOTH",
"150 264 OFFCURVE",
"152 290 OFFCURVE",
"158 316 CURVE SMOOTH",
"190 455 OFFCURVE",
"283 570 OFFCURVE",
"367 570 CURVE SMOOTH",
"427 570 OFFCURVE",
"462 505 OFFCURVE",
"462 420 CURVE SMOOTH",
"462 395 OFFCURVE",
"459 369 OFFCURVE",
"453 343 CURVE SMOOTH",
"421 206 OFFCURVE",
"327 90 OFFCURVE",
"244 90 CURVE SMOOTH"
);
}
);
};
layerId = "140D7E2C-8008-49AA-8FE3-CF6E53AFBA7D";
paths = (
{
closed = 1;
nodes = (
"399 -6 OFFCURVE",
"556 239 OFFCURVE",
"556 440 CURVE SMOOTH",
"556 567 OFFCURVE",
"495 666 OFFCURVE",
"387 666 CURVE SMOOTH",
"212 666 OFFCURVE",
"52 421 OFFCURVE",
"52 222 CURVE SMOOTH",
"52 94 OFFCURVE",
"114 -6 OFFCURVE",
"223 -6 CURVE SMOOTH"
);
},
{
closed = 1;
nodes = (
"182 90 OFFCURVE",
"149 155 OFFCURVE",
"149 239 CURVE SMOOTH",
"149 375 OFFCURVE",
"249 570 OFFCURVE",
"366 570 CURVE SMOOTH",
"426 570 OFFCURVE",
"460 505 OFFCURVE",
"460 420 CURVE SMOOTH",
"460 284 OFFCURVE",
"360 90 OFFCURVE",
"243 90 CURVE SMOOTH"
);
}
);
userData = {
com.fontlab.hintData = {
hhints = (
{
position = -3;
width = 96;
},
{
position = 573;
width = 96;
}
);
vhints = (
{
position = 69;
width = 97;
},
{
position = 478;
width = 96;
}
);
};
};
width = 571;
}
);
unicode = 0030;
},
{
color = 5;
glyphname = one;
lastChange = "2020-01-29 03:39:24 +0000";
layers = (
{
background = {
paths = (
{
closed = 1;
nodes = (
"250 0 LINE SMOOTH",
"260 0 OFFCURVE",
"270 8 OFFCURVE",
"273 19 CURVE SMOOTH",
"276 29 OFFCURVE",
"269 38 OFFCURVE",
"256 38 CURVE SMOOTH",
"171 38 LINE",
"315 669 LINE",
"316 677 OFFCURVE",
"310 688 OFFCURVE",
"299 688 CURVE SMOOTH",
"295 688 OFFCURVE",
"288 686 OFFCURVE",
"283 681 CURVE SMOOTH",
"120 537 LINE SMOOTH",
"116 534 OFFCURVE",
"113 528 OFFCURVE",
"112 524 CURVE SMOOTH",
"110 514 OFFCURVE",
"116 505 OFFCURVE",
"127 505 CURVE SMOOTH",
"132 505 OFFCURVE",
"136 507 OFFCURVE",
"142 512 CURVE SMOOTH",
"265 620 LINE",
"134 38 LINE",
"31 38 LINE SMOOTH",
"20 38 OFFCURVE",
"10 29 OFFCURVE",
"8 19 CURVE SMOOTH",
"6 8 OFFCURVE",
"12 0 OFFCURVE",
"23 0 CURVE SMOOTH"
);
}
);
};
layerId = master01;
paths = (
{
closed = 1;
nodes = (
"251 0 LINE SMOOTH",
"262 0 OFFCURVE",
"274 10 OFFCURVE",
"274 23 CURVE SMOOTH",
"274 31 OFFCURVE",
"268 38 OFFCURVE",
"257 38 CURVE SMOOTH",
"172 38 LINE",
"315 666 LINE SMOOTH",
"317 676 OFFCURVE",
"309 686 OFFCURVE",
"299 686 CURVE SMOOTH",
"294 686 OFFCURVE",
"287 683 OFFCURVE",
"282 678 CURVE SMOOTH",
"120 535 LINE SMOOTH",
"115 531 OFFCURVE",
"111 525 OFFCURVE",
"111 519 CURVE SMOOTH",
"111 510 OFFCURVE",
"117 503 OFFCURVE",
"127 503 CURVE SMOOTH",
"132 503 OFFCURVE",
"136 505 OFFCURVE",
"142 510 CURVE SMOOTH",
"265 618 LINE",
"135 38 LINE",
"32 38 LINE SMOOTH",
"19 38 OFFCURVE",
"8 26 OFFCURVE",
"8 14 CURVE SMOOTH",
"8 6 OFFCURVE",
"15 0 OFFCURVE",
"24 0 CURVE SMOOTH"
);
}
);
userData = {
com.fontlab.hintData = {
hhints = (
{
position = 0;
width = 38;
},
{
position = 668;
width = 20;
}
);
vhints = (
{
position = 72;
width = 307;
}
);
};
};
width = 372;
},
{
background = {
paths = (
{
closed = 1;
nodes = (
"259 -6 LINE SMOOTH",
"274 -6 OFFCURVE",
"289 6 OFFCURVE",
"292 22 CURVE",
"293 24 OFFCURVE",
"293 27 OFFCURVE",
"293 29 CURVE SMOOTH",
"293 41 OFFCURVE",
"284 50 OFFCURVE",
"268 50 CURVE SMOOTH",
"197 50 LINE",
"333 646 LINE SMOOTH",
"333 648 OFFCURVE",
"334 650 OFFCURVE",
"334 652 CURVE SMOOTH",
"334 664 OFFCURVE",
"326 674 OFFCURVE",
"310 674 CURVE SMOOTH",
"303 674 OFFCURVE",
"294 671 OFFCURVE",
"288 665 CURVE SMOOTH",
"131 526 LINE SMOOTH",
"125 521 OFFCURVE",
"119 514 OFFCURVE",
"119 507 CURVE SMOOTH",
"119 505 OFFCURVE",
"118 503 OFFCURVE",
"118 500 CURVE SMOOTH",
"118 488 OFFCURVE",
"127 479 OFFCURVE",
"141 479 CURVE SMOOTH",
"148 479 OFFCURVE",
"156 482 OFFCURVE",
"164 488 CURVE",
"261 573 LINE",
"141 50 LINE",
"52 50 LINE SMOOTH",
"36 50 OFFCURVE",
"22 37 OFFCURVE",
"18 22 CURVE",
"18 20 OFFCURVE",
"17 18 OFFCURVE",
"17 16 CURVE SMOOTH",
"17 3 OFFCURVE",
"27 -6 OFFCURVE",
"41 -6 CURVE SMOOTH"
);
}
);
};
layerId = "ACFB53BD-70C1-480F-BE56-298851F5C10E";
paths = (
{
closed = 1;
nodes = (
"261 0 LINE SMOOTH",
"280 0 OFFCURVE",
"294 18 OFFCURVE",
"294 35 CURVE SMOOTH",
"294 47 OFFCURVE",
"285 56 OFFCURVE",
"270 56 CURVE SMOOTH",
"199 56 LINE",
"333 648 LINE SMOOTH",
"336 663 OFFCURVE",
"327 674 OFFCURVE",
"311 674 CURVE SMOOTH",
"304 674 OFFCURVE",
"295 671 OFFCURVE",
"288 665 CURVE SMOOTH",
"131 526 LINE SMOOTH",
"123 519 OFFCURVE",
"119 510 OFFCURVE",
"119 501 CURVE SMOOTH",
"119 490 OFFCURVE",
"127 479 OFFCURVE",
"142 479 CURVE SMOOTH",
"150 479 OFFCURVE",
"157 482 OFFCURVE",
"164 488 CURVE SMOOTH",
"262 573 LINE",
"143 56 LINE",
"54 56 LINE SMOOTH",
"37 56 OFFCURVE",
"20 40 OFFCURVE",
"20 24 CURVE SMOOTH",
"20 9 OFFCURVE",
"28 0 OFFCURVE",
"43 0 CURVE SMOOTH"
);
}
);
userData = {
com.fontlab.hintData = {
hhints = (
{
position = 0;
width = 56;
}
);
vhints = (
{
position = 13;
width = 316;
}
);
};
};
width = 395;
},
{
background = {
paths = (
{
closed = 1;
nodes = (
"254 -6 LINE SMOOTH",
"279 -6 OFFCURVE",
"305 15 OFFCURVE",
"312 42 CURVE SMOOTH",
"313 46 OFFCURVE",
"313 49 OFFCURVE",
"313 53 CURVE SMOOTH",
"313 74 OFFCURVE",
"300 90 OFFCURVE",
"272 90 CURVE SMOOTH",
"231 90 LINE",
"348 609 LINE SMOOTH",
"349 612 OFFCURVE",
"349 616 OFFCURVE",
"349 619 CURVE SMOOTH",
"349 639 OFFCURVE",
"336 657 OFFCURVE",
"309 657 CURVE SMOOTH",
"299 657 OFFCURVE",
"282 651 OFFCURVE",
"272 642 CURVE SMOOTH",
"128 515 LINE SMOOTH",
"119 507 OFFCURVE",
"112 495 OFFCURVE",
"108 483 CURVE SMOOTH",
"107 480 OFFCURVE",
"107 477 OFFCURVE",
"107 474 CURVE SMOOTH",
"107 452 OFFCURVE",
"122 435 OFFCURVE",
"146 435 CURVE SMOOTH",
"158 435 OFFCURVE",
"172 439 OFFCURVE",
"184 449 CURVE SMOOTH",
"225 484 LINE",
"191 334 OFFCURVE",
"167 235 OFFCURVE",
"134 90 CURVE",
"76 90 LINE SMOOTH",
"48 90 OFFCURVE",
"24 68 OFFCURVE",
"18 42 CURVE SMOOTH",
"17 38 OFFCURVE",
"17 35 OFFCURVE",
"17 31 CURVE SMOOTH",
"17 10 OFFCURVE",
"32 -6 OFFCURVE",
"56 -6 CURVE SMOOTH"
);
}
);
};
layerId = "140D7E2C-8008-49AA-8FE3-CF6E53AFBA7D";
paths = (
{
closed = 1;
nodes = (
"254 0 LINE SMOOTH",
"281 0 OFFCURVE",
"313 26 OFFCURVE",
"313 59 CURVE SMOOTH",
"313 79 OFFCURVE",
"300 96 OFFCURVE",
"272 96 CURVE SMOOTH",
"229 96 LINE",
"346 619 LINE SMOOTH",
"351 641 OFFCURVE",
"334 657 OFFCURVE",
"308 657 CURVE SMOOTH",
"294 657 OFFCURVE",
"279 649 OFFCURVE",
"267 639 CURVE SMOOTH",
"127 515 LINE SMOOTH",
"118 507 OFFCURVE",
"106 490 OFFCURVE",
"106 474 CURVE SMOOTH",
"106 452 OFFCURVE",
"122 435 OFFCURVE",
"145 435 CURVE SMOOTH",
"157 435 OFFCURVE",
"171 439 OFFCURVE",
"183 449 CURVE SMOOTH",
"224 484 LINE",
"136 96 LINE",
"76 96 LINE SMOOTH",
"46 96 OFFCURVE",
"17 68 OFFCURVE",
"17 37 CURVE SMOOTH",
"17 16 OFFCURVE",
"32 0 OFFCURVE",
"56 0 CURVE SMOOTH"
);
}
);
userData = {
com.fontlab.hintData = {
hhints = (
{
position = 0;
width = 96;
}
);
vhints = (
{
position = 12;
width = 332;
}
);
};
};
width = 394;
}
);
unicode = 0031;
},
{
color = 5;
glyphname = two;
lastChange = "2020-01-29 04:01:17 +0000";
layers = (
{
background = {
paths = (
{
closed = 1;
nodes = (
"-247 0 LINE SMOOTH",
"-237 0 OFFCURVE",
"-227 8 OFFCURVE",
"-225 18 CURVE SMOOTH",
"-223 28 OFFCURVE",
"-230 36 OFFCURVE",
"-240 36 CURVE SMOOTH",
"-578 36 LINE",
"-550 172 OFFCURVE",
"-443 236 OFFCURVE",
"-347 290 CURVE SMOOTH",
"-237 352 OFFCURVE",
"-128 411 OFFCURVE",
"-128 542 CURVE SMOOTH",
"-128 618 OFFCURVE",
"-186 676 OFFCURVE",
"-281 676 CURVE SMOOTH",
"-364 676 OFFCURVE",
"-429 634 OFFCURVE",
"-478 597 CURVE SMOOTH",
"-495 584 OFFCURVE",
"-510 572 OFFCURVE",
"-511 562 CURVE SMOOTH",
"-512 553 OFFCURVE",
"-507 542 OFFCURVE",
"-496 542 CURVE SMOOTH",
"-486 542 OFFCURVE",
"-479 551 OFFCURVE",
"-471 559 CURVE SMOOTH",
"-462 568 OFFCURVE",
"-383 638 OFFCURVE",
"-289 638 CURVE SMOOTH",
"-216 638 OFFCURVE",
"-165 596 OFFCURVE",
"-165 535 CURVE SMOOTH",
"-165 436 OFFCURVE",
"-260 380 OFFCURVE",
"-356 325 CURVE SMOOTH",
"-468 261 OFFCURVE",
"-593 181 OFFCURVE",
"-620 18 CURVE SMOOTH",
"-623 0 LINE"
);
},
{
closed = 1;
nodes = (
"353 0 LINE SMOOTH",
"363 0 OFFCURVE",
"373 8 OFFCURVE",
"375 18 CURVE SMOOTH",
"377 28 OFFCURVE",
"370 36 OFFCURVE",
"360 36 CURVE SMOOTH",
"22 36 LINE",
"61 181 OFFCURVE",
"159 243 OFFCURVE",
"256 299 CURVE",
"354 353 OFFCURVE",
"451 402 OFFCURVE",
"472 519 CURVE SMOOTH",
"474 530 OFFCURVE",
"475 541 OFFCURVE",
"475 551 CURVE SMOOTH",
"475 627 OFFCURVE",
"417 685 OFFCURVE",
"322 685 CURVE SMOOTH",
"239 685 OFFCURVE",
"174 643 OFFCURVE",
"125 606 CURVE SMOOTH",
"108 593 OFFCURVE",
"93 581 OFFCURVE",
"92 571 CURVE SMOOTH",
"91 562 OFFCURVE",
"96 551 OFFCURVE",
"107 551 CURVE SMOOTH",
"117 551 OFFCURVE",
"124 560 OFFCURVE",
"132 568 CURVE SMOOTH",
"141 577 OFFCURVE",
"220 647 OFFCURVE",
"314 647 CURVE SMOOTH",
"387 647 OFFCURVE",
"438 605 OFFCURVE",
"438 544 CURVE SMOOTH",
"438 536 OFFCURVE",
"437 528 OFFCURVE",
"435 519 CURVE SMOOTH",
"416 432 OFFCURVE",
"346 391 OFFCURVE",
"247 334 CURVE SMOOTH",
"133 269 OFFCURVE",
"18 197 OFFCURVE",
"-20 18 CURVE",
"-23 0 LINE"
);
}
);
};
layerId = master01;
paths = (
{
closed = 1;
nodes = (
"353 0 LINE SMOOTH",
"363 0 OFFCURVE",
"375 8 OFFCURVE",
"375 21 CURVE SMOOTH",
"375 29 OFFCURVE",
"370 36 OFFCURVE",
"360 36 CURVE SMOOTH",
"22 36 LINE",
"61 181 OFFCURVE",
"159 243 OFFCURVE",
"256 299 CURVE SMOOTH",
"366 360 OFFCURVE",
"475 420 OFFCURVE",
"475 551 CURVE SMOOTH",
"475 629 OFFCURVE",
"420 682 OFFCURVE",
"325 682 CURVE SMOOTH",
"242 682 OFFCURVE",
"177 640 OFFCURVE",
"128 603 CURVE SMOOTH",
"111 590 OFFCURVE",
"95 578 OFFCURVE",
"95 564 CURVE SMOOTH",
"95 555 OFFCURVE",
"102 548 OFFCURVE",
"110 548 CURVE SMOOTH",
"120 548 OFFCURVE",
"127 557 OFFCURVE",
"135 565 CURVE SMOOTH",
"144 574 OFFCURVE",
"223 646 OFFCURVE",
"317 646 CURVE SMOOTH",
"390 646 OFFCURVE",
"438 609 OFFCURVE",
"438 544 CURVE SMOOTH",
"438 445 OFFCURVE",
"343 389 OFFCURVE",
"247 334 CURVE SMOOTH",
"133 269 OFFCURVE",
"18 197 OFFCURVE",
"-20 18 CURVE SMOOTH",
"-23 0 LINE"
);
}
);
userData = {
com.fontlab.hintData = {
hhints = (
{
position = 0;
width = 36;
},
{
position = 647;
width = 38;
}
);
vhints = (
{
position = 532;
width = 38;
}
);
};
};
width = 481;
},
{
background = {
paths = (
{
closed = 1;
nodes = (
"387 -1 LINE SMOOTH",
"402 -1 OFFCURVE",
"420 11 OFFCURVE",
"420 26 CURVE SMOOTH",
"420 28 OFFCURVE",
"421 30 OFFCURVE",
"421 32 CURVE SMOOTH",
"421 45 OFFCURVE",
"411 54 OFFCURVE",
"398 54 CURVE SMOOTH",
"84 54 LINE",
"117 179 OFFCURVE",
"209 236 OFFCURVE",
"300 288 CURVE SMOOTH",
"395 342 OFFCURVE",
"484 392 OFFCURVE",
"513 507 CURVE SMOOTH",
"516 519 OFFCURVE",
"517 530 OFFCURVE",
"517 541 CURVE SMOOTH",
"517 618 OFFCURVE",
"457 676 OFFCURVE",
"361 676 CURVE SMOOTH",
"278 676 OFFCURVE",
"208 631 OFFCURVE",
"166 597 CURVE SMOOTH",
"139 575 OFFCURVE",
"129 567 OFFCURVE",
"129 557 CURVE SMOOTH",
"129 555 OFFCURVE",
"128 553 OFFCURVE",
"128 551 CURVE SMOOTH",
"128 539 OFFCURVE",
"136 528 OFFCURVE",
"151 528 CURVE SMOOTH",
"165 528 OFFCURVE",
"175 539 OFFCURVE",
"184 547 CURVE SMOOTH",
"193 555 OFFCURVE",
"265 620 OFFCURVE",
"349 620 CURVE SMOOTH",
"414 620 OFFCURVE",
"459 583 OFFCURVE",
"459 529 CURVE SMOOTH",
"459 522 OFFCURVE",
"459 515 OFFCURVE",
"457 507 CURVE SMOOTH",
"436 422 OFFCURVE",
"361 381 OFFCURVE",
"274 332 CURVE SMOOTH",
"172 274 OFFCURVE",
"59 203 OFFCURVE",
"21 26 CURVE",
"16 -1 LINE"
);
}
);
};
layerId = "ACFB53BD-70C1-480F-BE56-298851F5C10E";
paths = (
{
closed = 1;
nodes = (
"387 0 LINE SMOOTH",
"404 0 OFFCURVE",
"421 17 OFFCURVE",
"421 33 CURVE SMOOTH",
"421 46 OFFCURVE",
"411 55 OFFCURVE",
"398 55 CURVE SMOOTH",
"84 55 LINE",
"117 179 OFFCURVE",
"209 236 OFFCURVE",
"300 288 CURVE SMOOTH",
"408 349 OFFCURVE",
"517 412 OFFCURVE",
"517 541 CURVE SMOOTH",
"517 618 OFFCURVE",
"457 676 OFFCURVE",
"361 676 CURVE SMOOTH",
"278 676 OFFCURVE",
"207 632 OFFCURVE",
"166 597 CURVE SMOOTH",
"144 579 OFFCURVE",
"128 565 OFFCURVE",
"128 551 CURVE SMOOTH",
"128 539 OFFCURVE",
"137 528 OFFCURVE",
"151 528 CURVE SMOOTH",
"165 528 OFFCURVE",
"175 539 OFFCURVE",
"184 547 CURVE SMOOTH",
"193 555 OFFCURVE",
"265 620 OFFCURVE",
"349 620 CURVE SMOOTH",
"413 620 OFFCURVE",
"459 583 OFFCURVE",
"459 529 CURVE SMOOTH",
"459 434 OFFCURVE",
"363 382 OFFCURVE",
"274 332 CURVE SMOOTH",
"172 274 OFFCURVE",
"59 203 OFFCURVE",
"21 27 CURVE SMOOTH",
"16 0 LINE"
);
}
);
userData = {
com.fontlab.hintData = {
hhints = (
{
position = 0;
width = 55;
},
{
position = 621;
width = 56;
}
);
vhints = (
{
position = 456;
width = 57;
}
);
};
};
width = 528;
},
{
background = {
paths = (
{
closed = 1;
nodes = (
"359 -3 LINE SMOOTH",
"384 -3 OFFCURVE",
"410 18 OFFCURVE",
"416 44 CURVE SMOOTH",
"417 48 OFFCURVE",
"417 51 OFFCURVE",
"417 54 CURVE SMOOTH",
"417 76 OFFCURVE",
"401 92 OFFCURVE",
"379 92 CURVE SMOOTH",
"118 92 LINE",
"150 179 OFFCURVE",
"223 223 OFFCURVE",
"293 263 CURVE SMOOTH",
"380 313 OFFCURVE",
"482 368 OFFCURVE",
"501 481 CURVE SMOOTH",
"503 493 OFFCURVE",
"505 506 OFFCURVE",
"505 517 CURVE SMOOTH",
"505 597 OFFCURVE",
"444 657 OFFCURVE",
"345 657 CURVE SMOOTH",
"263 657 OFFCURVE",
"192 613 OFFCURVE",
"150 579 CURVE SMOOTH",
"120 555 OFFCURVE",
"112 543 OFFCURVE",
"107 527 CURVE SMOOTH",
"106 524 OFFCURVE",
"106 521 OFFCURVE",
"106 517 CURVE SMOOTH",
"106 497 OFFCURVE",
"120 478 OFFCURVE",
"145 478 CURVE SMOOTH",
"168 478 OFFCURVE",
"179 489 OFFCURVE",
"191 500 CURVE SMOOTH",
"200 508 OFFCURVE",
"259 561 OFFCURVE",
"324 561 CURVE SMOOTH",
"373 561 OFFCURVE",
"407 535 OFFCURVE",
"407 496 CURVE SMOOTH",
"407 491 OFFCURVE",
"406 486 OFFCURVE",
"405 481 CURVE SMOOTH",
"393 420 OFFCURVE",
"332 387 OFFCURVE",
"249 339 CURVE SMOOTH",
"154 284 OFFCURVE",
"45 217 OFFCURVE",
"8 44 CURVE",
"-1 -3 LINE"
);
}
);
};
layerId = "140D7E2C-8008-49AA-8FE3-CF6E53AFBA7D";
paths = (
{
closed = 1;
nodes = (
"358 0 LINE SMOOTH",
"385 0 OFFCURVE",
"416 24 OFFCURVE",
"416 57 CURVE SMOOTH",
"416 79 OFFCURVE",
"399 95 OFFCURVE",
"378 95 CURVE SMOOTH",
"117 95 LINE",
"144 166 OFFCURVE",
"199 210 OFFCURVE",
"292 263 CURVE SMOOTH",
"397 323 OFFCURVE",
"504 391 OFFCURVE",
"504 517 CURVE SMOOTH",
"504 597 OFFCURVE",
"443 657 OFFCURVE",
"344 657 CURVE SMOOTH",
"262 657 OFFCURVE",
"192 612 OFFCURVE",
"149 579 CURVE SMOOTH",
"126 561 OFFCURVE",
"105 543 OFFCURVE",
"105 517 CURVE SMOOTH",
"105 497 OFFCURVE",
"119 478 OFFCURVE",
"144 478 CURVE SMOOTH",
"167 478 OFFCURVE",
"178 489 OFFCURVE",
"190 500 CURVE SMOOTH",
"199 508 OFFCURVE",
"258 561 OFFCURVE",
"323 561 CURVE SMOOTH",
"371 561 OFFCURVE",
"406 535 OFFCURVE",
"406 496 CURVE SMOOTH",
"406 426 OFFCURVE",
"321 381 OFFCURVE",
"248 339 CURVE SMOOTH",
"103 256 OFFCURVE",
"33 182 OFFCURVE",
"6 40 CURVE SMOOTH",
"-2 0 LINE"
);
}
);
userData = {
com.fontlab.hintData = {
hhints = (
{
position = 0;
width = 95;
},
{
position = 564;
width = 96;
}
);
vhints = (
{
position = 417;
width = 98;
}
);
};
};
width = 498;
}
);
unicode = 0032;
},
{
color = 5;
glyphname = three;
lastChange = "2020-01-29 03:45:09 +0000";
layers = (
{
background = {
paths = (
{
closed = 1;
nodes = (
"276 -7 OFFCURVE",
"415 46 OFFCURVE",
"447 197 CURVE SMOOTH",
"450 211 OFFCURVE",
"451 225 OFFCURVE",
"451 238 CURVE SMOOTH",
"451 301 OFFCURVE",
"418 356 OFFCURVE",
"352 387 CURVE",
"430 424 OFFCURVE",
"489 481 OFFCURVE",
"503 543 CURVE SMOOTH",
"505 552 OFFCURVE",
"506 560 OFFCURVE",
"506 569 CURVE SMOOTH",
"506 639 OFFCURVE",
"441 691 OFFCURVE",
"345 691 CURVE SMOOTH",
"288 691 OFFCURVE",
"233 671 OFFCURVE",
"201 653 CURVE SMOOTH",
"176 639 OFFCURVE",
"166 628 OFFCURVE",
"165 621 CURVE SMOOTH",
"164 613 OFFCURVE",
"167 602 OFFCURVE",
"180 602 CURVE SMOOTH",
"184 602 OFFCURVE",
"189 605 OFFCURVE",
"199 612 CURVE SMOOTH",
"219 626 OFFCURVE",
"265 653 OFFCURVE",
"337 653 CURVE SMOOTH",
"425 653 OFFCURVE",
"468 607 OFFCURVE",
"468 560 CURVE SMOOTH",
"468 554 OFFCURVE",
"467 548 OFFCURVE",
"466 543 CURVE SMOOTH",
"451 468 OFFCURVE",
"347 404 OFFCURVE",
"267 404 CURVE SMOOTH",
"256 404 OFFCURVE",
"246 396 OFFCURVE",
"244 386 CURVE SMOOTH",
"242 375 OFFCURVE",
"248 367 OFFCURVE",
"258 367 CURVE SMOOTH",
"306 367 OFFCURVE",
"413 343 OFFCURVE",
"413 236 CURVE SMOOTH",
"413 224 OFFCURVE",
"412 211 OFFCURVE",
"409 197 CURVE",
"384 82 OFFCURVE",
"283 30 OFFCURVE",
"203 30 CURVE SMOOTH",
"107 30 OFFCURVE",
"72 96 OFFCURVE",
"63 122 CURVE",
"60 128 OFFCURVE",
"56 132 OFFCURVE",
"48 132 CURVE SMOOTH",
"39 132 OFFCURVE",
"26 125 OFFCURVE",
"26 116 CURVE SMOOTH",
"26 114 OFFCURVE",
"26 107 OFFCURVE",
"26 101 CURVE SMOOTH",
"26 92 OFFCURVE",
"62 -7 OFFCURVE",
"198 -7 CURVE SMOOTH"
);
}
);
};
layerId = master01;
paths = (
{
closed = 1;
nodes = (
"325 -7 OFFCURVE",
"451 99 OFFCURVE",
"451 238 CURVE SMOOTH",
"451 301 OFFCURVE",
"418 356 OFFCURVE",
"352 387 CURVE",
"431 425 OFFCURVE",
"506 493 OFFCURVE",
"506 569 CURVE SMOOTH",
"506 639 OFFCURVE",
"441 691 OFFCURVE",
"345 691 CURVE SMOOTH",
"288 691 OFFCURVE",
"233 671 OFFCURVE",
"201 653 CURVE SMOOTH",
"176 639 OFFCURVE",
"164 627 OFFCURVE",
"164 618 CURVE SMOOTH",
"164 608 OFFCURVE",
"170 602 OFFCURVE",
"180 602 CURVE SMOOTH",
"184 602 OFFCURVE",
"189 605 OFFCURVE",
"199 612 CURVE SMOOTH",
"219 626 OFFCURVE",
"265 653 OFFCURVE",
"337 653 CURVE SMOOTH",
"425 653 OFFCURVE",
"468 607 OFFCURVE",
"468 560 CURVE SMOOTH",
"468 482 OFFCURVE",
"356 404 OFFCURVE",
"267 404 CURVE SMOOTH",
"256 404 OFFCURVE",
"246 396 OFFCURVE",
"244 386 CURVE SMOOTH",
"242 375 OFFCURVE",
"248 367 OFFCURVE",
"258 367 CURVE SMOOTH",
"306 367 OFFCURVE",
"413 343 OFFCURVE",
"413 236 CURVE SMOOTH",
"413 123 OFFCURVE",
"316 30 OFFCURVE",
"203 30 CURVE SMOOTH",
"107 30 OFFCURVE",
"72 96 OFFCURVE",
"63 122 CURVE SMOOTH",
"60 128 OFFCURVE",
"56 132 OFFCURVE",
"48 132 CURVE SMOOTH",
"34 132 OFFCURVE",
"25 123 OFFCURVE",
"25 107 CURVE SMOOTH",
"25 92 OFFCURVE",
"62 -7 OFFCURVE",
"196 -7 CURVE SMOOTH"
);
}
);
userData = {
com.fontlab.hintData = {
hhints = (
{
position = -6;
width = 37;
},
{
position = 368;
width = 37;
},
{
position = 654;
width = 38;
}
);
vhints = (
{
position = 94;
width = 37;
},
{
position = 481;
width = 38;
},
{
position = 536;
width = 38;
}
);
};
};
width = 508;
},
{
background = {
paths = (
{
closed = 1;
nodes = (
"263 -6 OFFCURVE",
"406 47 OFFCURVE",
"435 200 CURVE SMOOTH",
"438 216 OFFCURVE",
"440 232 OFFCURVE",
"440 247 CURVE SMOOTH",
"440 308 OFFCURVE",
"413 357 OFFCURVE",
"358 383 CURVE",
"424 415 OFFCURVE",
"476 469 OFFCURVE",
"490 532 CURVE SMOOTH",
"492 541 OFFCURVE",
"493 550 OFFCURVE",
"493 558 CURVE SMOOTH",
"493 631 OFFCURVE",
"427 684 OFFCURVE",
"330 684 CURVE SMOOTH",
"272 684 OFFCURVE",
"219 664 OFFCURVE",
"186 646 CURVE SMOOTH",
"155 629 OFFCURVE",
"145 617 OFFCURVE",
"145 607 CURVE SMOOTH",
"145 605 OFFCURVE",
"144 603 OFFCURVE",
"144 601 CURVE SMOOTH",
"144 590 OFFCURVE",
"151 579 OFFCURVE",
"167 579 CURVE SMOOTH",
"174 579 OFFCURVE",
"179 582 OFFCURVE",
"188 588 CURVE SMOOTH",
"206 600 OFFCURVE",
"247 628 OFFCURVE",
"318 628 CURVE SMOOTH",
"397 628 OFFCURVE",
"435 587 OFFCURVE",
"435 545 CURVE SMOOTH",
"435 541 OFFCURVE",
"435 536 OFFCURVE",
"434 532 CURVE",
"419 465 OFFCURVE",
"326 409 OFFCURVE",
"254 409 CURVE SMOOTH",
"238 409 OFFCURVE",
"220 397 OFFCURVE",
"220 381 CURVE SMOOTH",
"220 379 OFFCURVE",
"219 377 OFFCURVE",
"219 376 CURVE SMOOTH",
"219 363 OFFCURVE",
"229 353 OFFCURVE",
"242 353 CURVE SMOOTH",
"285 353 OFFCURVE",
"383 331 OFFCURVE",
"383 236 CURVE SMOOTH",
"383 225 OFFCURVE",
"382 213 OFFCURVE",
"379 200 CURVE SMOOTH",
"355 97 OFFCURVE",
"265 50 OFFCURVE",
"194 50 CURVE SMOOTH",
"106 50 OFFCURVE",
"75 109 OFFCURVE",
"67 133 CURVE SMOOTH",
"64 142 OFFCURVE",
"57 148 OFFCURVE",
"45 148 CURVE SMOOTH",
"30 148 OFFCURVE",
"16 137 OFFCURVE",
"12 122 CURVE",
"12 118 OFFCURVE",
"10 112 OFFCURVE",
"13 104 CURVE SMOOTH",
"14 101 OFFCURVE",
"43 -6 OFFCURVE",
"184 -6 CURVE SMOOTH"
);
}
);
};
layerId = "ACFB53BD-70C1-480F-BE56-298851F5C10E";
paths = (
{
closed = 1;
nodes = (
"315 -6 OFFCURVE",
"439 96 OFFCURVE",
"439 247 CURVE SMOOTH",
"439 304 OFFCURVE",
"415 356 OFFCURVE",
"357 383 CURVE",
"428 417 OFFCURVE",
"492 486 OFFCURVE",
"492 558 CURVE SMOOTH",
"492 631 OFFCURVE",
"425 684 OFFCURVE",
"329 684 CURVE SMOOTH",
"271 684 OFFCURVE",
"218 664 OFFCURVE",
"185 646 CURVE SMOOTH",
"165 635 OFFCURVE",
"143 620 OFFCURVE",
"143 601 CURVE SMOOTH",
"143 590 OFFCURVE",
"150 579 OFFCURVE",
"166 579 CURVE SMOOTH",
"173 579 OFFCURVE",
"178 582 OFFCURVE",
"187 588 CURVE SMOOTH",
"205 600 OFFCURVE",
"246 628 OFFCURVE",
"317 628 CURVE SMOOTH",
"396 628 OFFCURVE",
"434 587 OFFCURVE",
"434 545 CURVE SMOOTH",
"434 477 OFFCURVE",
"332 409 OFFCURVE",
"253 409 CURVE SMOOTH",
"235 409 OFFCURVE",
"218 395 OFFCURVE",
"218 376 CURVE SMOOTH",
"218 363 OFFCURVE",
"228 353 OFFCURVE",
"241 353 CURVE SMOOTH",
"284 353 OFFCURVE",
"382 331 OFFCURVE",
"382 236 CURVE SMOOTH",
"382 133 OFFCURVE",
"294 50 OFFCURVE",
"193 50 CURVE SMOOTH",
"105 50 OFFCURVE",
"74 109 OFFCURVE",
"66 133 CURVE SMOOTH",
"63 142 OFFCURVE",
"56 148 OFFCURVE",
"44 148 CURVE SMOOTH",
"29 148 OFFCURVE",
"12 136 OFFCURVE",
"12 118 CURVE SMOOTH",
"12 65 OFFCURVE",
"77 -6 OFFCURVE",
"183 -6 CURVE SMOOTH"
);
}
);
userData = {
com.fontlab.hintData = {
hhints = (
{
position = -6;
width = 56;
},
{
position = 353;
width = 56;
},
{
position = 628;
width = 56;
}
);
vhints = (
{
position = 38;
width = 55;
},
{
position = 409;
width = 57;
},
{
position = 461;
width = 58;
}
);
};
};
width = 509;
},
{
background = {
paths = (
{
closed = 1;
nodes = (
"261 -5 OFFCURVE",
"395 51 OFFCURVE",
"431 204 CURVE SMOOTH",
"435 221 OFFCURVE",
"437 238 OFFCURVE",
"437 254 CURVE SMOOTH",
"437 302 OFFCURVE",
"419 344 OFFCURVE",
"383 372 CURVE",
"433 406 OFFCURVE",
"469 452 OFFCURVE",
"480 506 CURVE SMOOTH",
"482 516 OFFCURVE",
"483 526 OFFCURVE",
"483 535 CURVE SMOOTH",
"483 611 OFFCURVE",
"416 667 OFFCURVE",
"317 667 CURVE SMOOTH",
"260 667 OFFCURVE",
"207 647 OFFCURVE",
"174 629 CURVE SMOOTH",
"136 608 OFFCURVE",
"126 590 OFFCURVE",
"122 574 CURVE SMOOTH",
"121 570 OFFCURVE",
"121 566 OFFCURVE",
"121 562 CURVE SMOOTH",
"121 543 OFFCURVE",
"132 526 OFFCURVE",
"159 526 CURVE SMOOTH",
"172 526 OFFCURVE",
"179 531 OFFCURVE",
"193 539 CURVE SMOOTH",
"213 550 OFFCURVE",
"247 570 OFFCURVE",
"297 570 CURVE SMOOTH",
"356 570 OFFCURVE",
"385 543 OFFCURVE",
"385 515 CURVE SMOOTH",
"385 512 OFFCURVE",
"385 509 OFFCURVE",
"384 506 CURVE SMOOTH",
"368 459 OFFCURVE",
"303 417 OFFCURVE",
"249 417 CURVE SMOOTH",
"221 417 OFFCURVE",
"197 396 OFFCURVE",
"190 369 CURVE SMOOTH",
"189 365 OFFCURVE",
"189 362 OFFCURVE",
"189 359 CURVE SMOOTH",
"189 337 OFFCURVE",
"205 321 OFFCURVE",
"228 321 CURVE SMOOTH",
"261 321 OFFCURVE",
"337 304 OFFCURVE",
"337 230 CURVE SMOOTH",
"337 222 OFFCURVE",
"336 214 OFFCURVE",
"334 204 CURVE SMOOTH",
"318 126 OFFCURVE",
"248 91 OFFCURVE",
"194 91 CURVE SMOOTH",
"126 91 OFFCURVE",
"101 136 OFFCURVE",
"95 154 CURVE SMOOTH",
"90 170 OFFCURVE",
"79 180 OFFCURVE",
"59 180 CURVE SMOOTH",
"32 180 OFFCURVE",
"5 160 OFFCURVE",
"1 134 CURVE SMOOTH",
"0 128 OFFCURVE",
"0 115 OFFCURVE",
"3 104 CURVE SMOOTH",
"20 41 OFFCURVE",
"89 -5 OFFCURVE",
"175 -5 CURVE SMOOTH"
);
}
);
};
layerId = "140D7E2C-8008-49AA-8FE3-CF6E53AFBA7D";
paths = (
{
closed = 1;
nodes = (
"313 -6 OFFCURVE",
"437 112 OFFCURVE",
"437 253 CURVE SMOOTH",
"437 301 OFFCURVE",
"419 343 OFFCURVE",
"383 371 CURVE",
"437 408 OFFCURVE",
"483 467 OFFCURVE",
"483 534 CURVE SMOOTH",
"483 610 OFFCURVE",
"416 666 OFFCURVE",
"317 666 CURVE SMOOTH",
"260 666 OFFCURVE",
"207 646 OFFCURVE",
"174 628 CURVE SMOOTH",
"144 612 OFFCURVE",
"121 592 OFFCURVE",
"121 561 CURVE SMOOTH",
"121 542 OFFCURVE",
"132 525 OFFCURVE",
"159 525 CURVE SMOOTH",
"172 525 OFFCURVE",
"179 530 OFFCURVE",
"193 538 CURVE SMOOTH",
"213 549 OFFCURVE",
"247 569 OFFCURVE",
"297 569 CURVE SMOOTH",
"355 569 OFFCURVE",
"385 542 OFFCURVE",
"385 514 CURVE SMOOTH",
"385 470 OFFCURVE",
"306 416 OFFCURVE",
"249 416 CURVE SMOOTH",
"219 416 OFFCURVE",
"189 388 OFFCURVE",
"189 358 CURVE SMOOTH",
"189 337 OFFCURVE",
"205 320 OFFCURVE",
"228 320 CURVE SMOOTH",
"261 320 OFFCURVE",
"337 303 OFFCURVE",
"337 229 CURVE SMOOTH",
"337 152 OFFCURVE",
"270 90 OFFCURVE",
"194 90 CURVE SMOOTH",
"126 90 OFFCURVE",
"101 135 OFFCURVE",
"95 153 CURVE SMOOTH",
"90 169 OFFCURVE",
"79 179 OFFCURVE",
"59 179 CURVE SMOOTH",
"29 179 OFFCURVE",
"0 154 OFFCURVE",
"0 124 CURVE SMOOTH",
"0 54 OFFCURVE",
"88 -6 OFFCURVE",
"175 -6 CURVE SMOOTH"
);
}
);
userData = {
com.fontlab.hintData = {
hhints = (
{
position = -5;
width = 96;
},
{
position = 321;
width = 96;
},
{
position = 570;
width = 97;
}
);
vhints = (
{
position = 37;
width = 94;
},
{
position = 373;
width = 100;
},
{
position = 421;
width = 98;
}
);
};
};
width = 493;
}
);
unicode = 0033;
},
{
color = 5;
glyphname = four;
lastChange = "2020-01-29 03:47:43 +0000";
layers = (
{
background = {
paths = (
{
closed = 1;
nodes = (
"288 -6 OFFCURVE",
"299 2 OFFCURVE",
"301 13 CURVE SMOOTH",
"334 167 LINE",
"379 166 LINE SMOOTH",
"391 166 OFFCURVE",
"400 174 OFFCURVE",
"402 185 CURVE SMOOTH",
"404 195 OFFCURVE",
"399 203 OFFCURVE",
"387 203 CURVE SMOOTH",
"342 204 LINE",
"441 668 LINE SMOOTH",
"443 679 OFFCURVE",
"435 687 OFFCURVE",
"424 687 CURVE SMOOTH",
"419 687 OFFCURVE",
"412 684 OFFCURVE",
"408 679 CURVE SMOOTH",
"17 201 LINE SMOOTH",
"13 196 OFFCURVE",
"10 192 OFFCURVE",
"9 187 CURVE SMOOTH",
"8 181 OFFCURVE",
"10 172 OFFCURVE",
"22 172 CURVE SMOOTH",
"296 168 LINE",
"263 13 LINE SMOOTH",
"261 2 OFFCURVE",
"266 -6 OFFCURVE",
"278 -6 CURVE SMOOTH"
);
},
{
closed = 1;
nodes = (
"67 209 LINE",
"388 601 LINE",
"304 205 LINE"
);
}
);
};
layerId = master01;
paths = (
{
closed = 1;
nodes = (
"288 -6 OFFCURVE",
"299 2 OFFCURVE",
"301 13 CURVE SMOOTH",
"334 167 LINE",
"379 166 LINE SMOOTH",
"391 166 OFFCURVE",
"400 174 OFFCURVE",
"402 185 CURVE SMOOTH",
"404 195 OFFCURVE",
"399 203 OFFCURVE",
"387 203 CURVE SMOOTH",
"342 204 LINE",
"441 668 LINE SMOOTH",
"443 679 OFFCURVE",
"435 687 OFFCURVE",
"424 687 CURVE SMOOTH",
"419 687 OFFCURVE",
"412 684 OFFCURVE",
"407 678 CURVE SMOOTH",
"17 201 LINE SMOOTH",
"13 196 OFFCURVE",
"8 190 OFFCURVE",
"8 184 CURVE SMOOTH",
"8 177 OFFCURVE",
"13 172 OFFCURVE",
"22 172 CURVE SMOOTH",
"296 168 LINE",
"263 13 LINE SMOOTH",
"261 2 OFFCURVE",
"266 -6 OFFCURVE",
"278 -6 CURVE SMOOTH"
);
},
{
closed = 1;
nodes = (
"67 209 LINE",
"388 601 LINE",
"304 205 LINE"
);
}
);
userData = {
com.fontlab.hintData = {
hhints = (
{
position = -1;
width = 21;
},
{
position = 177;
width = 37;
}
);
};
};
width = 475;
},
{
background = {
paths = (
{
closed = 1;
nodes = (
"302 -6 OFFCURVE",
"318 7 OFFCURVE",
"321 22 CURVE SMOOTH",
"351 160 LINE",
"384 159 LINE SMOOTH",
"385 159 OFFCURVE",
"385 159 OFFCURVE",
"386 159 CURVE SMOOTH",
"400 159 OFFCURVE",
"418 172 OFFCURVE",
"418 187 CURVE SMOOTH",
"418 189 OFFCURVE",
"419 191 OFFCURVE",
"419 193 CURVE SMOOTH",
"419 205 OFFCURVE",
"411 215 OFFCURVE",
"397 215 CURVE SMOOTH",
"362 216 LINE",
"455 651 LINE SMOOTH",
"455 653 OFFCURVE",
"455 655 OFFCURVE",
"455 656 CURVE SMOOTH",
"455 670 OFFCURVE",
"445 679 OFFCURVE",
"431 679 CURVE SMOOTH",
"422 679 OFFCURVE",
"413 674 OFFCURVE",
"406 666 CURVE SMOOTH",
"31 208 LINE SMOOTH",
"27 203 OFFCURVE",
"23 199 OFFCURVE",
"23 193 CURVE SMOOTH",
"23 191 OFFCURVE",
"22 189 OFFCURVE",
"22 187 CURVE SMOOTH",
"22 175 OFFCURVE",
"33 165 OFFCURVE",
"45 165 CURVE SMOOTH",
"295 161 LINE",
"265 22 LINE SMOOTH",
"265 20 OFFCURVE",
"264 18 OFFCURVE",
"264 16 CURVE SMOOTH",
"264 4 OFFCURVE",
"273 -6 OFFCURVE",
"287 -6 CURVE SMOOTH"
);
},
{
closed = 1;
nodes = (
"106 220 LINE",
"378 551 LINE",
"307 217 LINE"
);
}
);
};
layerId = "ACFB53BD-70C1-480F-BE56-298851F5C10E";
paths = (
{
closed = 1;
nodes = (
"301 -6 OFFCURVE",
"318 7 OFFCURVE",
"321 22 CURVE SMOOTH",
"351 160 LINE",
"385 159 LINE SMOOTH",
"399 159 OFFCURVE",
"419 172 OFFCURVE",
"419 193 CURVE SMOOTH",
"419 206 OFFCURVE",
"409 215 OFFCURVE",
"397 215 CURVE SMOOTH",
"362 216 LINE",
"455 651 LINE SMOOTH",
"458 667 OFFCURVE",
"447 679 OFFCURVE",
"431 679 CURVE SMOOTH",
"422 679 OFFCURVE",
"413 674 OFFCURVE",
"406 666 CURVE SMOOTH",
"32 210 LINE SMOOTH",
"25 201 OFFCURVE",
"22 195 OFFCURVE",
"22 187 CURVE SMOOTH",
"22 172 OFFCURVE",
"34 165 OFFCURVE",
"45 165 CURVE SMOOTH",
"295 161 LINE",
"265 22 LINE SMOOTH",
"261 4 OFFCURVE",
"272 -6 OFFCURVE",
"287 -6 CURVE SMOOTH"
);
},
{
closed = 1;
nodes = (
"106 220 LINE",
"378 551 LINE",
"307 217 LINE"
);
}
);
userData = {
com.fontlab.hintData = {
hhints = (
{
position = 165;
width = 56;
}
);
};
};
width = 486;
},
{
background = {
paths = (
{
closed = 1;
nodes = (
"305 -6 OFFCURVE",
"333 17 OFFCURVE",
"338 42 CURVE SMOOTH",
"360 144 LINE",
"366 144 LINE SMOOTH",
"392 144 OFFCURVE",
"421 165 OFFCURVE",
"426 192 CURVE",
"427 196 OFFCURVE",
"427 200 OFFCURVE",
"427 204 CURVE SMOOTH",
"427 224 OFFCURVE",
"414 240 OFFCURVE",
"391 240 CURVE SMOOTH",
"381 240 LINE",
"460 614 LINE SMOOTH",
"461 618 OFFCURVE",
"461 621 OFFCURVE",
"461 625 CURVE SMOOTH",
"461 646 OFFCURVE",
"445 662 OFFCURVE",
"421 662 CURVE SMOOTH",
"403 662 OFFCURVE",
"389 654 OFFCURVE",
"376 639 CURVE SMOOTH",
"35 223 LINE SMOOTH",
"28 214 OFFCURVE",
"23 206 OFFCURVE",
"21 196 CURVE SMOOTH",
"20 192 OFFCURVE",
"20 188 OFFCURVE",
"20 185 CURVE SMOOTH",
"20 164 OFFCURVE",
"32 149 OFFCURVE",
"59 149 CURVE SMOOTH",
"264 146 LINE",
"241 42 LINE SMOOTH",
"240 39 OFFCURVE",
"240 36 OFFCURVE",
"240 33 CURVE SMOOTH",
"240 12 OFFCURVE",
"255 -6 OFFCURVE",
"279 -6 CURVE SMOOTH"
);
},
{
closed = 1;
nodes = (
"165 245 LINE",
"327 442 LINE",
"284 242 LINE"
);
}
);
};
layerId = "140D7E2C-8008-49AA-8FE3-CF6E53AFBA7D";
paths = (
{
closed = 1;
nodes = (
"304 -6 OFFCURVE",
"333 17 OFFCURVE",
"338 42 CURVE SMOOTH",
"360 144 LINE",
"366 144 LINE SMOOTH",
"399 144 OFFCURVE",
"428 174 OFFCURVE",
"428 204 CURVE SMOOTH",
"428 224 OFFCURVE",
"414 240 OFFCURVE",
"391 240 CURVE SMOOTH",
"381 240 LINE",
"460 614 LINE SMOOTH",
"465 637 OFFCURVE",
"451 662 OFFCURVE",
"421 662 CURVE SMOOTH",
"399 662 OFFCURVE",
"386 651 OFFCURVE",
"376 639 CURVE SMOOTH",
"35 223 LINE SMOOTH",
"28 215 OFFCURVE",
"20 202 OFFCURVE",
"20 185 CURVE SMOOTH",
"20 165 OFFCURVE",
"32 149 OFFCURVE",
"59 149 CURVE SMOOTH",
"264 146 LINE",
"241 42 LINE SMOOTH",
"235 23 OFFCURVE",
"250 -6 OFFCURVE",
"279 -6 CURVE SMOOTH"
);
},
{
closed = 1;
nodes = (
"165 245 LINE",
"327 442 LINE",
"284 242 LINE"
);
}
);
userData = {
com.fontlab.hintData = {
hhints = (
{
position = -1;
width = 21;
},
{
position = 149;
width = 96;
}
);
};
};
width = 469;
}
);
unicode = 0034;
},
{
color = 5;
glyphname = five;
lastChange = "2020-01-29 03:50:30 +0000";
layers = (
{
background = {
paths = (
{
closed = 1;
nodes = (
"291 -6 OFFCURVE",
"424 110 OFFCURVE",
"453 250 CURVE",
"458 272 OFFCURVE",
"460 292 OFFCURVE",
"460 312 CURVE SMOOTH",
"460 414 OFFCURVE",
"395 479 OFFCURVE",
"296 479 CURVE SMOOTH",
"241 479 OFFCURVE",
"183 454 OFFCURVE",
"137 430 CURVE",
"202 640 LINE",
"489 640 LINE SMOOTH",
"499 640 OFFCURVE",
"509 648 OFFCURVE",
"511 659 CURVE SMOOTH",
"513 669 OFFCURVE",
"507 677 OFFCURVE",
"497 677 CURVE SMOOTH",
"193 677 LINE SMOOTH",
"183 677 OFFCURVE",
"175 670 OFFCURVE",
"172 661 CURVE SMOOTH",
"84 387 LINE",
"83 385 OFFCURVE",
"83 383 OFFCURVE",
"83 381 CURVE SMOOTH",
"83 372 OFFCURVE",
"89 364 OFFCURVE",
"100 364 CURVE SMOOTH",
"105 364 OFFCURVE",
"110 366 OFFCURVE",
"117 372 CURVE SMOOTH",
"130 383 OFFCURVE",
"197 442 OFFCURVE",
"288 442 CURVE SMOOTH",
"383 442 OFFCURVE",
"422 377 OFFCURVE",
"422 302 CURVE SMOOTH",
"422 285 OFFCURVE",
"420 268 OFFCURVE",
"416 250 CURVE SMOOTH",
"390 132 OFFCURVE",
"280 31 OFFCURVE",
"180 31 CURVE SMOOTH",
"106 31 OFFCURVE",
"62 61 OFFCURVE",
"37 119 CURVE SMOOTH",
"34 126 OFFCURVE",
"31 130 OFFCURVE",
"22 130 CURVE SMOOTH",
"12 130 OFFCURVE",
"1 122 OFFCURVE",
"-1 112 CURVE SMOOTH",
"-2 108 OFFCURVE",
"-2 104 OFFCURVE",
"-1 101 CURVE SMOOTH",
"9 72 OFFCURVE",
"60 -6 OFFCURVE",
"172 -6 CURVE SMOOTH"
);
}
);
};
layerId = master01;
paths = (
{
closed = 1;
nodes = (
"317 -6 OFFCURVE",
"460 151 OFFCURVE",
"460 312 CURVE SMOOTH",
"460 414 OFFCURVE",
"395 479 OFFCURVE",
"296 479 CURVE SMOOTH",
"241 479 OFFCURVE",
"183 454 OFFCURVE",
"137 430 CURVE",
"202 640 LINE",
"489 640 LINE SMOOTH",
"500 640 OFFCURVE",
"511 650 OFFCURVE",
"511 663 CURVE SMOOTH",
"511 671 OFFCURVE",
"506 677 OFFCURVE",
"497 677 CURVE SMOOTH",
"193 677 LINE SMOOTH",
"183 677 OFFCURVE",
"175 670 OFFCURVE",
"172 661 CURVE SMOOTH",
"84 387 LINE SMOOTH",
"80 377 OFFCURVE",
"87 364 OFFCURVE",
"100 364 CURVE SMOOTH",
"105 364 OFFCURVE",
"110 366 OFFCURVE",
"117 372 CURVE SMOOTH",
"130 383 OFFCURVE",
"197 442 OFFCURVE",
"288 442 CURVE SMOOTH",
"383 442 OFFCURVE",
"422 377 OFFCURVE",
"422 302 CURVE SMOOTH",
"422 173 OFFCURVE",
"303 31 OFFCURVE",
"180 31 CURVE SMOOTH",
"106 31 OFFCURVE",
"62 61 OFFCURVE",
"37 119 CURVE SMOOTH",
"34 126 OFFCURVE",
"31 130 OFFCURVE",
"22 130 CURVE SMOOTH",
"10 130 OFFCURVE",
"-2 119 OFFCURVE",
"-2 106 CURVE SMOOTH",
"-2 92 OFFCURVE",
"24 55 OFFCURVE",
"48 36 CURVE SMOOTH",
"76 13 OFFCURVE",
"117 -6 OFFCURVE",
"170 -6 CURVE SMOOTH"
);
}
);
userData = {
com.fontlab.hintData = {
hhints = (
{
position = -3;
width = 37;
},
{
position = 445;
width = 37;
},
{
position = 643;
width = 37;
}
);
vhints = (
{
position = 516;
width = 38;
}
);
};
};
width = 507;
},
{
background = {
paths = (
{
closed = 1;
nodes = (
"317 -6 OFFCURVE",
"448 109 OFFCURVE",
"480 250 CURVE SMOOTH",
"485 272 OFFCURVE",
"487 292 OFFCURVE",
"487 311 CURVE SMOOTH",
"487 415 OFFCURVE",
"421 480 OFFCURVE",
"321 480 CURVE SMOOTH",
"266 480 OFFCURVE",
"218 461 OFFCURVE",
"182 442 CURVE",
"236 614 LINE",
"502 614 LINE SMOOTH",
"517 614 OFFCURVE",
"536 626 OFFCURVE",
"536 642 CURVE SMOOTH",
"536 644 OFFCURVE",
"537 646 OFFCURVE",
"537 647 CURVE SMOOTH",
"537 660 OFFCURVE",
"527 670 OFFCURVE",
"514 670 CURVE SMOOTH",
"223 670 LINE SMOOTH",
"209 670 OFFCURVE",
"193 659 OFFCURVE",
"189 645 CURVE SMOOTH",
"106 382 LINE SMOOTH",
"105 378 OFFCURVE",
"104 375 OFFCURVE",
"104 372 CURVE SMOOTH",
"104 359 OFFCURVE",
"112 349 OFFCURVE",
"128 349 CURVE SMOOTH",
"136 349 OFFCURVE",
"143 351 OFFCURVE",
"151 359 CURVE SMOOTH",
"157 365 OFFCURVE",
"221 424 OFFCURVE",
"309 424 CURVE SMOOTH",
"394 424 OFFCURVE",
"429 366 OFFCURVE",
"429 298 CURVE SMOOTH",
"429 282 OFFCURVE",
"428 266 OFFCURVE",
"424 250 CURVE SMOOTH",
"397 143 OFFCURVE",
"301 50 OFFCURVE",
"210 50 CURVE SMOOTH",
"143 50 OFFCURVE",
"108 80 OFFCURVE",
"80 130 CURVE SMOOTH",
"75 139 OFFCURVE",
"72 145 OFFCURVE",
"58 145 CURVE SMOOTH",
"43 145 OFFCURVE",
"27 132 OFFCURVE",
"24 117 CURVE SMOOTH",
"23 112 OFFCURVE",
"23 107 OFFCURVE",
"24 103 CURVE SMOOTH",
"32 72 OFFCURVE",
"85 -6 OFFCURVE",
"198 -6 CURVE SMOOTH"
);
}
);
};
layerId = "ACFB53BD-70C1-480F-BE56-298851F5C10E";
paths = (
{
closed = 1;
nodes = (
"343 -6 OFFCURVE",
"487 155 OFFCURVE",
"487 311 CURVE SMOOTH",
"487 414 OFFCURVE",
"421 480 OFFCURVE",
"321 480 CURVE SMOOTH",
"266 480 OFFCURVE",
"218 461 OFFCURVE",
"182 442 CURVE",
"236 614 LINE",
"502 614 LINE SMOOTH",
"520 614 OFFCURVE",
"537 628 OFFCURVE",
"537 647 CURVE SMOOTH",
"537 660 OFFCURVE",
"527 670 OFFCURVE",
"514 670 CURVE SMOOTH",
"223 670 LINE SMOOTH",
"210 670 OFFCURVE",
"193 659 OFFCURVE",
"189 645 CURVE SMOOTH",
"106 382 LINE SMOOTH",
"100 364 OFFCURVE",
"110 349 OFFCURVE",
"128 349 CURVE SMOOTH",
"136 349 OFFCURVE",
"143 351 OFFCURVE",
"151 359 CURVE SMOOTH",
"157 365 OFFCURVE",
"221 424 OFFCURVE",
"309 424 CURVE SMOOTH",
"394 424 OFFCURVE",
"429 366 OFFCURVE",
"429 298 CURVE SMOOTH",
"429 178 OFFCURVE",
"322 50 OFFCURVE",
"210 50 CURVE SMOOTH",
"143 50 OFFCURVE",
"108 80 OFFCURVE",
"80 130 CURVE SMOOTH",
"75 139 OFFCURVE",
"72 145 OFFCURVE",
"58 145 CURVE SMOOTH",
"41 145 OFFCURVE",
"23 127 OFFCURVE",
"23 110 CURVE SMOOTH",
"23 87 OFFCURVE",
"49 52 OFFCURVE",
"80 30 CURVE SMOOTH",
"108 10 OFFCURVE",
"147 -6 OFFCURVE",
"198 -6 CURVE SMOOTH"
);
}
);
userData = {
com.fontlab.hintData = {
hhints = (
{
position = -3;
width = 56;
},
{
position = 427;
width = 56;
},
{
position = 617;
width = 56;
}
);
vhints = (
{
position = 442;
width = 57;
}
);
};
};
width = 543;
},
{
background = {
paths = (
{
closed = 1;
nodes = (
"331 -6 OFFCURVE",
"468 108 OFFCURVE",
"495 250 CURVE SMOOTH",
"499 271 OFFCURVE",
"502 292 OFFCURVE",
"502 310 CURVE SMOOTH",
"502 415 OFFCURVE",
"435 481 OFFCURVE",
"333 481 CURVE SMOOTH",
"298 481 OFFCURVE",
"265 474 OFFCURVE",
"237 463 CURVE",
"267 557 LINE",
"488 557 LINE SMOOTH",
"513 557 OFFCURVE",
"537 579 OFFCURVE",
"546 606 CURVE SMOOTH",
"547 609 OFFCURVE",
"547 612 OFFCURVE",
"547 614 CURVE SMOOTH",
"547 636 OFFCURVE",
"530 654 OFFCURVE",
"508 654 CURVE SMOOTH",
"243 654 LINE SMOOTH",
"219 654 OFFCURVE",
"193 635 OFFCURVE",
"186 611 CURVE SMOOTH",
"111 372 LINE SMOOTH",
"109 366 OFFCURVE",
"108 359 OFFCURVE",
"108 354 CURVE SMOOTH",
"108 332 OFFCURVE",
"121 317 OFFCURVE",
"148 317 CURVE SMOOTH",
"162 317 OFFCURVE",
"173 321 OFFCURVE",
"187 332 CURVE SMOOTH",
"198 341 OFFCURVE",
"248 385 OFFCURVE",
"313 385 CURVE SMOOTH",
"377 385 OFFCURVE",
"403 341 OFFCURVE",
"403 289 CURVE SMOOTH",
"403 276 OFFCURVE",
"402 263 OFFCURVE",
"399 250 CURVE",
"381 163 OFFCURVE",
"302 91 OFFCURVE",
"231 91 CURVE SMOOTH",
"180 91 OFFCURVE",
"150 113 OFFCURVE",
"130 153 CURVE SMOOTH",
"123 167 OFFCURVE",
"117 177 OFFCURVE",
"94 177 CURVE SMOOTH",
"69 177 OFFCURVE",
"42 154 OFFCURVE",
"36 129 CURVE SMOOTH",
"34 121 OFFCURVE",
"34 113 OFFCURVE",
"36 106 CURVE SMOOTH",
"45 74 OFFCURVE",
"97 -6 OFFCURVE",
"211 -6 CURVE SMOOTH"
);
}
);
};
layerId = "140D7E2C-8008-49AA-8FE3-CF6E53AFBA7D";
paths = (
{
closed = 1;
nodes = (
"357 -6 OFFCURVE",
"502 146 OFFCURVE",
"502 310 CURVE SMOOTH",
"502 415 OFFCURVE",
"434 481 OFFCURVE",
"333 481 CURVE SMOOTH",
"298 481 OFFCURVE",
"265 474 OFFCURVE",
"237 463 CURVE",
"267 557 LINE",
"488 557 LINE SMOOTH",
"516 557 OFFCURVE",
"547 589 OFFCURVE",
"547 614 CURVE SMOOTH",
"547 636 OFFCURVE",
"530 654 OFFCURVE",
"508 654 CURVE SMOOTH",
"243 654 LINE SMOOTH",
"220 654 OFFCURVE",
"194 636 OFFCURVE",
"186 611 CURVE SMOOTH",
"111 372 LINE SMOOTH",
"99 335 OFFCURVE",
"119 317 OFFCURVE",
"148 317 CURVE SMOOTH",
"162 317 OFFCURVE",
"173 321 OFFCURVE",
"187 332 CURVE SMOOTH",
"198 341 OFFCURVE",
"248 385 OFFCURVE",
"313 385 CURVE SMOOTH",
"377 385 OFFCURVE",
"403 341 OFFCURVE",
"403 289 CURVE SMOOTH",
"403 193 OFFCURVE",
"320 91 OFFCURVE",
"231 91 CURVE SMOOTH",
"180 91 OFFCURVE",
"150 113 OFFCURVE",
"130 153 CURVE SMOOTH",
"123 167 OFFCURVE",
"117 177 OFFCURVE",
"94 177 CURVE SMOOTH",
"66 177 OFFCURVE",
"35 152 OFFCURVE",
"35 116 CURVE SMOOTH",
"35 88 OFFCURVE",
"67 49 OFFCURVE",
"97 28 CURVE SMOOTH",
"125 9 OFFCURVE",
"162 -6 OFFCURVE",
"211 -6 CURVE SMOOTH"
);
}
);
userData = {
com.fontlab.hintData = {
hhints = (
{
position = -3;
width = 97;
},
{
position = 388;
width = 96;
},
{
position = 560;
width = 97;
}
);
vhints = (
{
position = 404;
width = 98;
}
);
};
};
width = 544;
}
);
unicode = 0035;
},
{
color = 5;
glyphname = six;
lastChange = "2020-01-29 03:55:15 +0000";
layers = (
{
background = {
paths = (
{
closed = 1;
nodes = (
"276 -9 OFFCURVE",
"431 34 OFFCURVE",
"474 236 CURVE SMOOTH",
"478 256 OFFCURVE",
"480 274 OFFCURVE",
"480 291 CURVE SMOOTH",
"480 386 OFFCURVE",
"416 436 OFFCURVE",
"327 436 CURVE SMOOTH",
"264 436 OFFCURVE",
"185 407 OFFCURVE",
"135 371 CURVE",
"205 495 OFFCURVE",
"324 599 OFFCURVE",
"440 650 CURVE SMOOTH",
"446 653 OFFCURVE",
"452 659 OFFCURVE",
"453 666 CURVE SMOOTH",
"455 675 OFFCURVE",
"449 683 OFFCURVE",
"440 683 CURVE SMOOTH",
"435 683 OFFCURVE",
"431 682 OFFCURVE",
"424 679 CURVE SMOOTH",
"374 656 OFFCURVE",
"122 539 OFFCURVE",
"59 241 CURVE SMOOTH",
"53 211 OFFCURVE",
"50 185 OFFCURVE",
"50 162 CURVE SMOOTH",
"50 34 OFFCURVE",
"134 -9 OFFCURVE",
"223 -9 CURVE SMOOTH"
);
},
{
closed = 1;
nodes = (
"160 25 OFFCURVE",
"84 52 OFFCURVE",
"84 166 CURVE SMOOTH",
"84 187 OFFCURVE",
"87 212 OFFCURVE",
"93 241 CURVE SMOOTH",
"99 268 OFFCURVE",
"105 295 OFFCURVE",
"115 320 CURVE",
"138 341 OFFCURVE",
"214 401 OFFCURVE",
"320 401 CURVE SMOOTH",
"353 401 OFFCURVE",
"447 392 OFFCURVE",
"447 285 CURVE SMOOTH",
"447 270 OFFCURVE",
"445 254 OFFCURVE",
"441 236 CURVE SMOOTH",
"404 63 OFFCURVE",
"277 25 OFFCURVE",
"230 25 CURVE SMOOTH"
);
}
);
};
layerId = master01;
paths = (
{
closed = 1;
nodes = (
"364 -9 OFFCURVE",
"480 149 OFFCURVE",
"480 291 CURVE SMOOTH",
"480 386 OFFCURVE",
"416 436 OFFCURVE",
"327 436 CURVE SMOOTH",
"264 436 OFFCURVE",
"185 407 OFFCURVE",
"135 371 CURVE",
"205 495 OFFCURVE",
"324 599 OFFCURVE",
"440 650 CURVE SMOOTH",
"447 653 OFFCURVE",
"454 659 OFFCURVE",
"454 668 CURVE SMOOTH",
"454 677 OFFCURVE",
"449 683 OFFCURVE",
"440 683 CURVE SMOOTH",
"411 683 OFFCURVE",
"307 616 OFFCURVE",
"253 569 CURVE SMOOTH",
"138 467 OFFCURVE",
"50 310 OFFCURVE",
"50 162 CURVE SMOOTH",
"50 44 OFFCURVE",
"121 -9 OFFCURVE",
"223 -9 CURVE SMOOTH"
);
},
{
closed = 1;
nodes = (
"141 25 OFFCURVE",
"84 66 OFFCURVE",
"84 166 CURVE SMOOTH",
"84 206 OFFCURVE",
"100 282 OFFCURVE",
"115 320 CURVE",
"138 341 OFFCURVE",
"214 401 OFFCURVE",
"320 401 CURVE SMOOTH",
"353 401 OFFCURVE",
"447 392 OFFCURVE",
"447 285 CURVE SMOOTH",
"447 166 OFFCURVE",
"351 25 OFFCURVE",
"230 25 CURVE SMOOTH"
);
}
);
userData = {
com.fontlab.hintData = {
hhints = (
{
position = -3;
width = 34;
},
{
position = 407;
width = 35;
},
{
position = 656;
width = 33;
}
);
vhints = (
{
position = 106;
width = 34;
},
{
position = 503;
width = 34;
}
);
};
};
width = 528;
},
{
background = {
paths = (
{
closed = 1;
nodes = (
"279 -6 OFFCURVE",
"437 36 OFFCURVE",
"478 239 CURVE SMOOTH",
"482 259 OFFCURVE",
"484 277 OFFCURVE",
"484 294 CURVE SMOOTH",
"484 391 OFFCURVE",
"419 441 OFFCURVE",
"330 441 CURVE SMOOTH",
"267 441 OFFCURVE",
"213 421 OFFCURVE",
"171 399 CURVE",
"227 498 OFFCURVE",
"328 579 OFFCURVE",
"438 628 CURVE SMOOTH",
"447 632 OFFCURVE",
"453 642 OFFCURVE",
"458 652 CURVE SMOOTH",
"459 654 OFFCURVE",
"459 656 OFFCURVE",
"459 658 CURVE SMOOTH",
"459 670 OFFCURVE",
"450 678 OFFCURVE",
"437 678 CURVE SMOOTH",
"430 678 OFFCURVE",
"425 676 OFFCURVE",
"418 673 CURVE SMOOTH",
"367 651 OFFCURVE",
"119 537 OFFCURVE",
"60 244 CURVE SMOOTH",
"54 214 OFFCURVE",
"51 188 OFFCURVE",
"51 165 CURVE SMOOTH",
"51 37 OFFCURVE",
"135 -6 OFFCURVE",
"225 -6 CURVE SMOOTH"
);
},
{
closed = 1;
nodes = (
"172 47 OFFCURVE",
"104 71 OFFCURVE",
"104 174 CURVE SMOOTH",
"104 195 OFFCURVE",
"106 218 OFFCURVE",
"112 244 CURVE SMOOTH",
"118 269 OFFCURVE",
"123 293 OFFCURVE",
"133 317 CURVE",
"156 336 OFFCURVE",
"226 388 OFFCURVE",
"319 388 CURVE SMOOTH",
"348 388 OFFCURVE",
"431 380 OFFCURVE",
"431 284 CURVE SMOOTH",
"431 271 OFFCURVE",
"430 256 OFFCURVE",
"426 239 CURVE SMOOTH",
"389 82 OFFCURVE",
"278 47 OFFCURVE",
"236 47 CURVE SMOOTH"
);
}
);
};
layerId = "ACFB53BD-70C1-480F-BE56-298851F5C10E";
paths = (
{
closed = 1;
nodes = (
"367 -6 OFFCURVE",
"484 140 OFFCURVE",
"484 294 CURVE SMOOTH",
"484 384 OFFCURVE",
"424 441 OFFCURVE",
"330 441 CURVE SMOOTH",
"268 441 OFFCURVE",
"213 421 OFFCURVE",
"171 399 CURVE",
"227 498 OFFCURVE",
"328 579 OFFCURVE",
"438 628 CURVE SMOOTH",
"450 633 OFFCURVE",
"459 642 OFFCURVE",
"459 658 CURVE SMOOTH",
"459 669 OFFCURVE",
"450 678 OFFCURVE",
"437 678 CURVE SMOOTH",
"415 678 OFFCURVE",
"317 625 OFFCURVE",
"255 571 CURVE SMOOTH",
"121 458 OFFCURVE",
"51 304 OFFCURVE",
"51 165 CURVE SMOOTH",
"51 56 OFFCURVE",
"113 -6 OFFCURVE",
"225 -6 CURVE SMOOTH"
);
},
{
closed = 1;
nodes = (
"156 47 OFFCURVE",
"104 84 OFFCURVE",
"104 174 CURVE SMOOTH",
"104 215 OFFCURVE",
"117 277 OFFCURVE",
"133 317 CURVE",
"156 336 OFFCURVE",
"227 388 OFFCURVE",
"319 388 CURVE SMOOTH",
"388 388 OFFCURVE",
"431 352 OFFCURVE",
"431 284 CURVE SMOOTH",
"431 177 OFFCURVE",
"346 47 OFFCURVE",
"236 47 CURVE SMOOTH"
);
}
);
userData = {
com.fontlab.hintData = {
hhints = (
{
position = -3;
width = 53;
},
{
position = 391;
width = 53;
},
{
position = 631;
width = 50;
}
);
vhints = (
{
position = 49;
width = 53;
},
{
position = 429;
width = 53;
}
);
};
};
width = 546;
},
{
background = {
paths = (
{
closed = 1;
nodes = (
"273 -6 OFFCURVE",
"434 37 OFFCURVE",
"475 240 CURVE SMOOTH",
"479 260 OFFCURVE",
"481 279 OFFCURVE",
"481 296 CURVE SMOOTH",
"481 395 OFFCURVE",
"415 446 OFFCURVE",
"323 446 CURVE SMOOTH",
"289 446 OFFCURVE",
"258 440 OFFCURVE",
"231 431 CURVE",
"280 492 OFFCURVE",
"346 541 OFFCURVE",
"421 572 CURVE SMOOTH",
"438 579 OFFCURVE",
"451 596 OFFCURVE",
"457 615 CURVE SMOOTH",
"458 618 OFFCURVE",
"458 622 OFFCURVE",
"458 625 CURVE SMOOTH",
"458 646 OFFCURVE",
"444 661 OFFCURVE",
"421 661 CURVE SMOOTH",
"411 661 OFFCURVE",
"402 658 OFFCURVE",
"392 654 CURVE SMOOTH",
"343 634 OFFCURVE",
"108 523 OFFCURVE",
"50 244 CURVE SMOOTH",
"44 215 OFFCURVE",
"41 189 OFFCURVE",
"41 166 CURVE SMOOTH",
"41 37 OFFCURVE",
"127 -6 OFFCURVE",
"218 -6 CURVE SMOOTH"
);
},
{
closed = 1;
nodes = (
"189 88 OFFCURVE",
"137 107 OFFCURVE",
"137 188 CURVE SMOOTH",
"137 204 OFFCURVE",
"139 223 OFFCURVE",
"143 244 CURVE SMOOTH",
"146 262 OFFCURVE",
"151 280 OFFCURVE",
"157 299 CURVE",
"181 317 OFFCURVE",
"234 352 OFFCURVE",
"303 352 CURVE SMOOTH",
"324 352 OFFCURVE",
"386 346 OFFCURVE",
"386 274 CURVE SMOOTH",
"386 264 OFFCURVE",
"385 253 OFFCURVE",
"382 240 CURVE SMOOTH",
"353 116 OFFCURVE",
"270 88 OFFCURVE",
"238 88 CURVE SMOOTH"
);
}
);
};
layerId = "140D7E2C-8008-49AA-8FE3-CF6E53AFBA7D";
paths = (
{
closed = 1;
nodes = (
"362 -6 OFFCURVE",
"480 149 OFFCURVE",
"480 296 CURVE SMOOTH",
"480 394 OFFCURVE",
"414 446 OFFCURVE",
"322 446 CURVE SMOOTH",
"288 446 OFFCURVE",
"257 440 OFFCURVE",
"230 431 CURVE",
"279 492 OFFCURVE",
"345 541 OFFCURVE",
"420 572 CURVE SMOOTH",
"441 581 OFFCURVE",
"457 603 OFFCURVE",
"457 625 CURVE SMOOTH",
"457 646 OFFCURVE",
"442 661 OFFCURVE",
"420 661 CURVE SMOOTH",
"386 661 OFFCURVE",
"300 608 OFFCURVE",
"238 557 CURVE SMOOTH",
"123 462 OFFCURVE",
"41 309 OFFCURVE",
"41 168 CURVE SMOOTH",
"41 37 OFFCURVE",
"127 -6 OFFCURVE",
"217 -6 CURVE SMOOTH"
);
},
{
closed = 1;
nodes = (
"177 88 OFFCURVE",
"136 118 OFFCURVE",
"136 188 CURVE SMOOTH",
"136 216 OFFCURVE",
"144 264 OFFCURVE",
"156 299 CURVE",
"180 317 OFFCURVE",
"233 352 OFFCURVE",
"302 352 CURVE SMOOTH",
"354 352 OFFCURVE",
"385 326 OFFCURVE",
"385 274 CURVE SMOOTH",
"385 192 OFFCURVE",
"321 88 OFFCURVE",
"237 88 CURVE SMOOTH"
);
}
);
userData = {
com.fontlab.hintData = {
hhints = (
{
position = -3;
width = 94;
},
{
position = 355;
width = 94;
},
{
position = 575;
width = 89;
}
);
vhints = (
{
position = 46;
width = 96;
},
{
position = 391;
width = 95;
}
);
};
};
width = 522;
}
);
unicode = 0036;
},
{
color = 5;
glyphname = seven;
lastChange = "2020-01-29 03:58:14 +0000";
layers = (
{
background = {
paths = (
{
closed = 1;
nodes = (
"49 -5 OFFCURVE",
"57 -1 OFFCURVE",
"60 4 CURVE SMOOTH",
"517 643 LINE SMOOTH",
"519 646 OFFCURVE",
"521 648 OFFCURVE",
"521 652 CURVE",
"523 662 OFFCURVE",
"517 671 OFFCURVE",
"506 671 CURVE SMOOTH",
"131 671 LINE SMOOTH",
"121 671 OFFCURVE",
"111 663 OFFCURVE",
"109 653 CURVE SMOOTH",
"106 642 OFFCURVE",
"114 634 OFFCURVE",
"124 634 CURVE SMOOTH",
"469 634 LINE",
"30 22 LINE SMOOTH",
"28 19 OFFCURVE",
"27 16 OFFCURVE",
"27 14 CURVE",
"24 3 OFFCURVE",
"31 -5 OFFCURVE",
"41 -5 CURVE SMOOTH"
);
}
);
};
layerId = master01;
paths = (
{
closed = 1;
nodes = (
"51 -6 OFFCURVE",
"57 -1 OFFCURVE",
"62 6 CURVE SMOOTH",
"513 637 LINE SMOOTH",
"518 645 OFFCURVE",
"521 650 OFFCURVE",
"521 656 CURVE SMOOTH",
"521 663 OFFCURVE",
"517 671 OFFCURVE",
"506 671 CURVE SMOOTH",
"131 671 LINE SMOOTH",
"120 671 OFFCURVE",
"108 660 OFFCURVE",
"108 648 CURVE SMOOTH",
"108 640 OFFCURVE",
"115 634 OFFCURVE",
"124 634 CURVE SMOOTH",
"469 634 LINE",
"32 24 LINE SMOOTH",
"28 19 OFFCURVE",
"26 14 OFFCURVE",
"26 8 CURVE SMOOTH",
"26 1 OFFCURVE",
"31 -6 OFFCURVE",
"41 -6 CURVE SMOOTH"
);
}
);
userData = {
com.fontlab.hintData = {
hhints = (
{
position = 1;
width = 21;
},
{
position = 640;
width = 37;
}
);
};
};
width = 449;
},
{
background = {
paths = (
{
closed = 1;
nodes = (
"79 -3 OFFCURVE",
"90 2 OFFCURVE",
"97 12 CURVE SMOOTH",
"536 625 LINE SMOOTH",
"539 629 OFFCURVE",
"542 633 OFFCURVE",
"542 637 CURVE SMOOTH",
"542 639 OFFCURVE",
"543 641 OFFCURVE",
"543 643 CURVE SMOOTH",
"543 656 OFFCURVE",
"534 666 OFFCURVE",
"520 666 CURVE SMOOTH",
"160 666 LINE SMOOTH",
"144 666 OFFCURVE",
"126 653 OFFCURVE",
"126 638 CURVE SMOOTH",
"126 636 OFFCURVE",
"125 634 OFFCURVE",
"125 632 CURVE SMOOTH",
"125 619 OFFCURVE",
"134 610 OFFCURVE",
"148 610 CURVE SMOOTH",
"463 610 LINE",
"52 37 LINE SMOOTH",
"49 33 OFFCURVE",
"49 29 OFFCURVE",
"47 25 CURVE SMOOTH",
"46 23 OFFCURVE",
"46 21 OFFCURVE",
"46 18 CURVE SMOOTH",
"46 6 OFFCURVE",
"55 -3 OFFCURVE",
"69 -3 CURVE SMOOTH"
);
}
);
};
layerId = "ACFB53BD-70C1-480F-BE56-298851F5C10E";
paths = (
{
closed = 1;
nodes = (
"76 -6 OFFCURVE",
"88 -1 OFFCURVE",
"95 9 CURVE SMOOTH",
"536 625 LINE SMOOTH",
"541 632 OFFCURVE",
"543 637 OFFCURVE",
"543 646 CURVE SMOOTH",
"543 658 OFFCURVE",
"532 666 OFFCURVE",
"520 666 CURVE SMOOTH",
"160 666 LINE SMOOTH",
"143 666 OFFCURVE",
"125 648 OFFCURVE",
"125 632 CURVE SMOOTH",
"125 620 OFFCURVE",
"134 610 OFFCURVE",
"148 610 CURVE SMOOTH",
"463 610 LINE",
"50 34 LINE SMOOTH",
"46 28 OFFCURVE",
"44 20 OFFCURVE",
"44 15 CURVE SMOOTH",
"44 4 OFFCURVE",
"53 -6 OFFCURVE",
"67 -6 CURVE SMOOTH"
);
}
);
userData = {
com.fontlab.hintData = {
hhints = (
{
position = 614;
width = 56;
}
);
};
};
width = 479;
},
{
background = {
paths = (
{
closed = 1;
nodes = (
"75 -5 OFFCURVE",
"94 2 OFFCURVE",
"107 21 CURVE SMOOTH",
"507 578 LINE",
"511 585 OFFCURVE",
"515 593 OFFCURVE",
"516 599 CURVE SMOOTH",
"517 603 OFFCURVE",
"517 607 OFFCURVE",
"517 610 CURVE SMOOTH",
"517 632 OFFCURVE",
"502 648 OFFCURVE",
"479 648 CURVE SMOOTH",
"152 648 LINE SMOOTH",
"125 648 OFFCURVE",
"99 625 OFFCURVE",
"93 600 CURVE",
"92 597 OFFCURVE",
"92 593 OFFCURVE",
"92 590 CURVE SMOOTH",
"92 568 OFFCURVE",
"107 552 OFFCURVE",
"131 552 CURVE SMOOTH",
"381 552 LINE",
"31 64 LINE SMOOTH",
"26 57 OFFCURVE",
"23 49 OFFCURVE",
"21 43 CURVE SMOOTH",
"20 40 OFFCURVE",
"20 37 OFFCURVE",
"20 34 CURVE SMOOTH",
"20 13 OFFCURVE",
"35 -5 OFFCURVE",
"59 -5 CURVE SMOOTH"
);
}
);
};
layerId = "140D7E2C-8008-49AA-8FE3-CF6E53AFBA7D";
paths = (
{
closed = 1;
nodes = (
"75 -5 OFFCURVE",
"93 2 OFFCURVE",
"107 21 CURVE SMOOTH",
"507 578 LINE SMOOTH",
"511 586 OFFCURVE",
"517 597 OFFCURVE",
"517 610 CURVE SMOOTH",
"517 631 OFFCURVE",
"502 648 OFFCURVE",
"479 648 CURVE SMOOTH",
"152 648 LINE SMOOTH",
"122 648 OFFCURVE",
"92 619 OFFCURVE",
"92 590 CURVE SMOOTH",
"92 568 OFFCURVE",
"108 552 OFFCURVE",
"131 552 CURVE SMOOTH",
"381 552 LINE",
"34 68 LINE SMOOTH",
"26 56 OFFCURVE",
"20 44 OFFCURVE",
"20 31 CURVE SMOOTH",
"20 13 OFFCURVE",
"35 -5 OFFCURVE",
"59 -5 CURVE SMOOTH"
);
}
);
userData = {
com.fontlab.hintData = {
hhints = (
{
position = 1;
width = 21;
},
{
position = 558;
width = 96;
}
);
};
};
width = 450;
}
);
unicode = 0037;
},
{
color = 5;
glyphname = eight;
lastChange = "2020-01-29 04:00:41 +0000";
layers = (
{
background = {
paths = (
{
closed = 1;
nodes = (
"319 -6 OFFCURVE",
"419 76 OFFCURVE",
"446 184 CURVE SMOOTH",
"449 196 OFFCURVE",
"450 208 OFFCURVE",
"450 219 CURVE SMOOTH",
"450 282 OFFCURVE",
"411 338 OFFCURVE",
"342 377 CURVE",
"414 410 OFFCURVE",
"489 457 OFFCURVE",
"503 535 CURVE SMOOTH",
"505 546 OFFCURVE",
"507 557 OFFCURVE",
"507 568 CURVE SMOOTH",
"507 641 OFFCURVE",
"450 691 OFFCURVE",
"361 691 CURVE SMOOTH",
"263 691 OFFCURVE",
"167 626 OFFCURVE",
"143 518 CURVE SMOOTH",
"141 509 OFFCURVE",
"140 500 OFFCURVE",
"140 492 CURVE SMOOTH",
"140 433 OFFCURVE",
"184 395 OFFCURVE",
"236 370 CURVE",
"154 334 OFFCURVE",
"61 277 OFFCURVE",
"35 173 CURVE",
"32 160 OFFCURVE",
"31 148 OFFCURVE",
"31 136 CURVE SMOOTH",
"31 52 OFFCURVE",
"98 -6 OFFCURVE",
"202 -6 CURVE SMOOTH"
);
},
{
closed = 1;
nodes = (
"126 30 OFFCURVE",
"68 75 OFFCURVE",
"68 141 CURVE SMOOTH",
"68 149 OFFCURVE",
"69 158 OFFCURVE",
"71 167 CURVE SMOOTH",
"97 283 OFFCURVE",
"201 319 OFFCURVE",
"291 354 CURVE",
"354 333 OFFCURVE",
"414 287 OFFCURVE",
"414 213 CURVE SMOOTH",
"414 202 OFFCURVE",
"412 191 OFFCURVE",
"410 180 CURVE SMOOTH",
"391 77 OFFCURVE",
"289 30 OFFCURVE",
"210 30 CURVE SMOOTH"
);
},
{
closed = 1;
nodes = (
"212 417 OFFCURVE",
"176 449 OFFCURVE",
"176 497 CURVE SMOOTH",
"176 505 OFFCURVE",
"177 513 OFFCURVE",
"179 522 CURVE SMOOTH",
"201 621 OFFCURVE",
"294 653 OFFCURVE",
"354 653 CURVE SMOOTH",
"422 653 OFFCURVE",
"471 620 OFFCURVE",
"471 564 CURVE SMOOTH",
"471 557 OFFCURVE",
"470 549 OFFCURVE",
"468 541 CURVE SMOOTH",
"455 488 OFFCURVE",
"421 439 OFFCURVE",
"293 393 CURVE"
);
}
);
};
layerId = master01;
paths = (
{
closed = 1;
nodes = (
"329 -6 OFFCURVE",
"451 101 OFFCURVE",
"451 219 CURVE SMOOTH",
"451 282 OFFCURVE",
"412 338 OFFCURVE",
"343 377 CURVE",
"428 416 OFFCURVE",
"508 471 OFFCURVE",
"508 568 CURVE SMOOTH",
"508 641 OFFCURVE",
"451 691 OFFCURVE",
"362 691 CURVE SMOOTH",
"249 691 OFFCURVE",
"141 598 OFFCURVE",
"141 492 CURVE SMOOTH",
"141 433 OFFCURVE",
"185 395 OFFCURVE",
"237 370 CURVE",
"132 324 OFFCURVE",
"32 247 OFFCURVE",
"32 136 CURVE SMOOTH",
"32 52 OFFCURVE",
"99 -6 OFFCURVE",
"203 -6 CURVE SMOOTH"
);
},
{
closed = 1;
nodes = (
"127 30 OFFCURVE",
"69 75 OFFCURVE",
"69 141 CURVE SMOOTH",
"69 262 OFFCURVE",
"185 313 OFFCURVE",
"292 354 CURVE",
"355 333 OFFCURVE",
"415 287 OFFCURVE",
"415 213 CURVE SMOOTH",
"415 106 OFFCURVE",
"318 30 OFFCURVE",
"211 30 CURVE SMOOTH"
);
},
{
closed = 1;
nodes = (
"213 417 OFFCURVE",
"177 449 OFFCURVE",
"177 497 CURVE SMOOTH",
"177 584 OFFCURVE",
"260 653 OFFCURVE",
"355 653 CURVE SMOOTH",
"423 653 OFFCURVE",
"472 620 OFFCURVE",
"472 564 CURVE SMOOTH",
"472 482 OFFCURVE",
"395 429 OFFCURVE",
"294 393 CURVE"
);
}
);
userData = {
com.fontlab.hintData = {
hhints = (
{
position = -3;
width = 36;
},
{
position = 656;
width = 38;
}
);
vhints = (
{
position = 101;
width = 37;
},
{
position = 210;
width = 36;
},
{
position = 484;
width = 36;
},
{
position = 541;
width = 36;
}
);
};
};
width = 512;
},
{
background = {
paths = (
{
closed = 1;
nodes = (
"323 -6 OFFCURVE",
"427 76 OFFCURVE",
"451 186 CURVE",
"454 199 OFFCURVE",
"455 212 OFFCURVE",
"455 225 CURVE SMOOTH",
"455 287 OFFCURVE",
"423 339 OFFCURVE",
"364 372 CURVE",
"425 400 OFFCURVE",
"485 444 OFFCURVE",
"505 523 CURVE SMOOTH",
"508 535 OFFCURVE",
"509 547 OFFCURVE",
"509 558 CURVE SMOOTH",
"509 633 OFFCURVE",
"452 683 OFFCURVE",
"361 683 CURVE SMOOTH",
"262 683 OFFCURVE",
"160 618 OFFCURVE",
"140 507 CURVE SMOOTH",
"138 496 OFFCURVE",
"136 485 OFFCURVE",
"136 475 CURVE SMOOTH",
"136 419 OFFCURVE",
"173 386 OFFCURVE",
"216 365 CURVE",
"144 333 OFFCURVE",
"62 281 OFFCURVE",
"37 176 CURVE",
"34 163 OFFCURVE",
"33 150 OFFCURVE",
"33 137 CURVE SMOOTH",
"33 53 OFFCURVE",
"99 -6 OFFCURVE",
"204 -6 CURVE SMOOTH"
);
},
{
closed = 1;
nodes = (
"141 49 OFFCURVE",
"88 89 OFFCURVE",
"88 148 CURVE SMOOTH",
"88 155 OFFCURVE",
"88 162 OFFCURVE",
"90 170 CURVE SMOOTH",
"116 273 OFFCURVE",
"209 308 OFFCURVE",
"287 340 CURVE",
"346 321 OFFCURVE",
"399 279 OFFCURVE",
"399 212 CURVE SMOOTH",
"399 203 OFFCURVE",
"398 193 OFFCURVE",
"396 183 CURVE SMOOTH",
"378 91 OFFCURVE",
"287 49 OFFCURVE",
"216 49 CURVE SMOOTH"
);
},
{
closed = 1;
nodes = (
"224 419 OFFCURVE",
"192 447 OFFCURVE",
"192 489 CURVE SMOOTH",
"192 496 OFFCURVE",
"193 503 OFFCURVE",
"195 511 CURVE SMOOTH",
"223 625 OFFCURVE",
"346 627 OFFCURVE",
"349 627 CURVE SMOOTH",
"409 627 OFFCURVE",
"454 598 OFFCURVE",
"454 548 CURVE SMOOTH",
"454 542 OFFCURVE",
"453 536 OFFCURVE",
"452 529 CURVE SMOOTH",
"445 481 OFFCURVE",
"410 439 OFFCURVE",
"296 398 CURVE"
);
}
);
};
layerId = "ACFB53BD-70C1-480F-BE56-298851F5C10E";
paths = (
{
closed = 1;
nodes = (
"336 -6 OFFCURVE",
"455 99 OFFCURVE",
"455 225 CURVE SMOOTH",
"455 287 OFFCURVE",
"423 339 OFFCURVE",
"364 372 CURVE",
"444 409 OFFCURVE",
"509 467 OFFCURVE",
"509 558 CURVE SMOOTH",
"509 633 OFFCURVE",
"451 683 OFFCURVE",
"361 683 CURVE SMOOTH",
"244 683 OFFCURVE",
"137 588 OFFCURVE",
"137 475 CURVE SMOOTH",
"137 420 OFFCURVE",
"173 386 OFFCURVE",
"216 365 CURVE",
"117 321 OFFCURVE",
"33 244 OFFCURVE",
"33 137 CURVE SMOOTH",
"33 53 OFFCURVE",
"100 -6 OFFCURVE",
"204 -6 CURVE SMOOTH"
);
},
{
closed = 1;
nodes = (
"142 49 OFFCURVE",
"88 89 OFFCURVE",
"88 148 CURVE SMOOTH",
"88 244 OFFCURVE",
"181 306 OFFCURVE",
"287 340 CURVE",
"346 321 OFFCURVE",
"400 278 OFFCURVE",
"400 212 CURVE SMOOTH",
"400 122 OFFCURVE",
"315 49 OFFCURVE",
"216 49 CURVE SMOOTH"
);
},
{
closed = 1;
nodes = (
"226 419 OFFCURVE",
"193 446 OFFCURVE",
"193 489 CURVE SMOOTH",
"193 580 OFFCURVE",
"276 627 OFFCURVE",
"349 627 CURVE SMOOTH",
"410 627 OFFCURVE",
"454 597 OFFCURVE",
"454 548 CURVE SMOOTH",
"454 475 OFFCURVE",
"387 430 OFFCURVE",
"296 398 CURVE"
);
}
);
userData = {
com.fontlab.hintData = {
hhints = (
{
position = -3;
width = 55;
},
{
position = 630;
width = 56;
}
);
vhints = (
{
position = 45;
width = 55;
},
{
position = 148;
width = 56;
},
{
position = 411;
width = 56;
},
{
position = 466;
width = 55;
}
);
};
};
width = 516;
},
{
background = {
paths = (
{
closed = 1;
nodes = (
"320 -6 OFFCURVE",
"427 79 OFFCURVE",
"451 191 CURVE SMOOTH",
"454 205 OFFCURVE",
"455 219 OFFCURVE",
"455 232 CURVE SMOOTH",
"455 283 OFFCURVE",
"434 327 OFFCURVE",
"395 360 CURVE",
"443 389 OFFCURVE",
"486 432 OFFCURVE",
"501 498 CURVE SMOOTH",
"504 511 OFFCURVE",
"505 524 OFFCURVE",
"505 535 CURVE SMOOTH",
"505 614 OFFCURVE",
"447 666 OFFCURVE",
"353 666 CURVE SMOOTH",
"251 666 OFFCURVE",
"148 597 OFFCURVE",
"124 483 CURVE SMOOTH",
"121 469 OFFCURVE",
"120 457 OFFCURVE",
"120 446 CURVE SMOOTH",
"120 403 OFFCURVE",
"139 375 OFFCURVE",
"167 354 CURVE",
"110 321 OFFCURVE",
"50 269 OFFCURVE",
"30 182 CURVE",
"27 168 OFFCURVE",
"26 155 OFFCURVE",
"26 142 CURVE SMOOTH",
"26 55 OFFCURVE",
"93 -6 OFFCURVE",
"200 -6 CURVE SMOOTH"
);
},
{
closed = 1;
nodes = (
"163 90 OFFCURVE",
"122 119 OFFCURVE",
"122 161 CURVE SMOOTH",
"122 166 OFFCURVE",
"123 172 OFFCURVE",
"124 177 CURVE SMOOTH",
"139 252 OFFCURVE",
"213 281 OFFCURVE",
"276 307 CURVE",
"320 291 OFFCURVE",
"358 259 OFFCURVE",
"358 210 CURVE SMOOTH",
"358 204 OFFCURVE",
"358 196 OFFCURVE",
"356 189 CURVE SMOOTH",
"337 122 OFFCURVE",
"273 90 OFFCURVE",
"220 90 CURVE SMOOTH"
);
},
{
closed = 1;
nodes = (
"240 424 OFFCURVE",
"217 443 OFFCURVE",
"217 472 CURVE SMOOTH",
"217 477 OFFCURVE",
"218 482 OFFCURVE",
"219 487 CURVE SMOOTH",
"235 568 OFFCURVE",
"330 569 OFFCURVE",
"332 569 CURVE SMOOTH",
"376 569 OFFCURVE",
"408 549 OFFCURVE",
"408 516 CURVE SMOOTH",
"408 512 OFFCURVE",
"408 507 OFFCURVE",
"407 503 CURVE SMOOTH",
"399 469 OFFCURVE",
"374 439 OFFCURVE",
"292 408 CURVE"
);
}
);
};
layerId = "140D7E2C-8008-49AA-8FE3-CF6E53AFBA7D";
paths = (
{
closed = 1;
nodes = (
"335 -6 OFFCURVE",
"455 103 OFFCURVE",
"455 232 CURVE SMOOTH",
"455 280 OFFCURVE",
"436 325 OFFCURVE",
"394 360 CURVE",
"461 400 OFFCURVE",
"504 459 OFFCURVE",
"504 535 CURVE SMOOTH",
"504 614 OFFCURVE",
"446 666 OFFCURVE",
"352 666 CURVE SMOOTH",
"229 666 OFFCURVE",
"119 564 OFFCURVE",
"119 446 CURVE SMOOTH",
"119 404 OFFCURVE",
"138 375 OFFCURVE",
"166 354 CURVE",
"87 308 OFFCURVE",
"25 232 OFFCURVE",
"25 142 CURVE SMOOTH",
"25 55 OFFCURVE",
"92 -6 OFFCURVE",
"199 -6 CURVE SMOOTH"
);
},
{
closed = 1;
nodes = (
"162 90 OFFCURVE",
"122 119 OFFCURVE",
"122 161 CURVE SMOOTH",
"122 233 OFFCURVE",
"202 282 OFFCURVE",
"275 307 CURVE",
"319 291 OFFCURVE",
"358 259 OFFCURVE",
"358 210 CURVE SMOOTH",
"358 138 OFFCURVE",
"290 90 OFFCURVE",
"219 90 CURVE SMOOTH"
);
},
{
closed = 1;
nodes = (
"237 425 OFFCURVE",
"217 445 OFFCURVE",
"217 472 CURVE SMOOTH",
"217 534 OFFCURVE",
"284 569 OFFCURVE",
"331 569 CURVE SMOOTH",
"375 569 OFFCURVE",
"408 549 OFFCURVE",
"408 516 CURVE SMOOTH",
"408 465 OFFCURVE",
"356 432 OFFCURVE",
"291 408 CURVE"
);
}
);
userData = {
com.fontlab.hintData = {
hhints = (
{
position = -3;
width = 96;
},
{
position = 572;
width = 97;
}
);
vhints = (
{
position = 43;
width = 97;
},
{
position = 137;
width = 98;
},
{
position = 375;
width = 97;
},
{
position = 425;
width = 97;
}
);
};
};
width = 512;
}
);
unicode = 0038;
},
{
color = 5;
glyphname = nine;
lastChange = "2020-01-29 04:05:35 +0000";
layers = (
{
background = {
paths = (
{
closed = 1;
nodes = (
"133 -7 OFFCURVE",
"137 -6 OFFCURVE",
"143 -3 CURVE SMOOTH",
"195 23 OFFCURVE",
"448 136 OFFCURVE",
"508 435 CURVE SMOOTH",
"514 465 OFFCURVE",
"517 492 OFFCURVE",
"517 516 CURVE SMOOTH",
"517 643 OFFCURVE",
"433 685 OFFCURVE",
"345 685 CURVE SMOOTH",
"292 685 OFFCURVE",
"134 642 OFFCURVE",
"94 440 CURVE SMOOTH",
"90 420 OFFCURVE",
"88 402 OFFCURVE",
"88 385 CURVE SMOOTH",
"88 290 OFFCURVE",
"151 240 OFFCURVE",
"240 240 CURVE SMOOTH",
"303 240 OFFCURVE",
"382 269 OFFCURVE",
"433 305 CURVE",
"362 181 OFFCURVE",
"241 82 OFFCURVE",
"128 26 CURVE SMOOTH",
"122 23 OFFCURVE",
"116 17 OFFCURVE",
"114 10 CURVE SMOOTH",
"111 1 OFFCURVE",
"119 -7 OFFCURVE",
"128 -7 CURVE SMOOTH"
);
},
{
closed = 1;
nodes = (
"215 275 OFFCURVE",
"121 284 OFFCURVE",
"121 390 CURVE SMOOTH",
"121 405 OFFCURVE",
"123 421 OFFCURVE",
"127 440 CURVE",
"163 613 OFFCURVE",
"290 651 OFFCURVE",
"337 651 CURVE SMOOTH",
"407 651 OFFCURVE",
"483 624 OFFCURVE",
"483 510 CURVE SMOOTH",
"483 489 OFFCURVE",
"480 464 OFFCURVE",
"474 435 CURVE",
"469 408 OFFCURVE",
"462 381 OFFCURVE",
"453 356 CURVE",
"429 335 OFFCURVE",
"354 275 OFFCURVE",
"247 275 CURVE SMOOTH"
);
}
);
};
layerId = master01;
paths = (
{
closed = 1;
nodes = (
"146 -7 OFFCURVE",
"228 41 OFFCURVE",
"276 76 CURVE SMOOTH",
"411 173 OFFCURVE",
"517 342 OFFCURVE",
"517 516 CURVE SMOOTH",
"517 614 OFFCURVE",
"462 685 OFFCURVE",
"350 685 CURVE SMOOTH",
"211 685 OFFCURVE",
"88 544 OFFCURVE",
"88 385 CURVE SMOOTH",
"88 290 OFFCURVE",
"151 240 OFFCURVE",
"240 240 CURVE SMOOTH",
"303 240 OFFCURVE",
"382 269 OFFCURVE",
"433 305 CURVE",
"362 181 OFFCURVE",
"253 83 OFFCURVE",
"128 27 CURVE SMOOTH",
"120 23 OFFCURVE",
"113 17 OFFCURVE",
"113 8 CURVE SMOOTH",
"113 0 OFFCURVE",
"119 -7 OFFCURVE",
"128 -7 CURVE SMOOTH"
);
},
{
closed = 1;
nodes = (
"215 275 OFFCURVE",
"121 284 OFFCURVE",
"121 390 CURVE SMOOTH",
"121 526 OFFCURVE",
"226 651 OFFCURVE",
"342 651 CURVE SMOOTH",
"440 651 OFFCURVE",
"483 596 OFFCURVE",
"483 510 CURVE SMOOTH",
"483 473 OFFCURVE",
"469 401 OFFCURVE",
"453 356 CURVE",
"429 335 OFFCURVE",
"354 275 OFFCURVE",
"247 275 CURVE SMOOTH"
);
}
);
userData = {
com.fontlab.hintData = {
hhints = (
{
position = 0;
width = 33;
},
{
position = 247;
width = 35;
},
{
position = 658;
width = 34;
}
);
vhints = (
{
position = 153;
width = 33;
},
{
position = 548;
width = 35;
}
);
};
};
width = 527;
},
{
background = {
paths = (
{
closed = 1;
nodes = (
"137 -6 OFFCURVE",
"142 -4 OFFCURVE",
"149 -1 CURVE SMOOTH",
"200 21 OFFCURVE",
"448 135 OFFCURVE",
"507 428 CURVE SMOOTH",
"513 458 OFFCURVE",
"516 484 OFFCURVE",
"516 507 CURVE SMOOTH",
"516 635 OFFCURVE",
"432 678 OFFCURVE",
"342 678 CURVE SMOOTH",
"288 678 OFFCURVE",
"130 636 OFFCURVE",
"89 433 CURVE SMOOTH",
"85 413 OFFCURVE",
"83 395 OFFCURVE",
"83 378 CURVE SMOOTH",
"83 281 OFFCURVE",
"148 231 OFFCURVE",
"237 231 CURVE SMOOTH",
"300 231 OFFCURVE",
"354 251 OFFCURVE",
"396 273 CURVE",
"340 174 OFFCURVE",
"240 88 OFFCURVE",
"129 44 CURVE SMOOTH",
"119 40 OFFCURVE",
"109 31 OFFCURVE",
"109 20 CURVE SMOOTH",
"109 18 OFFCURVE",
"108 16 OFFCURVE",
"108 14 CURVE SMOOTH",
"108 2 OFFCURVE",
"117 -6 OFFCURVE",
"130 -6 CURVE SMOOTH"
);
},
{
closed = 1;
nodes = (
"219 284 OFFCURVE",
"136 292 OFFCURVE",
"136 387 CURVE SMOOTH",
"136 401 OFFCURVE",
"137 416 OFFCURVE",
"141 433 CURVE",
"174 591 OFFCURVE",
"289 625 OFFCURVE",
"331 625 CURVE SMOOTH",
"395 625 OFFCURVE",
"463 601 OFFCURVE",
"463 497 CURVE SMOOTH",
"463 477 OFFCURVE",
"460 454 OFFCURVE",
"455 428 CURVE",
"449 403 OFFCURVE",
"443 379 OFFCURVE",
"434 355 CURVE",
"411 336 OFFCURVE",
"341 284 OFFCURVE",
"248 284 CURVE SMOOTH"
);
}
);
};
layerId = "ACFB53BD-70C1-480F-BE56-298851F5C10E";
paths = (
{
closed = 1;
nodes = (
"159 -6 OFFCURVE",
"264 58 OFFCURVE",
"320 108 CURVE SMOOTH",
"431 207 OFFCURVE",
"515 364 OFFCURVE",
"515 507 CURVE SMOOTH",
"515 635 OFFCURVE",
"430 678 OFFCURVE",
"341 678 CURVE SMOOTH",
"199 678 OFFCURVE",
"82 521 OFFCURVE",
"82 378 CURVE SMOOTH",
"82 281 OFFCURVE",
"147 231 OFFCURVE",
"236 231 CURVE SMOOTH",
"299 231 OFFCURVE",
"353 251 OFFCURVE",
"395 273 CURVE",
"339 174 OFFCURVE",
"247 92 OFFCURVE",
"128 44 CURVE SMOOTH",
"118 40 OFFCURVE",
"108 31 OFFCURVE",
"108 14 CURVE SMOOTH",
"108 3 OFFCURVE",
"116 -6 OFFCURVE",
"129 -6 CURVE SMOOTH"
);
},
{
closed = 1;
nodes = (
"218 284 OFFCURVE",
"135 293 OFFCURVE",
"135 387 CURVE SMOOTH",
"135 495 OFFCURVE",
"219 625 OFFCURVE",
"330 625 CURVE SMOOTH",
"393 625 OFFCURVE",
"462 601 OFFCURVE",
"462 497 CURVE SMOOTH",
"462 455 OFFCURVE",
"449 401 OFFCURVE",
"433 355 CURVE",
"410 336 OFFCURVE",
"340 284 OFFCURVE",
"247 284 CURVE SMOOTH"
);
}
);
userData = {
com.fontlab.hintData = {
hhints = (
{
position = 0;
width = 50;
},
{
position = 237;
width = 53;
},
{
position = 631;
width = 53;
}
);
vhints = (
{
position = 93;
width = 53;
},
{
position = 473;
width = 53;
}
);
};
};
width = 533;
},
{
background = {
paths = (
{
closed = 1;
nodes = (
"147 -6 OFFCURVE",
"155 -3 OFFCURVE",
"165 1 CURVE SMOOTH",
"214 21 OFFCURVE",
"451 131 OFFCURVE",
"507 411 CURVE SMOOTH",
"513 441 OFFCURVE",
"516 467 OFFCURVE",
"516 491 CURVE SMOOTH",
"516 618 OFFCURVE",
"430 661 OFFCURVE",
"339 661 CURVE SMOOTH",
"284 661 OFFCURVE",
"123 619 OFFCURVE",
"82 416 CURVE SMOOTH",
"78 396 OFFCURVE",
"76 377 OFFCURVE",
"76 359 CURVE SMOOTH",
"76 260 OFFCURVE",
"142 209 OFFCURVE",
"234 209 CURVE SMOOTH",
"268 209 OFFCURVE",
"299 215 OFFCURVE",
"326 224 CURVE",
"278 164 OFFCURVE",
"210 113 OFFCURVE",
"136 83 CURVE SMOOTH",
"119 76 OFFCURVE",
"105 60 OFFCURVE",
"100 40 CURVE",
"99 37 OFFCURVE",
"99 34 OFFCURVE",
"99 31 CURVE SMOOTH",
"99 9 OFFCURVE",
"114 -6 OFFCURVE",
"138 -6 CURVE SMOOTH"
);
},
{
closed = 1;
nodes = (
"233 303 OFFCURVE",
"171 309 OFFCURVE",
"171 382 CURVE SMOOTH",
"171 392 OFFCURVE",
"172 403 OFFCURVE",
"175 416 CURVE SMOOTH",
"204 540 OFFCURVE",
"288 567 OFFCURVE",
"319 567 CURVE SMOOTH",
"368 567 OFFCURVE",
"421 548 OFFCURVE",
"421 467 CURVE SMOOTH",
"421 451 OFFCURVE",
"419 433 OFFCURVE",
"414 411 CURVE SMOOTH",
"410 392 OFFCURVE",
"406 375 OFFCURVE",
"399 356 CURVE",
"376 337 OFFCURVE",
"322 303 OFFCURVE",
"254 303 CURVE SMOOTH"
);
}
);
};
layerId = "140D7E2C-8008-49AA-8FE3-CF6E53AFBA7D";
paths = (
{
closed = 1;
nodes = (
"174 -6 OFFCURVE",
"275 56 OFFCURVE",
"333 109 CURVE SMOOTH",
"438 205 OFFCURVE",
"518 354 OFFCURVE",
"518 491 CURVE SMOOTH",
"518 618 OFFCURVE",
"431 661 OFFCURVE",
"340 661 CURVE SMOOTH",
"209 661 OFFCURVE",
"77 529 OFFCURVE",
"77 359 CURVE SMOOTH",
"77 260 OFFCURVE",
"144 209 OFFCURVE",
"235 209 CURVE SMOOTH",
"269 209 OFFCURVE",
"300 215 OFFCURVE",
"327 224 CURVE",
"279 164 OFFCURVE",
"213 113 OFFCURVE",
"137 83 CURVE SMOOTH",
"118 75 OFFCURVE",
"100 55 OFFCURVE",
"100 31 CURVE SMOOTH",
"100 7 OFFCURVE",
"116 -6 OFFCURVE",
"139 -6 CURVE SMOOTH"
);
},
{
closed = 1;
nodes = (
"202 303 OFFCURVE",
"172 329 OFFCURVE",
"172 382 CURVE SMOOTH",
"172 479 OFFCURVE",
"245 567 OFFCURVE",
"320 567 CURVE SMOOTH",
"385 567 OFFCURVE",
"422 534 OFFCURVE",
"422 467 CURVE SMOOTH",
"422 437 OFFCURVE",
"412 387 OFFCURVE",
"400 356 CURVE",
"377 337 OFFCURVE",
"323 303 OFFCURVE",
"255 303 CURVE SMOOTH"
);
}
);
userData = {
com.fontlab.hintData = {
hhints = (
{
position = 0;
width = 89;
},
{
position = 215;
width = 94;
},
{
position = 573;
width = 94;
}
);
vhints = (
{
position = 86;
width = 95;
},
{
position = 431;
width = 96;
}
);
};
};
width = 523;
}
);
unicode = 0039;
},
